SplineFontDB: 3.0
FontName: Hack-Regular
FullName: Hack Regular
FamilyName: Hack
Weight: Regular
Copyright: Copyright (c) 2017 Source Foundry Authors / Copyright (c) 2003 by Bitstream, Inc. All Rights Reserved.
Version: 3.0
StyleMapFamilyName: 
FONDName: Hack
ItalicAngle: 0
UnderlinePosition: -220
UnderlineWidth: 90
Ascent: 1556
Descent: 492
InvalidEm: 0
UFOAscent: 1556
UFODescent: -492
LayerCount: 2
Layer: 0 0 "Back" 1
Layer: 1 0 "Fore" 0
StyleMap: 0x0040
FSType: 1
OS2Version: 0
OS2_WeightWidthSlopeOnly: 0
OS2_UseTypoMetrics: 0
CreationTime: 1513714083
ModificationTime: 1513714148
PfmFamily: 16
TTFWeight: 400
TTFWidth: 5
LineGap: 0
VLineGap: 0
Panose: 2 11 6 9 3 2 2 2 2 4
OS2TypoAscent: 1556
OS2TypoAOffset: 0
OS2TypoDescent: -492
OS2TypoDOffset: 0
OS2TypoLinegap: 410
OS2WinAscent: 1901
OS2WinAOffset: 0
OS2WinDescent: 483
OS2WinDOffset: 0
HheadAscent: 1901
HheadAOffset: 0
HheadDescent: -483
HheadDOffset: 0
OS2SubXSize: 1331
OS2SubYSize: 1228
OS2SubXOff: 0
OS2SubYOff: 153
OS2SupXSize: 1331
OS2SupYSize: 1228
OS2SupXOff: 0
OS2SupYOff: 716
OS2StrikeYSize: 102
OS2StrikeYPos: 530
OS2CapHeight: 1493
OS2XHeight: 1120
OS2Vendor: 'SRC '
OS2CodePages: 2000019f.dfd70000
OS2UnicodeRanges: a50006ef.1000b8fb.00000020.00000000
Lookup: 1 0 0 "'locl' Localized Forms in Latin lookup 0" { "'locl' Localized Forms in Latin lookup 0 subtable"  } ['locl' ('latn' <'MOL ' > ) ]
Lookup: 1 0 0 "'locl' Localized Forms in Latin lookup 1" { "'locl' Localized Forms in Latin lookup 1 subtable"  } ['locl' ('latn' <'ROM ' > ) ]
Lookup: 1 0 0 "'subs' Subscript in Latin lookup 2" { "'subs' Subscript in Latin lookup 2 subtable" ("inferior") } ['subs' ('latn' <'dflt' 'MOL ' 'ROM ' > 'DFLT' <'dflt' > ) ]
Lookup: 1 0 0 "'subs' Subscript in Latin lookup 3" { "'subs' Subscript in Latin lookup 3 subtable" ("inferior") } ['subs' ('latn' <'dflt' > ) ]

StartChar: .notdef
Encoding: 0 -1 0
GlifName: _notdef
Width: 1233
VWidth: 0
Flags: W
LayerCount: 2
Fore
SplineSet
1128 1444 m 257
NamedP: "hr00"
 1128 -362 l 257
NamedP: "dv01"
 104 -362 l 257
NamedP: "sh01"
 104 1444 l 257
 1128 1444 l 257
NamedP: "hr00"
1014 1329 m 257
NamedP: "ah01"
 219 1329 l 257
 219 -248 l 257
NamedP: "sh02"
 1014 -248 l 257
NamedP: "dv02"
 1014 1329 l 257
NamedP: "ah01"
EndSplineSet
PickledDataWithLists: "(dp1
S'com.schriftgestaltung.Glyphs.lastChange'
p2
S'2017-07-11 17:15:08 +0000'
p3
s."
EndChar

StartChar: A
Encoding: 1 65 1
GlifName: A_
Width: 1233
VWidth: 0
Flags: W
LayerCount: 2
Fore
SplineSet
494 1493 m 257
NamedP: "hr00"
 739 1493 l 257
 1196 0 l 257
NamedP: "ab01"
 987 0 l 257
 877 389 l 257
NamedP: "dv01"
 354 389 l 257
 246 0 l 257
NamedP: "ab02"
 37 0 l 257
 494 1493 l 257
NamedP: "hr00"
829 551 m 257
NamedP: "dv02"
 616 1315 l 257
 403 551 l 257
 829 551 l 257
NamedP: "dv02"
EndSplineSet
PickledDataWithLists: "(dp1
S'com.schriftgestaltung.Glyphs.lastChange'
p2
S'2017-07-11 17:15:08 +0000'
p3
s."
Substitution2: "Single Substitution lookup 14 subtable" ordfeminine
Substitution2: "Single Substitution lookup 11 subtable" ordfeminine
EndChar

StartChar: AE
Encoding: 2 198 2
GlifName: A_E_
Width: 1233
VWidth: 0
Flags: W
LayerCount: 2
Fore
SplineSet
410 1493 m 257
NamedP: "at01"
 1161 1493 l 257
 1161 1323 l 257
NamedP: "sv01"
 823 1323 l 257
NamedP: "sh01"
 823 881 l 257
 1130 881 l 257
NamedP: "dv02"
 1130 711 l 257
NamedP: "sh02"
 823 711 l 257
 823 170 l 257
NamedP: "dh02"
 1180 170 l 257
 1180 0 l 257
NamedP: "ab01"
 637 0 l 257
NamedP: "dh01"
 637 383 l 257
NamedP: "dv01"
 285 383 l 257
NamedP: "hr01"
 184 0 l 257
NamedP: "ab02"
 0 0 l 257
NamedP: "hr02"
 410 1493 l 257
NamedP: "at01"
637 551 m 257
NamedP: "sh03"
 637 1323 l 257
NamedP: "sv02"
 530 1323 l 257
NamedP: "sv03"
 328 551 l 257
 637 551 l 257
NamedP: "sh03"
EndSplineSet
PickledDataWithLists: "(dp1
S'com.schriftgestaltung.Glyphs.lastChange'
p2
S'2017-07-11 17:15:08 +0000'
p3
s."
EndChar

StartChar: Aacute
Encoding: 3 193 3
GlifName: A_acute
Width: 1233
VWidth: 0
Flags: W
LayerCount: 2
Fore
SplineSet
691 1856 m 257
NamedP: "hr00"
 877 1856 l 257
 648 1592 l 257
 494 1592 l 257
NamedP: "iv01"
 691 1856 l 257
NamedP: "hr00"
494 1493 m 257
NamedP: "at01"
 739 1493 l 257
 1196 0 l 257
NamedP: "ab01"
 987 0 l 257
 877 389 l 257
NamedP: "dv01"
 354 389 l 257
 246 0 l 257
NamedP: "ab02"
 37 0 l 257
 494 1493 l 257
NamedP: "at01"
829 551 m 257
NamedP: "dv02"
 616 1315 l 257
 403 551 l 257
 829 551 l 257
NamedP: "dv02"
EndSplineSet
PickledDataWithLists: "(dp1
S'com.schriftgestaltung.Glyphs.lastChange'
p2
S'2017-07-11 17:15:08 +0000'
p3
s."
EndChar

StartChar: Abreve
Encoding: 4 258 4
GlifName: A_breve
Width: 1233
VWidth: 0
Flags: W
LayerCount: 2
Fore
SplineSet
616 1589 m 256
NamedP: "dv01"
 423 1589 318 1670 303 1831 c 257
 422 1831 l 257
NamedP: "dv02"
 438 1759 505 1720 618 1720 c 256
NamedP: "sv01"
 727 1720 791 1757 811 1831 c 257
NamedP: "sv02"
 930 1831 l 257
 915 1671 809 1589 616 1589 c 256
NamedP: "dv01"
494 1493 m 257
NamedP: "at01"
 739 1493 l 257
 1196 0 l 257
NamedP: "ab01"
 987 0 l 257
 877 389 l 257
NamedP: "dv03"
 354 389 l 257
 246 0 l 257
NamedP: "ab02"
 37 0 l 257
 494 1493 l 257
NamedP: "at01"
829 551 m 257
NamedP: "hr01"
 616 1315 l 257
NamedP: "hr02"
 403 551 l 257
 829 551 l 257
NamedP: "hr01"
EndSplineSet
PickledDataWithLists: "(dp1
S'com.schriftgestaltung.Glyphs.lastChange'
p2
S'2017-07-11 17:15:08 +0000'
p3
s."
EndChar

StartChar: Acircumflex
Encoding: 5 194 5
GlifName: A_circumflex
Width: 1233
VWidth: 0
Flags: W
LayerCount: 2
Fore
SplineSet
522 1852 m 257
NamedP: "hr00"
 711 1852 l 257
 922 1586 l 257
NamedP: "iv01"
 782 1586 l 257
 616 1764 l 257
 451 1586 l 257
 311 1586 l 257
NamedP: "iv02"
 522 1852 l 257
NamedP: "hr00"
494 1493 m 257
NamedP: "at01"
 739 1493 l 257
 1196 0 l 257
NamedP: "ab01"
 987 0 l 257
 877 389 l 257
NamedP: "dv01"
 354 389 l 257
 246 0 l 257
NamedP: "ab02"
 37 0 l 257
 494 1493 l 257
NamedP: "at01"
829 551 m 257
NamedP: "dv02"
 616 1315 l 257
 403 551 l 257
 829 551 l 257
NamedP: "dv02"
EndSplineSet
PickledDataWithLists: "(dp1
S'com.schriftgestaltung.Glyphs.lastChange'
p2
S'2017-07-11 17:15:08 +0000'
p3
s."
EndChar

StartChar: Adieresis
Encoding: 6 196 6
GlifName: A_dieresis
Width: 1233
VWidth: 0
Flags: W
LayerCount: 2
Fore
SplineSet
349 1647 m 258
NamedP: "hr00"
 329 1647 319 1657 319 1677 c 258
NamedP: "sh01"
 319 1820 l 258
 319 1840 329 1850 349 1850 c 258
NamedP: "dv01"
 492 1850 l 258
 512 1850 522 1840 522 1820 c 258
 522 1677 l 258
NamedP: "sh02"
 522 1657 512 1647 492 1647 c 258
 349 1647 l 258
NamedP: "hr00"
741 1647 m 258
NamedP: "sv01"
 721 1647 711 1657 711 1677 c 258
NamedP: "ah01"
 711 1820 l 258
 711 1840 721 1850 741 1850 c 258
NamedP: "sv02"
 883 1850 l 258
 903 1850 913 1840 913 1820 c 258
 913 1677 l 258
NamedP: "sh03"
 913 1657 903 1647 883 1647 c 258
 741 1647 l 258
NamedP: "sv01"
494 1493 m 257
NamedP: "at01"
 739 1493 l 257
 1196 0 l 257
NamedP: "ab01"
 987 0 l 257
 877 389 l 257
NamedP: "dv02"
 354 389 l 257
 246 0 l 257
NamedP: "ab02"
 37 0 l 257
 494 1493 l 257
NamedP: "at01"
829 551 m 257
NamedP: "ih01"
 616 1315 l 257
NamedP: "ih02"
 403 551 l 257
NamedP: "ih03"
 829 551 l 257
NamedP: "ih01"
EndSplineSet
PickledDataWithLists: "(dp1
S'com.schriftgestaltung.Glyphs.lastChange'
p2
S'2017-07-11 17:15:08 +0000'
p3
s."
EndChar

StartChar: Agrave
Encoding: 7 192 7
GlifName: A_grave
Width: 1233
VWidth: 0
Flags: W
LayerCount: 2
Fore
SplineSet
358 1849 m 257
NamedP: "hr00"
 542 1849 l 257
 739 1585 l 257
NamedP: "iv01"
 585 1585 l 257
 358 1849 l 257
NamedP: "hr00"
494 1493 m 257
NamedP: "at01"
 739 1493 l 257
 1196 0 l 257
NamedP: "ab01"
 987 0 l 257
 877 389 l 257
NamedP: "dv01"
 354 389 l 257
 246 0 l 257
NamedP: "ab02"
 37 0 l 257
 494 1493 l 257
NamedP: "at01"
829 551 m 257
NamedP: "dv02"
 616 1315 l 257
 403 551 l 257
 829 551 l 257
NamedP: "dv02"
EndSplineSet
PickledDataWithLists: "(dp1
S'com.schriftgestaltung.Glyphs.lastChange'
p2
S'2017-07-11 17:15:08 +0000'
p3
s."
EndChar

StartChar: Alpha
Encoding: 8 913 8
GlifName: A_lpha
Width: 1233
VWidth: 0
Flags: W
LayerCount: 2
Fore
SplineSet
494 1493 m 257
NamedP: "hr00"
 739 1493 l 257
 1196 0 l 257
NamedP: "ab01"
 987 0 l 257
 877 389 l 257
NamedP: "dv01"
 354 389 l 257
 246 0 l 257
NamedP: "ab02"
 37 0 l 257
 494 1493 l 257
NamedP: "hr00"
829 551 m 257
NamedP: "dv02"
 616 1315 l 257
 403 551 l 257
 829 551 l 257
NamedP: "dv02"
EndSplineSet
PickledDataWithLists: "(dp1
S'com.schriftgestaltung.Glyphs.lastChange'
p2
S'2017-07-11 17:15:08 +0000'
p3
s."
EndChar

StartChar: Alphatonos
Encoding: 9 902 9
GlifName: A_lphatonos
Width: 1233
VWidth: 0
Flags: W
LayerCount: 2
Fore
SplineSet
-60 1117 m 257
NamedP: "hr00"
 221 1493 l 257
NamedP: "at01"
 419 1493 l 257
 94 1117 l 257
 -60 1117 l 257
NamedP: "hr00"
37 0 m 257
NamedP: "ab01"
 494 1493 l 257
NamedP: "at02"
 739 1493 l 257
 1196 0 l 257
NamedP: "ab02"
 987 0 l 257
 877 389 l 257
NamedP: "dv01"
 354 389 l 257
 246 0 l 257
 37 0 l 257
NamedP: "ab01"
829 551 m 257
NamedP: "dv02"
 616 1315 l 257
 403 551 l 257
 829 551 l 257
NamedP: "dv02"
EndSplineSet
PickledDataWithLists: "(dp1
S'com.schriftgestaltung.Glyphs.lastChange'
p2
S'2017-07-11 17:15:08 +0000'
p3
s."
EndChar

StartChar: Amacron
Encoding: 10 256 10
GlifName: A_macron
Width: 1233
VWidth: 0
Flags: W
LayerCount: 2
Fore
SplineSet
317 1800 m 257
NamedP: "hr00"
 915 1800 l 257
NamedP: "dv02"
 915 1652 l 257
NamedP: "dv01"
 317 1652 l 257
 317 1800 l 257
NamedP: "hr00"
494 1493 m 257
NamedP: "at01"
 739 1493 l 257
 1196 0 l 257
NamedP: "ab01"
 987 0 l 257
 877 389 l 257
NamedP: "dv03"
 354 389 l 257
 246 0 l 257
NamedP: "ab02"
 37 0 l 257
 494 1493 l 257
NamedP: "at01"
829 551 m 257
NamedP: "dv04"
 616 1315 l 257
 403 551 l 257
 829 551 l 257
NamedP: "dv04"
EndSplineSet
PickledDataWithLists: "(dp1
S'com.schriftgestaltung.Glyphs.lastChange'
p2
S'2017-07-11 17:15:08 +0000'
p3
s."
EndChar

StartChar: Aogonek
Encoding: 11 260 11
GlifName: A_ogonek
Width: 1233
VWidth: 0
Flags: W
LayerCount: 2
Fore
SplineSet
1124 -272 m 256
NamedP: "dv02"
 1165 -272 1192 -262 1233 -242 c 257
NamedP: "sh01"
 1233 -375 l 257
 1174 -391 1150 -395 1106 -395 c 256
NamedP: "dv01"
 955 -395 875 -339 875 -222 c 256
NamedP: "dh01"
 875 -157 901 -93 983 0 c 257
NamedP: "ab01"
 987 0 l 257
 877 389 l 257
NamedP: "dv03"
 354 389 l 257
 246 0 l 257
NamedP: "ab02"
 37 0 l 257
 494 1493 l 257
NamedP: "at01"
 739 1493 l 257
 1196 0 l 257
NamedP: "ih01"
 1102 0 l 257
 1038 -87 1014 -139 1014 -184 c 256
NamedP: "dh02"
 1014 -240 1052 -272 1124 -272 c 256
NamedP: "dv02"
829 551 m 257
NamedP: "dv04"
 616 1315 l 257
NamedP: "hr01"
 403 551 l 257
 829 551 l 257
NamedP: "dv04"
EndSplineSet
PickledDataWithLists: "(dp1
S'com.schriftgestaltung.Glyphs.lastChange'
p2
S'2017-07-11 17:15:08 +0000'
p3
s."
EndChar

StartChar: Aring
Encoding: 12 197 12
GlifName: A_ring
Width: 1233
VWidth: 0
Flags: W
LayerCount: 2
Fore
SplineSet
465 1399 m 257
NamedP: "hr00"
 425 1422 395 1455 375 1492 c 256
 352 1533 342 1578 342 1625 c 256
NamedP: "sh01"
 342 1782 464 1901 616 1901 c 256
NamedP: "dv02"
 693 1901 763 1870 812 1821 c 256
 859 1774 891 1706 891 1625 c 256
NamedP: "sh03"
 891 1577 880 1533 859 1494 c 256
 838 1455 808 1424 768 1399 c 257
NamedP: "sh04"
 1196 0 l 257
NamedP: "ab01"
 987 0 l 257
 877 389 l 257
NamedP: "sh05"
 354 389 l 257
NamedP: "sh06"
 246 0 l 257
NamedP: "ab02"
 37 0 l 257
 465 1399 l 257
NamedP: "hr00"
616 1475 m 256
 661 1475 697 1492 724 1519 c 256
 753 1548 768 1584 768 1626 c 256
NamedP: "ah01"
 768 1671 751 1707 724 1734 c 256
 693 1765 654 1778 615 1778 c 256
NamedP: "dv01"
 573 1778 538 1764 509 1735 c 256
 480 1706 465 1669 465 1626 c 256
NamedP: "sh02"
 465 1542 532 1475 616 1475 c 256
829 551 m 257
NamedP: "ih01"
 616 1311 l 257
NamedP: "ih02"
 403 551 l 257
NamedP: "ih03"
 829 551 l 257
NamedP: "ih01"
EndSplineSet
PickledDataWithLists: "(dp1
S'com.schriftgestaltung.Glyphs.lastChange'
p2
S'2017-07-11 17:15:08 +0000'
p3
s."
EndChar

StartChar: Atilde
Encoding: 13 195 13
GlifName: A_tilde
Width: 1233
VWidth: 0
Flags: W
LayerCount: 2
Fore
SplineSet
287 1587 m 257
NamedP: "hr00"
 287 1651 302 1704 339 1747 c 256
 373 1786 419 1806 476 1806 c 256
NamedP: "dv02"
 497 1806 519 1803 542 1798 c 256
 562 1793 586 1782 621 1763 c 258
 678 1733 l 257
 692 1724 705 1718 718 1714 c 256
 729 1710 739 1708 750 1708 c 256
 791 1708 821 1747 821 1800 c 258
 821 1806 l 257
NamedP: "sv01"
 946 1806 l 257
 945 1740 928 1687 893 1647 c 256
 859 1607 814 1587 757 1587 c 256
NamedP: "sv02"
 736 1587 715 1590 694 1595 c 256
 675 1600 653 1609 612 1630 c 257
 555 1663 l 258
 540 1672 526 1678 514 1683 c 256
 503 1687 492 1688 485 1688 c 256
 465 1688 445 1680 432 1663 c 256
 419 1646 412 1622 412 1593 c 258
 412 1587 l 257
NamedP: "dv01"
 287 1587 l 257
NamedP: "hr00"
494 1493 m 257
NamedP: "at01"
 739 1493 l 257
 1196 0 l 257
NamedP: "ab01"
 987 0 l 257
 877 389 l 257
NamedP: "dv03"
 354 389 l 257
 246 0 l 257
NamedP: "ab02"
 37 0 l 257
 494 1493 l 257
NamedP: "at01"
829 551 m 257
NamedP: "dv04"
 616 1315 l 257
 403 551 l 257
 829 551 l 257
NamedP: "dv04"
EndSplineSet
PickledDataWithLists: "(dp1
S'com.schriftgestaltung.Glyphs.lastChange'
p2
S'2017-07-11 17:15:08 +0000'
p3
s."
EndChar

StartChar: B
Encoding: 14 66 14
GlifName: B_
Width: 1233
VWidth: 0
Flags: W
LayerCount: 2
Fore
SplineSet
166 1493 m 257
NamedP: "dh01"
 608 1493 l 258
 760 1493 878 1460 961 1394 c 256
 1044 1328 1085 1234 1085 1113 c 256
NamedP: "dh04"
 1085 1020 1061 949 1020 898 c 256
 977 847 912 812 823 799 c 257
NamedP: "ih02"
 922 784 999 742 1054 674 c 256
 1109 606 1137 518 1137 409 c 256
NamedP: "sh01"
 1137 274 1093 173 1004 104 c 256
 915 35 783 0 608 0 c 258
NamedP: "ab01"
 166 0 l 257
 166 1493 l 257
NamedP: "dh01"
604 877 m 258
NamedP: "hr01"
 705 877 772 895 816 934 c 256
 859 971 881 1030 881 1111 c 256
NamedP: "dh03"
 881 1191 860 1244 817 1277 c 256
 774 1310 703 1327 604 1327 c 258
NamedP: "sv01"
 369 1327 l 257
NamedP: "dh02"
 369 877 l 257
NamedP: "hr02"
 604 877 l 258
NamedP: "hr01"
608 166 m 258
NamedP: "sv02"
 725 166 808 187 859 228 c 256
 909 269 934 336 934 430 c 256
NamedP: "ih01"
 934 527 908 599 855 645 c 256
NamedP: "hr03"
 802 690 719 713 608 713 c 258
NamedP: "dv01"
 369 713 l 257
NamedP: "sh02"
 369 166 l 257
 608 166 l 258
NamedP: "sv02"
EndSplineSet
PickledDataWithLists: "(dp1
S'com.schriftgestaltung.Glyphs.lastChange'
p2
S'2017-07-11 17:15:08 +0000'
p3
s."
EndChar

StartChar: Beta
Encoding: 15 914 15
GlifName: B_eta
Width: 1233
VWidth: 0
Flags: W
LayerCount: 2
Fore
SplineSet
166 1493 m 257
NamedP: "dh01"
 608 1493 l 258
 913 1493 1085 1357 1085 1110 c 256
NamedP: "dh03"
 1085 931 998 826 823 799 c 257
NamedP: "ih01"
 1017 770 1137 626 1137 407 c 256
NamedP: "sh02"
 1137 139 961 0 608 0 c 258
NamedP: "ab01"
 166 0 l 257
 166 1493 l 257
NamedP: "dh01"
604 877 m 258
NamedP: "dv01"
 796 877 881 947 881 1110 c 256
NamedP: "hr01"
 881 1265 804 1327 604 1327 c 258
NamedP: "sv01"
 369 1327 l 257
NamedP: "dh02"
 369 877 l 257
 604 877 l 258
NamedP: "dv01"
608 166 m 258
NamedP: "hr02"
 843 166 934 242 934 429 c 256
NamedP: "sh01"
 934 625 833 713 608 713 c 258
NamedP: "hr03"
 369 713 l 257
NamedP: "sh03"
 369 166 l 257
 608 166 l 258
NamedP: "hr02"
EndSplineSet
PickledDataWithLists: "(dp1
S'com.schriftgestaltung.Glyphs.lastChange'
p2
S'2017-07-11 17:15:08 +0000'
p3
s."
EndChar

StartChar: C
Encoding: 16 67 16
GlifName: C_
Width: 1233
VWidth: 0
Flags: W
LayerCount: 2
Fore
SplineSet
742 -29 m 256
NamedP: "hr00"
 555 -29 404 37 297 174 c 256
 192 310 139 503 139 744 c 256
NamedP: "dh01"
 139 1231 365 1520 742 1520 c 256
NamedP: "at01"
 871 1520 967 1497 1073 1438 c 257
 1073 1231 l 257
 1024 1272 971 1303 914 1324 c 256
 857 1345 801 1356 741 1356 c 256
NamedP: "sv01"
 612 1356 513 1305 448 1204 c 256
 383 1103 350 950 350 745 c 256
NamedP: "dh02"
 350 337 480 135 743 135 c 256
NamedP: "dv01"
 803 135 859 146 916 167 c 256
 971 188 1024 219 1073 260 c 257
 1073 53 l 257
 1021 26 968 5 915 -9 c 256
 863 -22 802 -29 742 -29 c 256
NamedP: "hr00"
EndSplineSet
PickledDataWithLists: "(dp1
S'com.schriftgestaltung.Glyphs.lastChange'
p2
S'2017-07-11 17:15:08 +0000'
p3
s."
EndChar

StartChar: Cacute
Encoding: 18 262 18
GlifName: C_acute
Width: 1233
VWidth: 0
Flags: W
LayerCount: 2
Fore
SplineSet
762 1852 m 257
NamedP: "sv02"
 948 1852 l 257
 719 1588 l 257
 565 1588 l 257
 762 1852 l 257
NamedP: "sv02"
742 -29 m 256
NamedP: "dv01"
 551 -29 401 41 297 174 c 256
 192 310 139 503 139 744 c 256
NamedP: "dh01"
 139 985 191 1179 298 1316 c 256
 402 1449 551 1520 742 1520 c 256
NamedP: "at01"
 802 1520 863 1513 915 1500 c 256
 966 1487 1022 1465 1073 1438 c 257
 1073 1231 l 257
 1024 1272 971 1303 914 1324 c 256
 857 1345 801 1356 741 1356 c 256
NamedP: "sv01"
 612 1356 513 1305 448 1204 c 256
 383 1103 350 950 350 745 c 256
NamedP: "dh02"
 350 541 383 388 448 287 c 256
 511 191 606 135 742 135 c 256
NamedP: "dv02"
 801 135 859 146 916 167 c 256
 971 188 1024 219 1073 260 c 257
 1073 53 l 257
 1021 26 968 5 915 -9 c 256
NamedP: "hr01"
 863 -22 802 -29 742 -29 c 256
NamedP: "dv01"
EndSplineSet
PickledDataWithLists: "(dp1
S'com.schriftgestaltung.Glyphs.lastChange'
p2
S'2017-07-11 17:15:08 +0000'
p3
s."
EndChar

StartChar: Ccaron
Encoding: 19 268 19
GlifName: C_caron
Width: 1233
VWidth: 0
Flags: W
LayerCount: 2
Fore
SplineSet
401 1852 m 257
NamedP: "sv03"
 541 1852 l 257
 706 1674 l 257
 872 1852 l 257
NamedP: "sv02"
 1012 1852 l 257
 801 1586 l 257
 612 1586 l 257
 401 1852 l 257
NamedP: "sv03"
742 -29 m 256
NamedP: "dv01"
 551 -29 401 41 297 174 c 256
 192 310 139 503 139 744 c 256
NamedP: "dh01"
 139 985 191 1179 298 1316 c 256
 402 1449 551 1520 742 1520 c 256
NamedP: "at01"
 802 1520 863 1513 915 1500 c 256
 966 1487 1022 1465 1073 1438 c 257
 1073 1231 l 257
 1024 1272 971 1303 914 1324 c 256
 857 1345 801 1356 741 1356 c 256
NamedP: "sv01"
 612 1356 513 1305 448 1204 c 256
 383 1103 350 950 350 745 c 256
NamedP: "dh02"
 350 541 383 388 448 287 c 256
 511 191 606 135 742 135 c 256
NamedP: "dv02"
 801 135 859 146 916 167 c 256
NamedP: "hr01"
 971 188 1024 219 1073 260 c 257
 1073 53 l 257
 1021 26 968 5 915 -9 c 256
 863 -22 802 -29 742 -29 c 256
NamedP: "dv01"
EndSplineSet
PickledDataWithLists: "(dp1
S'com.schriftgestaltung.Glyphs.lastChange'
p2
S'2017-07-11 17:15:08 +0000'
p3
s."
EndChar

StartChar: Ccedilla
Encoding: 20 199 20
GlifName: C_cedilla
Width: 1233
VWidth: 0
Flags: W
LayerCount: 2
Fore
SplineSet
741 1356 m 256
NamedP: "hr00"
 612 1356 513 1305 448 1204 c 256
 383 1103 350 950 350 745 c 256
NamedP: "dh02"
 350 541 383 388 448 287 c 256
 511 191 606 135 742 135 c 256
NamedP: "dv04"
 801 135 859 146 916 167 c 256
 971 188 1024 219 1073 260 c 257
 1073 53 l 257
 1021 26 968 5 915 -9 c 257
 886 -16 854 -22 822 -25 c 257
NamedP: "ih01"
 849 -58 870 -88 883 -115 c 256
 898 -146 909 -179 909 -219 c 256
NamedP: "dh04"
 909 -272 889 -319 849 -350 c 256
 810 -379 753 -395 670 -395 c 256
NamedP: "dv01"
 641 -395 612 -393 583 -389 c 256
NamedP: "sv01"
 552 -385 523 -379 495 -371 c 257
 495 -240 l 257
NamedP: "dh03"
 540 -261 594 -272 646 -272 c 256
NamedP: "dv02"
 731 -272 770 -239 770 -180 c 256
 770 -159 763 -134 748 -105 c 256
 737 -84 722 -58 701 -28 c 257
NamedP: "dv03"
 529 -17 393 51 297 174 c 256
 192 310 139 503 139 744 c 256
NamedP: "dh01"
 139 985 191 1179 298 1316 c 256
 402 1449 551 1520 742 1520 c 256
NamedP: "at01"
 802 1520 863 1513 915 1500 c 256
 966 1487 1022 1465 1073 1438 c 257
 1073 1231 l 257
 1024 1272 971 1303 914 1324 c 256
 857 1345 801 1356 741 1356 c 256
NamedP: "hr00"
EndSplineSet
PickledDataWithLists: "(dp1
S'com.schriftgestaltung.Glyphs.lastChange'
p2
S'2017-07-11 17:15:08 +0000'
p3
s."
EndChar

StartChar: Ccircumflex
Encoding: 21 264 21
GlifName: C_circumflex
Width: 1233
VWidth: 0
Flags: W
LayerCount: 2
Fore
SplineSet
582 1852 m 257
NamedP: "hr00"
 771 1852 l 257
 982 1586 l 257
 842 1586 l 257
 676 1764 l 257
 511 1586 l 257
 371 1586 l 257
 582 1852 l 257
NamedP: "hr00"
297 174 m 256
 192 311 139 501 139 744 c 256
 139 989 192 1180 298 1316 c 256
 403 1449 554 1520 742 1520 c 256
 865 1520 968 1494 1073 1438 c 257
 1073 1231 l 257
 976 1312 857 1356 741 1356 c 256
 480 1356 350 1152 350 745 c 256
 350 338 482 135 742 135 c 256
 863 135 974 177 1073 260 c 257
 1073 53 l 257
 966 -3 865 -29 742 -29 c 256
NamedP: "hr01"
 551 -29 401 41 297 174 c 256
EndSplineSet
PickledDataWithLists: "(dp1
S'com.schriftgestaltung.Glyphs.lastChange'
p2
S'2017-07-11 17:15:08 +0000'
p3
s."
EndChar

StartChar: Cdotaccent
Encoding: 22 266 22
GlifName: C_dotaccent
Width: 1233
VWidth: 0
Flags: W
LayerCount: 2
Fore
SplineSet
618 1647 m 258
NamedP: "hr00"
 598 1647 588 1657 588 1677 c 258
NamedP: "ah01"
 588 1822 l 258
 588 1842 598 1852 618 1852 c 258
NamedP: "dv03"
 763 1852 l 258
 783 1852 793 1842 793 1822 c 258
 793 1677 l 258
NamedP: "sh01"
 793 1657 783 1647 763 1647 c 258
 618 1647 l 258
NamedP: "hr00"
744 -29 m 256
NamedP: "dv01"
 360 -29 139 255 139 743 c 256
NamedP: "sh02"
 139 1233 361 1520 745 1520 c 256
NamedP: "at01"
 864 1520 969 1494 1073 1438 c 257
 1073 1231 l 257
 976 1311 864 1356 740 1356 c 256
NamedP: "sv01"
 481 1356 350 1154 350 745 c 256
NamedP: "sh03"
 350 338 480 135 740 135 c 256
NamedP: "dv02"
 861 135 976 179 1073 260 c 257
 1073 53 l 257
 969 -3 864 -29 744 -29 c 256
NamedP: "dv01"
EndSplineSet
PickledDataWithLists: "(dp1
S'com.schriftgestaltung.Glyphs.lastChange'
p2
S'2017-07-11 17:15:08 +0000'
p3
s."
EndChar

StartChar: Chi
Encoding: 23 935 23
GlifName: C_hi
Width: 1233
VWidth: 0
Flags: W
LayerCount: 2
Fore
SplineSet
518 791 m 257
NamedP: "hr00"
 86 1493 l 257
NamedP: "at01"
 303 1493 l 257
 631 930 l 257
NamedP: "iv01"
 965 1493 l 257
NamedP: "at02"
 1182 1493 l 257
 735 791 l 257
 1214 0 l 257
NamedP: "ab01"
 997 0 l 257
 631 643 l 257
NamedP: "iv02"
 236 0 l 257
NamedP: "ab02"
 18 0 l 257
 518 791 l 257
NamedP: "hr00"
EndSplineSet
PickledDataWithLists: "(dp1
S'com.schriftgestaltung.Glyphs.lastChange'
p2
S'2017-07-11 17:15:08 +0000'
p3
s."
EndChar

StartChar: D
Encoding: 24 68 24
GlifName: D_
Width: 1233
VWidth: 0
Flags: W
LayerCount: 2
Fore
SplineSet
137 1493 m 257
NamedP: "hr00"
 440 1493 l 258
 896 1493 1106 1257 1106 745 c 256
NamedP: "sh01"
 1106 490 1052 303 944 182 c 256
 836 61 668 0 440 0 c 258
NamedP: "ab01"
 137 0 l 257
 137 1493 l 257
NamedP: "hr00"
436 166 m 258
NamedP: "sv01"
 606 166 725 208 792 292 c 256
 860 376 893 523 893 747 c 256
NamedP: "ah01"
 893 967 861 1118 793 1202 c 256
 725 1287 603 1327 436 1327 c 258
NamedP: "sv02"
 340 1327 l 257
NamedP: "sh02"
 340 166 l 257
 436 166 l 258
NamedP: "sv01"
EndSplineSet
PickledDataWithLists: "(dp1
S'com.schriftgestaltung.Glyphs.lastChange'
p2
S'2017-07-11 17:15:08 +0000'
p3
s."
EndChar

StartChar: Dcaron
Encoding: 25 270 25
GlifName: D_caron
Width: 1233
VWidth: 0
Flags: W
LayerCount: 2
Fore
SplineSet
233 1852 m 257
NamedP: "hr00"
 373 1852 l 257
 538 1674 l 257
 704 1852 l 257
NamedP: "av01"
 844 1852 l 257
NamedP: "ih01"
 633 1586 l 257
 444 1586 l 257
 233 1852 l 257
NamedP: "hr00"
137 1493 m 257
NamedP: "sh01"
 440 1493 l 258
 896 1493 1106 1256 1106 747 c 256
NamedP: "sh03"
 1106 236 896 0 440 0 c 258
NamedP: "ab01"
 137 0 l 257
 137 1493 l 257
NamedP: "sh01"
436 166 m 258
NamedP: "sv01"
 777 166 893 308 893 746 c 256
NamedP: "ah01"
 893 1186 776 1327 436 1327 c 258
NamedP: "sv02"
 340 1327 l 257
NamedP: "sh02"
 340 166 l 257
 436 166 l 258
NamedP: "sv01"
EndSplineSet
PickledDataWithLists: "(dp1
S'com.schriftgestaltung.Glyphs.lastChange'
p2
S'2017-07-11 17:15:08 +0000'
p3
s."
EndChar

StartChar: Dcroat
Encoding: 26 272 26
GlifName: D_croat
Width: 1233
VWidth: 0
Flags: W
LayerCount: 2
Fore
SplineSet
133 709 m 257
NamedP: "hr00"
 8 709 l 257
 8 858 l 257
 133 858 l 257
NamedP: "sh01"
 133 1493 l 257
NamedP: "at01"
 436 1493 l 258
 891 1493 1102 1257 1102 746 c 256
NamedP: "sh02"
 1102 237 892 0 436 0 c 258
NamedP: "ab01"
 133 0 l 257
 133 709 l 257
NamedP: "hr00"
436 166 m 258
NamedP: "sv01"
 777 166 893 308 893 746 c 256
NamedP: "ah01"
 893 1186 776 1327 436 1327 c 258
NamedP: "sv02"
 340 1327 l 257
NamedP: "sh04"
 340 858 l 257
NamedP: "sv03"
 604 858 l 257
 604 709 l 257
NamedP: "sv04"
 340 709 l 257
NamedP: "sh03"
 340 166 l 257
 436 166 l 258
NamedP: "sv01"
EndSplineSet
PickledDataWithLists: "(dp1
S'com.schriftgestaltung.Glyphs.lastChange'
p2
S'2017-07-11 17:15:08 +0000'
p3
s."
EndChar

StartChar: E
Encoding: 27 69 27
GlifName: E_
Width: 1233
VWidth: 0
Flags: W
LayerCount: 2
Fore
SplineSet
197 1493 m 257
NamedP: "hr00"
 1083 1493 l 257
 1083 1323 l 257
NamedP: "sv01"
 399 1323 l 257
NamedP: "dh01"
 399 881 l 257
 1053 881 l 257
NamedP: "dv02"
 1053 711 l 257
NamedP: "dv01"
 399 711 l 257
NamedP: "sh01"
 399 170 l 257
NamedP: "sv02"
 1102 170 l 257
 1102 0 l 257
NamedP: "ab01"
 197 0 l 257
 197 1493 l 257
NamedP: "hr00"
EndSplineSet
PickledDataWithLists: "(dp1
S'com.schriftgestaltung.Glyphs.lastChange'
p2
S'2017-07-11 17:15:08 +0000'
p3
s."
EndChar

StartChar: Eacute
Encoding: 28 201 28
GlifName: E_acute
Width: 1233
VWidth: 0
Flags: W
LayerCount: 2
Fore
SplineSet
690 1856 m 257
NamedP: "hr00"
 876 1856 l 257
 647 1592 l 257
 493 1592 l 257
NamedP: "iv01"
 690 1856 l 257
NamedP: "hr00"
197 1493 m 257
NamedP: "dh01"
 1083 1493 l 257
 1083 1323 l 257
NamedP: "sv01"
 399 1323 l 257
NamedP: "dh02"
 399 881 l 257
 1053 881 l 257
NamedP: "dv02"
 1053 711 l 257
NamedP: "dv01"
 399 711 l 257
NamedP: "sh01"
 399 170 l 257
NamedP: "sv02"
 1102 170 l 257
 1102 0 l 257
NamedP: "ab01"
 197 0 l 257
 197 1493 l 257
NamedP: "dh01"
EndSplineSet
PickledDataWithLists: "(dp1
S'com.schriftgestaltung.Glyphs.lastChange'
p2
S'2017-07-11 17:15:08 +0000'
p3
s."
EndChar

StartChar: Ecaron
Encoding: 29 282 29
GlifName: E_caron
Width: 1233
VWidth: 0
Flags: W
LayerCount: 2
Fore
SplineSet
347 1852 m 257
NamedP: "hr00"
 487 1852 l 257
 652 1674 l 257
 818 1852 l 257
NamedP: "av01"
 958 1852 l 257
 747 1586 l 257
 558 1586 l 257
 347 1852 l 257
NamedP: "hr00"
197 1493 m 257
NamedP: "dh01"
 1083 1493 l 257
 1083 1323 l 257
NamedP: "sv01"
 399 1323 l 257
NamedP: "dh02"
 399 881 l 257
 1053 881 l 257
NamedP: "dv02"
 1053 711 l 257
NamedP: "dv01"
 399 711 l 257
NamedP: "sh01"
 399 170 l 257
NamedP: "sv02"
 1102 170 l 257
 1102 0 l 257
NamedP: "ab01"
 197 0 l 257
 197 1493 l 257
NamedP: "dh01"
EndSplineSet
PickledDataWithLists: "(dp1
S'com.schriftgestaltung.Glyphs.lastChange'
p2
S'2017-07-11 17:15:08 +0000'
p3
s."
EndChar

StartChar: Ecircumflex
Encoding: 30 202 30
GlifName: E_circumflex
Width: 1233
VWidth: 0
Flags: W
LayerCount: 2
Fore
SplineSet
540 1852 m 257
NamedP: "hr00"
 729 1852 l 257
 940 1586 l 257
NamedP: "iv01"
 800 1586 l 257
 634 1764 l 257
 469 1586 l 257
 329 1586 l 257
NamedP: "ih01"
 540 1852 l 257
NamedP: "hr00"
197 1493 m 257
NamedP: "dh01"
 1083 1493 l 257
 1083 1323 l 257
NamedP: "sv01"
 399 1323 l 257
NamedP: "dh02"
 399 881 l 257
 1053 881 l 257
NamedP: "dv02"
 1053 711 l 257
NamedP: "dv01"
 399 711 l 257
NamedP: "sh01"
 399 170 l 257
NamedP: "sv02"
 1102 170 l 257
 1102 0 l 257
NamedP: "ab01"
 197 0 l 257
 197 1493 l 257
NamedP: "dh01"
EndSplineSet
PickledDataWithLists: "(dp1
S'com.schriftgestaltung.Glyphs.lastChange'
p2
S'2017-07-11 17:15:08 +0000'
p3
s."
EndChar

StartChar: Edieresis
Encoding: 31 203 31
GlifName: E_dieresis
Width: 1233
VWidth: 0
Flags: W
LayerCount: 2
Fore
SplineSet
367 1647 m 258
NamedP: "dv01"
 347 1647 337 1657 337 1677 c 258
NamedP: "ih01"
 337 1820 l 258
 337 1840 347 1850 367 1850 c 258
NamedP: "dv02"
 510 1850 l 258
 530 1850 540 1840 540 1820 c 258
 540 1677 l 258
NamedP: "sh01"
 540 1657 530 1647 510 1647 c 258
 367 1647 l 258
NamedP: "dv01"
759 1647 m 258
NamedP: "sv01"
 739 1647 729 1657 729 1677 c 258
NamedP: "dh03"
 729 1820 l 258
 729 1840 739 1850 759 1850 c 258
NamedP: "sv02"
 901 1850 l 258
 921 1850 931 1840 931 1820 c 258
 931 1677 l 258
NamedP: "dh04"
 931 1657 921 1647 901 1647 c 258
 759 1647 l 258
NamedP: "sv01"
197 1493 m 257
NamedP: "dh01"
 1083 1493 l 257
 1083 1323 l 257
NamedP: "sv03"
 399 1323 l 257
NamedP: "dh02"
 399 881 l 257
 1053 881 l 257
NamedP: "hr01"
 1053 711 l 257
NamedP: "dv03"
 399 711 l 257
NamedP: "sh02"
 399 170 l 257
NamedP: "sv04"
 1102 170 l 257
 1102 0 l 257
NamedP: "ab01"
 197 0 l 257
 197 1493 l 257
NamedP: "dh01"
EndSplineSet
PickledDataWithLists: "(dp1
S'com.schriftgestaltung.Glyphs.lastChange'
p2
S'2017-07-11 17:15:08 +0000'
p3
s."
EndChar

StartChar: Edotaccent
Encoding: 32 278 32
GlifName: E_dotaccent
Width: 1233
VWidth: 0
Flags: W
LayerCount: 2
Fore
SplineSet
561 1647 m 258
NamedP: "hr00"
 541 1647 531 1657 531 1677 c 258
NamedP: "ah01"
 531 1822 l 258
 531 1842 541 1852 561 1852 c 258
NamedP: "dv01"
 706 1852 l 258
 726 1852 736 1842 736 1822 c 258
 736 1677 l 258
NamedP: "sh01"
 736 1657 726 1647 706 1647 c 258
 561 1647 l 258
NamedP: "hr00"
197 1493 m 257
NamedP: "sh02"
 1083 1493 l 257
 1083 1323 l 257
NamedP: "sv01"
 399 1323 l 257
NamedP: "sh03"
 399 881 l 257
 1053 881 l 257
NamedP: "dv03"
 1053 711 l 257
NamedP: "dv02"
 399 711 l 257
NamedP: "sh04"
 399 170 l 257
NamedP: "sv02"
 1102 170 l 257
 1102 0 l 257
NamedP: "ab01"
 197 0 l 257
 197 1493 l 257
NamedP: "sh02"
EndSplineSet
PickledDataWithLists: "(dp1
S'com.schriftgestaltung.Glyphs.lastChange'
p2
S'2017-07-11 17:15:08 +0000'
p3
s."
EndChar

StartChar: Egrave
Encoding: 33 200 33
GlifName: E_grave
Width: 1233
VWidth: 0
Flags: W
LayerCount: 2
Fore
SplineSet
395 1856 m 257
NamedP: "hr00"
 579 1856 l 257
 776 1592 l 257
NamedP: "iv01"
 622 1592 l 257
 395 1856 l 257
NamedP: "hr00"
197 1493 m 257
NamedP: "dh01"
 1083 1493 l 257
 1083 1323 l 257
NamedP: "sv01"
 399 1323 l 257
NamedP: "dh02"
 399 881 l 257
 1053 881 l 257
NamedP: "dv02"
 1053 711 l 257
NamedP: "dv01"
 399 711 l 257
NamedP: "sh01"
 399 170 l 257
NamedP: "sv02"
 1102 170 l 257
 1102 0 l 257
NamedP: "ab01"
 197 0 l 257
 197 1493 l 257
NamedP: "dh01"
EndSplineSet
PickledDataWithLists: "(dp1
S'com.schriftgestaltung.Glyphs.lastChange'
p2
S'2017-07-11 17:15:08 +0000'
p3
s."
EndChar

StartChar: Emacron
Encoding: 34 274 34
GlifName: E_macron
Width: 1233
VWidth: 0
Flags: W
LayerCount: 2
Fore
SplineSet
335 1800 m 257
NamedP: "hr00"
 933 1800 l 257
NamedP: "dv02"
 933 1652 l 257
NamedP: "dv01"
 335 1652 l 257
 335 1800 l 257
NamedP: "hr00"
197 1493 m 257
NamedP: "dh01"
 1083 1493 l 257
 1083 1323 l 257
NamedP: "sv01"
 399 1323 l 257
NamedP: "dh02"
 399 881 l 257
 1053 881 l 257
NamedP: "dv04"
 1053 711 l 257
NamedP: "dv03"
 399 711 l 257
NamedP: "sh01"
 399 170 l 257
NamedP: "sv02"
 1102 170 l 257
 1102 0 l 257
NamedP: "ab01"
 197 0 l 257
 197 1493 l 257
NamedP: "dh01"
EndSplineSet
PickledDataWithLists: "(dp1
S'com.schriftgestaltung.Glyphs.lastChange'
p2
S'2017-07-11 17:15:08 +0000'
p3
s."
EndChar

StartChar: Eng
Encoding: 35 330 35
GlifName: E_ng
Width: 1233
VWidth: 0
Flags: W
LayerCount: 2
Fore
SplineSet
536 -270 m 257
NamedP: "sv01"
 703 -270 l 258
 823 -270 882 -195 882 0 c 258
NamedP: "ah01"
 882 1009 l 258
 882 1249 807 1358 642 1358 c 256
NamedP: "sv02"
 453 1358 349 1209 349 937 c 258
 349 0 l 257
NamedP: "hr01"
 147 0 l 257
NamedP: "sh01"
 147 1493 l 257
NamedP: "at01"
 331 1493 l 257
 349 1295 l 257
NamedP: "sh02"
 421 1444 544 1522 713 1522 c 256
NamedP: "sv03"
 961 1522 1085 1348 1085 999 c 258
 1085 -20 l 258
NamedP: "sh03"
 1085 -281 962 -426 741 -426 c 258
NamedP: "ab01"
 536 -426 l 257
 536 -270 l 257
NamedP: "sv01"
EndSplineSet
PickledDataWithLists: "(dp1
S'com.schriftgestaltung.Glyphs.lastChange'
p2
S'2017-07-11 17:15:08 +0000'
p3
s."
EndChar

StartChar: Eogonek
Encoding: 36 280 36
GlifName: E_ogonek
Width: 1233
VWidth: 0
Flags: W
LayerCount: 2
Fore
SplineSet
952 0 m 257
NamedP: "ab01"
 888 -87 864 -139 864 -184 c 256
NamedP: "dh04"
 864 -240 902 -272 974 -272 c 256
NamedP: "dv02"
 1015 -272 1057 -262 1098 -242 c 257
NamedP: "sh02"
 1098 -375 l 257
 1042 -390 1004 -395 955 -395 c 256
NamedP: "dv01"
 806 -395 725 -340 725 -221 c 256
NamedP: "dh03"
 725 -155 751 -93 833 0 c 257
NamedP: "ab02"
 197 0 l 257
NamedP: "dh01"
 197 1493 l 257
NamedP: "at01"
 1083 1493 l 257
 1083 1323 l 257
NamedP: "sv01"
 399 1323 l 257
NamedP: "sh03"
 399 881 l 257
 1053 881 l 257
NamedP: "dv04"
 1053 711 l 257
NamedP: "dv03"
 399 711 l 257
 399 170 l 257
NamedP: "dh02"
 1102 170 l 257
NamedP: "hr01"
 1102 0 l 257
NamedP: "sh01"
 952 0 l 257
NamedP: "ab01"
EndSplineSet
PickledDataWithLists: "(dp1
S'com.schriftgestaltung.Glyphs.lastChange'
p2
S'2017-07-11 17:15:08 +0000'
p3
s."
EndChar

StartChar: Epsilon
Encoding: 37 917 37
GlifName: E_psilon
Width: 1233
VWidth: 0
Flags: W
LayerCount: 2
Fore
SplineSet
197 1493 m 257
NamedP: "hr00"
 1083 1493 l 257
 1083 1323 l 257
NamedP: "sv01"
 399 1323 l 257
NamedP: "dh01"
 399 881 l 257
 1053 881 l 257
NamedP: "dv02"
 1053 711 l 257
NamedP: "dv01"
 399 711 l 257
NamedP: "sh01"
 399 170 l 257
NamedP: "sv02"
 1102 170 l 257
 1102 0 l 257
NamedP: "ab01"
 197 0 l 257
 197 1493 l 257
NamedP: "hr00"
EndSplineSet
PickledDataWithLists: "(dp1
S'com.schriftgestaltung.Glyphs.lastChange'
p2
S'2017-07-11 17:15:08 +0000'
p3
s."
EndChar

StartChar: Epsilontonos
Encoding: 38 904 38
GlifName: E_psilontonos
Width: 1233
VWidth: 0
Flags: W
LayerCount: 2
Fore
SplineSet
55 1493 m 257
NamedP: "hr00"
 253 1493 l 257
 -72 1117 l 257
 -226 1117 l 257
NamedP: "iv01"
 55 1493 l 257
NamedP: "hr00"
328 1493 m 257
NamedP: "dh01"
 1214 1493 l 257
 1214 1323 l 257
NamedP: "sv01"
 530 1323 l 257
NamedP: "dh02"
 530 881 l 257
 1184 881 l 257
NamedP: "dv02"
 1184 711 l 257
NamedP: "dv01"
 530 711 l 257
NamedP: "sh01"
 530 170 l 257
NamedP: "sv02"
 1233 170 l 257
 1233 0 l 257
NamedP: "ab01"
 328 0 l 257
 328 1493 l 257
NamedP: "dh01"
EndSplineSet
PickledDataWithLists: "(dp1
S'com.schriftgestaltung.Glyphs.lastChange'
p2
S'2017-07-11 17:15:08 +0000'
p3
s."
EndChar

StartChar: Eta
Encoding: 39 919 39
GlifName: E_ta
Width: 1233
VWidth: 0
Flags: W
LayerCount: 2
Fore
SplineSet
137 1493 m 257
NamedP: "hr00"
 340 1493 l 257
NamedP: "sh01"
 340 881 l 257
 893 881 l 257
NamedP: "dv02"
 893 1493 l 257
NamedP: "ah01"
 1096 1493 l 257
NamedP: "sh02"
 1096 0 l 257
NamedP: "ab01"
 893 0 l 257
NamedP: "sh03"
 893 711 l 257
NamedP: "dv01"
 340 711 l 257
NamedP: "sh04"
 340 0 l 257
NamedP: "ab02"
 137 0 l 257
 137 1493 l 257
NamedP: "hr00"
EndSplineSet
PickledDataWithLists: "(dp1
S'com.schriftgestaltung.Glyphs.lastChange'
p2
S'2017-07-11 17:15:08 +0000'
p3
s."
EndChar

StartChar: Etatonos
Encoding: 40 905 40
GlifName: E_tatonos
Width: 1233
VWidth: 0
Flags: W
LayerCount: 2
Fore
SplineSet
-16 1493 m 257
NamedP: "hr00"
 182 1493 l 257
 -143 1117 l 257
 -297 1117 l 257
NamedP: "iv01"
 -16 1493 l 257
NamedP: "hr00"
257 1493 m 257
NamedP: "sh01"
 460 1493 l 257
NamedP: "sh02"
 460 881 l 257
 1013 881 l 257
NamedP: "dv02"
 1013 1493 l 257
NamedP: "ah01"
 1216 1493 l 257
NamedP: "sh03"
 1216 0 l 257
NamedP: "ab01"
 1013 0 l 257
NamedP: "sh04"
 1013 711 l 257
NamedP: "dv01"
 460 711 l 257
NamedP: "sh05"
 460 0 l 257
NamedP: "ab02"
 257 0 l 257
 257 1493 l 257
NamedP: "sh01"
EndSplineSet
PickledDataWithLists: "(dp1
S'com.schriftgestaltung.Glyphs.lastChange'
p2
S'2017-07-11 17:15:08 +0000'
p3
s."
EndChar

StartChar: Eth
Encoding: 41 208 41
GlifName: E_th
Width: 1233
VWidth: 0
Flags: W
LayerCount: 2
Fore
SplineSet
133 709 m 257
NamedP: "hr00"
 8 709 l 257
 8 858 l 257
 133 858 l 257
NamedP: "sh01"
 133 1493 l 257
NamedP: "at01"
 436 1493 l 258
 892 1493 1102 1257 1102 746 c 256
NamedP: "sh02"
 1102 491 1048 303 940 182 c 256
 829 58 660 0 436 0 c 258
NamedP: "ab01"
 133 0 l 257
 133 709 l 257
NamedP: "hr00"
436 166 m 258
NamedP: "sv01"
 620 166 725 211 791 293 c 256
 860 380 893 521 893 748 c 256
NamedP: "ah01"
 893 982 858 1115 792 1200 c 256
 721 1289 609 1327 436 1327 c 258
NamedP: "sv02"
 340 1327 l 257
NamedP: "sh04"
 340 858 l 257
NamedP: "sv03"
 604 858 l 257
 604 709 l 257
NamedP: "sv04"
 340 709 l 257
NamedP: "sh03"
 340 166 l 257
 436 166 l 258
NamedP: "sv01"
EndSplineSet
PickledDataWithLists: "(dp1
S'com.schriftgestaltung.Glyphs.lastChange'
p2
S'2017-07-11 17:15:08 +0000'
p3
s."
EndChar

StartChar: Euro
Encoding: 42 8364 42
GlifName: E_uro
Width: 1233
VWidth: 0
Flags: W
LayerCount: 2
Fore
SplineSet
755 -29 m 257
NamedP: "hr00"
 444 -20 279 152 211 543 c 257
NamedP: "sh01"
 37 543 l 257
 86 653 l 257
 203 653 l 257
NamedP: "dv02"
 202 661 202 672 201 685 c 257
NamedP: "dh01"
 199 747 l 257
 201 812 l 257
NamedP: "sh02"
 201 819 203 837 203 840 c 257
NamedP: "dv03"
 37 840 l 257
 86 948 l 257
 211 948 l 257
NamedP: "sh03"
 243 1139 307 1281 396 1376 c 256
 487 1472 606 1520 755 1520 c 256
NamedP: "at01"
 811 1520 864 1513 914 1500 c 256
 962 1487 1011 1467 1061 1438 c 257
 1061 1231 l 257
 1017 1272 967 1303 916 1326 c 256
 864 1349 811 1360 756 1360 c 256
NamedP: "sv01"
 660 1360 583 1325 525 1256 c 256
 467 1187 430 1085 414 948 c 257
NamedP: "sh04"
 895 948 l 257
 846 840 l 257
NamedP: "sv02"
 404 840 l 257
 403 828 402 814 402 798 c 256
NamedP: "sh05"
 402 789 401 785 401 742 c 256
NamedP: "dh02"
 401 700 402 699 402 695 c 256
NamedP: "sh06"
 402 682 402 668 403 653 c 257
NamedP: "sh07"
 764 653 l 257
 715 543 l 257
NamedP: "sv03"
 414 543 l 257
NamedP: "sh08"
 429 408 465 306 524 236 c 256
 582 166 660 131 757 131 c 256
NamedP: "dv01"
 811 131 864 142 916 165 c 256
 972 189 1017 220 1061 260 c 257
 1061 53 l 257
 1012 24 964 4 915 -9 c 256
 865 -22 812 -29 755 -29 c 257
NamedP: "hr00"
EndSplineSet
PickledDataWithLists: "(dp1
S'com.schriftgestaltung.Glyphs.lastChange'
p2
S'2017-07-11 17:15:08 +0000'
p3
s."
EndChar

StartChar: F
Encoding: 43 70 43
GlifName: F_
Width: 1233
VWidth: 0
Flags: W
LayerCount: 2
Fore
SplineSet
233 1493 m 257
NamedP: "hr00"
 1112 1493 l 257
 1112 1323 l 257
NamedP: "sv01"
 436 1323 l 257
NamedP: "dh01"
 436 863 l 257
 1049 863 l 257
NamedP: "dv02"
 1049 693 l 257
NamedP: "dv01"
 436 693 l 257
NamedP: "sh01"
 436 0 l 257
NamedP: "ab01"
 233 0 l 257
 233 1493 l 257
NamedP: "hr00"
EndSplineSet
PickledDataWithLists: "(dp1
S'com.schriftgestaltung.Glyphs.lastChange'
p2
S'2017-07-11 17:15:08 +0000'
p3
s."
EndChar

StartChar: G
Encoding: 44 71 44
GlifName: G_
Width: 1233
VWidth: 0
Flags: W
LayerCount: 2
Fore
SplineSet
700 -29 m 256
NamedP: "dv01"
 509 -29 362 42 259 175 c 256
 155 311 102 503 102 744 c 256
NamedP: "dh01"
 102 1238 329 1520 703 1520 c 256
NamedP: "at01"
 770 1520 831 1511 887 1494 c 256
 946 1475 1001 1448 1053 1413 c 257
NamedP: "hr01"
 1053 1206 l 257
NamedP: "ih01"
 996 1261 938 1297 887 1320 c 256
 828 1345 766 1356 706 1356 c 256
NamedP: "sv01"
 577 1356 480 1308 412 1204 c 256
 345 1101 313 952 313 743 c 256
NamedP: "dh02"
 313 532 345 385 409 285 c 256
 472 185 570 135 703 135 c 256
NamedP: "dv02"
 746 135 785 140 820 151 c 256
 852 162 883 176 911 199 c 257
NamedP: "sh01"
 911 600 l 257
NamedP: "dv03"
 694 600 l 257
 694 766 l 257
NamedP: "dh03"
 1104 766 l 257
NamedP: "dh04"
 1104 123 l 257
 1050 73 989 35 922 10 c 256
 854 -16 780 -29 700 -29 c 256
NamedP: "dv01"
EndSplineSet
PickledDataWithLists: "(dp1
S'com.schriftgestaltung.Glyphs.lastChange'
p2
S'2017-07-11 17:15:08 +0000'
p3
s."
EndChar

StartChar: Gamma
Encoding: 45 915 45
GlifName: G_amma
Width: 1233
VWidth: 0
Flags: W
LayerCount: 2
Fore
SplineSet
215 1493 m 257
NamedP: "hr00"
 1139 1493 l 257
 1139 1323 l 257
NamedP: "sv01"
 418 1323 l 257
NamedP: "dh01"
 418 0 l 257
NamedP: "ab01"
 215 0 l 257
 215 1493 l 257
NamedP: "hr00"
EndSplineSet
PickledDataWithLists: "(dp1
S'com.schriftgestaltung.Glyphs.lastChange'
p2
S'2017-07-11 17:15:08 +0000'
p3
s."
EndChar

StartChar: Gbreve
Encoding: 46 286 46
GlifName: G_breve
Width: 1233
VWidth: 0
Flags: W
LayerCount: 2
Fore
SplineSet
656 1589 m 256
NamedP: "dv02"
 463 1589 358 1670 343 1831 c 257
 462 1831 l 257
NamedP: "sv01"
 478 1759 545 1720 658 1720 c 256
NamedP: "dv03"
 767 1720 831 1757 851 1831 c 257
NamedP: "sv02"
 970 1831 l 257
 955 1671 849 1589 656 1589 c 256
NamedP: "dv02"
700 -29 m 256
NamedP: "hr01"
 509 -29 362 42 259 175 c 256
 155 311 102 503 102 744 c 256
NamedP: "dh01"
 102 985 154 1179 261 1316 c 256
 362 1445 511 1520 702 1520 c 256
NamedP: "at01"
 829 1520 952 1483 1053 1413 c 257
 1053 1206 l 257
NamedP: "ih01"
 996 1261 938 1297 887 1320 c 256
 828 1345 766 1356 706 1356 c 256
NamedP: "sv03"
 577 1356 480 1308 412 1204 c 256
 345 1101 313 952 313 743 c 256
NamedP: "dh02"
 313 532 345 385 409 285 c 256
 476 181 571 135 703 135 c 256
NamedP: "dv01"
 794 135 855 154 911 199 c 257
NamedP: "sh01"
 911 600 l 257
NamedP: "dv04"
 694 600 l 257
 694 766 l 257
NamedP: "dh03"
 1104 766 l 257
NamedP: "dh04"
 1104 123 l 257
NamedP: "hr02"
 1050 73 989 35 922 10 c 256
NamedP: "hr03"
 854 -16 780 -29 700 -29 c 256
NamedP: "hr01"
EndSplineSet
PickledDataWithLists: "(dp1
S'com.schriftgestaltung.Glyphs.lastChange'
p2
S'2017-07-11 17:15:08 +0000'
p3
s."
EndChar

StartChar: Gcaron
Encoding: 47 486 47
GlifName: G_caron
Width: 1233
VWidth: 0
Flags: W
LayerCount: 2
Fore
SplineSet
401 1852 m 257
NamedP: "ih01"
 541 1852 l 257
 706 1674 l 257
 872 1852 l 257
NamedP: "sv02"
 1012 1852 l 257
NamedP: "ih02"
 801 1586 l 257
NamedP: "hr01"
 612 1586 l 257
 401 1852 l 257
NamedP: "ih01"
700 -29 m 256
NamedP: "dv01"
 324 -29 102 255 102 743 c 256
NamedP: "dh01"
 102 1233 327 1520 703 1520 c 256
NamedP: "at01"
 835 1520 945 1485 1053 1413 c 257
 1053 1206 l 257
NamedP: "ih03"
 945 1310 835 1356 707 1356 c 256
NamedP: "sv01"
 440 1356 313 1155 313 739 c 256
NamedP: "dh02"
 313 330 438 135 705 135 c 256
NamedP: "dv02"
 790 135 855 155 911 199 c 257
NamedP: "sh01"
 911 600 l 257
NamedP: "dv03"
 694 600 l 257
NamedP: "hr02"
 694 766 l 257
NamedP: "dh03"
 1104 766 l 257
NamedP: "dh04"
 1104 123 l 257
 996 23 861 -29 700 -29 c 256
NamedP: "dv01"
EndSplineSet
PickledDataWithLists: "(dp1
S'com.schriftgestaltung.Glyphs.lastChange'
p2
S'2017-07-11 17:15:08 +0000'
p3
s."
EndChar

StartChar: Gcircumflex
Encoding: 48 284 48
GlifName: G_circumflex
Width: 1233
VWidth: 0
Flags: W
LayerCount: 2
Fore
SplineSet
582 1852 m 257
NamedP: "hr00"
 771 1852 l 257
 982 1586 l 257
 842 1586 l 257
 676 1764 l 257
 511 1586 l 257
 371 1586 l 257
NamedP: "hr01"
 582 1852 l 257
NamedP: "hr00"
102 744 m 256
 102 988 157 1181 262 1317 c 256
 366 1450 516 1520 703 1520 c 256
 832 1520 948 1484 1053 1413 c 257
 1053 1206 l 257
 1002 1255 946 1293 887 1320 c 257
 830 1344 769 1356 706 1356 c 256
 575 1356 480 1307 412 1204 c 256
 345 1101 313 952 313 743 c 256
 313 639 321 549 337 474 c 256
 375 299 451 135 703 135 c 256
 790 135 863 159 911 199 c 257
 911 600 l 257
 694 600 l 257
 694 766 l 257
 1104 766 l 257
 1104 123 l 257
 995 22 860 -29 700 -29 c 256
 325 -29 102 260 102 744 c 256
EndSplineSet
PickledDataWithLists: "(dp1
S'com.schriftgestaltung.Glyphs.lastChange'
p2
S'2017-07-11 17:15:08 +0000'
p3
s."
EndChar

StartChar: Gdotaccent
Encoding: 49 288 49
GlifName: G_dotaccent
Width: 1233
VWidth: 0
Flags: W
LayerCount: 2
Fore
SplineSet
618 1647 m 258
NamedP: "dv03"
 598 1647 588 1657 588 1677 c 258
NamedP: "dh03"
 588 1822 l 258
 588 1842 598 1852 618 1852 c 258
NamedP: "dv04"
 763 1852 l 258
 783 1852 793 1842 793 1822 c 258
NamedP: "hr01"
 793 1677 l 258
NamedP: "dh04"
 793 1657 783 1647 763 1647 c 258
 618 1647 l 258
NamedP: "dv03"
700 -29 m 256
NamedP: "dv01"
 324 -29 102 255 102 743 c 256
NamedP: "dh01"
 102 1233 327 1520 703 1520 c 256
NamedP: "at01"
 835 1520 945 1485 1053 1413 c 257
 1053 1206 l 257
NamedP: "ih02"
 945 1310 835 1356 707 1356 c 256
NamedP: "sv01"
 440 1356 313 1155 313 739 c 256
NamedP: "dh02"
 313 330 438 135 705 135 c 256
NamedP: "dv02"
 790 135 855 155 911 199 c 257
NamedP: "sh02"
 911 600 l 257
NamedP: "dv05"
 694 600 l 257
 694 766 l 257
NamedP: "ih01"
 1104 766 l 257
NamedP: "sh01"
 1104 123 l 257
 996 23 861 -29 700 -29 c 256
NamedP: "dv01"
EndSplineSet
PickledDataWithLists: "(dp1
S'com.schriftgestaltung.Glyphs.lastChange'
p2
S'2017-07-11 17:15:08 +0000'
p3
s."
EndChar

StartChar: H
Encoding: 50 72 50
GlifName: H_
Width: 1233
VWidth: 0
Flags: W
LayerCount: 2
Fore
SplineSet
137 1493 m 257
NamedP: "hr00"
 340 1493 l 257
NamedP: "sh01"
 340 881 l 257
 893 881 l 257
NamedP: "dv02"
 893 1493 l 257
NamedP: "ah01"
 1096 1493 l 257
NamedP: "sh02"
 1096 0 l 257
NamedP: "ab01"
 893 0 l 257
NamedP: "sh03"
 893 711 l 257
NamedP: "dv01"
 340 711 l 257
NamedP: "sh04"
 340 0 l 257
NamedP: "ab02"
 137 0 l 257
 137 1493 l 257
NamedP: "hr00"
EndSplineSet
PickledDataWithLists: "(dp1
S'com.schriftgestaltung.Glyphs.lastChange'
p2
S'2017-07-11 17:15:08 +0000'
p3
s."
EndChar

StartChar: Hbar
Encoding: 51 294 51
GlifName: H_bar
Width: 1233
VWidth: 0
Flags: W
LayerCount: 2
Fore
SplineSet
137 1105 m 257
NamedP: "hr00"
 3 1105 l 257
 3 1269 l 257
 137 1269 l 257
NamedP: "sh01"
 137 1493 l 257
NamedP: "at01"
 339 1493 l 257
NamedP: "sh03"
 339 1269 l 257
NamedP: "sv01"
 893 1269 l 257
NamedP: "ah01"
 893 1493 l 257
NamedP: "at02"
 1095 1493 l 257
 1095 1269 l 257
NamedP: "sh04"
 1230 1269 l 257
 1230 1105 l 257
NamedP: "sv02"
 1095 1105 l 257
NamedP: "sh05"
 1095 0 l 257
NamedP: "ab01"
 893 0 l 257
NamedP: "sh06"
 893 711 l 257
NamedP: "dv01"
 339 711 l 257
NamedP: "sh07"
 339 0 l 257
NamedP: "ab02"
 137 0 l 257
 137 1105 l 257
NamedP: "hr00"
893 881 m 257
NamedP: "sh08"
 893 1105 l 257
NamedP: "sv03"
 339 1105 l 257
NamedP: "sh02"
 339 881 l 257
 893 881 l 257
NamedP: "sh08"
EndSplineSet
PickledDataWithLists: "(dp1
S'com.schriftgestaltung.Glyphs.lastChange'
p2
S'2017-07-11 17:15:08 +0000'
p3
s."
EndChar

StartChar: Hcircumflex
Encoding: 52 292 52
GlifName: H_circumflex
Width: 1233
VWidth: 0
Flags: W
LayerCount: 2
Fore
SplineSet
522 1852 m 257
NamedP: "hr00"
 711 1852 l 257
 922 1586 l 257
 782 1586 l 257
 616 1764 l 257
 451 1586 l 257
 311 1586 l 257
 522 1852 l 257
NamedP: "hr00"
137 1493 m 257
 340 1493 l 257
 340 881 l 257
 893 881 l 257
 893 1493 l 257
 1096 1493 l 257
 1096 0 l 257
 893 0 l 257
 893 711 l 257
 340 711 l 257
 340 0 l 257
 137 0 l 257
 137 1493 l 257
EndSplineSet
PickledDataWithLists: "(dp1
S'com.schriftgestaltung.Glyphs.lastChange'
p2
S'2017-07-11 17:15:08 +0000'
p3
s."
EndChar

StartChar: I
Encoding: 53 73 53
GlifName: I_
Width: 1233
VWidth: 0
Flags: W
LayerCount: 2
Fore
SplineSet
201 170 m 257
NamedP: "hr00"
 514 170 l 257
NamedP: "dh01"
 514 1323 l 257
NamedP: "sv01"
 201 1323 l 257
 201 1493 l 257
NamedP: "at01"
 1030 1493 l 257
 1030 1323 l 257
NamedP: "sv02"
 717 1323 l 257
NamedP: "sv03"
 717 170 l 257
NamedP: "dh02"
 1030 170 l 257
NamedP: "sv04"
 1030 0 l 257
NamedP: "ab01"
 201 0 l 257
 201 170 l 257
NamedP: "hr00"
EndSplineSet
PickledDataWithLists: "(dp1
S'com.schriftgestaltung.Glyphs.lastChange'
p2
S'2017-07-11 17:15:08 +0000'
p3
s."
EndChar

StartChar: IJ
Encoding: 54 306 54
GlifName: I_J_
Width: 1233
VWidth: 0
Flags: W
LayerCount: 2
Fore
SplineSet
135 203 m 257
NamedP: "hr00"
 693 203 l 258
 730 203 764 212 795 231 c 256
 858 267 896 334 896 406 c 257
 895 1323 l 257
 575 1323 l 257
 575 1493 l 257
 1098 1494 l 257
 1099 406 l 257
 1099 333 1081 265 1045 203 c 256
NamedP: "hr01"
 972 78 840 0 693 0 c 258
NamedP: "hr02"
 135 0 l 257
 135 203 l 257
NamedP: "hr00"
135 1493 m 257
 338 1493 l 257
 338 406 l 257
 135 406 l 257
 135 1493 l 257
EndSplineSet
PickledDataWithLists: "(dp1
S'com.schriftgestaltung.Glyphs.lastChange'
p2
S'2017-07-11 17:15:08 +0000'
p3
s."
EndChar

StartChar: Iacute
Encoding: 55 205 55
GlifName: I_acute
Width: 1233
VWidth: 0
Flags: W
LayerCount: 2
Fore
SplineSet
691 1856 m 257
NamedP: "hr00"
 877 1856 l 257
 648 1592 l 257
 494 1592 l 257
NamedP: "iv01"
 691 1856 l 257
NamedP: "hr00"
201 170 m 257
NamedP: "sv01"
 514 170 l 257
NamedP: "dh01"
 514 1323 l 257
NamedP: "sv02"
 201 1323 l 257
 201 1493 l 257
NamedP: "at01"
 1030 1493 l 257
 1030 1323 l 257
NamedP: "sv03"
 717 1323 l 257
NamedP: "sv04"
 717 170 l 257
NamedP: "dh02"
 1030 170 l 257
NamedP: "sv05"
 1030 0 l 257
NamedP: "ab01"
 201 0 l 257
 201 170 l 257
NamedP: "sv01"
EndSplineSet
PickledDataWithLists: "(dp1
S'com.schriftgestaltung.Glyphs.lastChange'
p2
S'2017-07-11 17:15:08 +0000'
p3
s."
EndChar

StartChar: Icircumflex
Encoding: 56 206 56
GlifName: I_circumflex
Width: 1233
VWidth: 0
Flags: W
LayerCount: 2
Fore
SplineSet
521 1852 m 257
NamedP: "hr00"
 710 1852 l 257
 921 1586 l 257
NamedP: "iv01"
 781 1586 l 257
 615 1764 l 257
 450 1586 l 257
 310 1586 l 257
NamedP: "iv02"
 521 1852 l 257
NamedP: "hr00"
201 170 m 257
NamedP: "sv01"
 514 170 l 257
NamedP: "dh01"
 514 1323 l 257
NamedP: "sv02"
 201 1323 l 257
 201 1493 l 257
NamedP: "at01"
 1030 1493 l 257
 1030 1323 l 257
NamedP: "sv03"
 717 1323 l 257
NamedP: "sv04"
 717 170 l 257
NamedP: "dh02"
 1030 170 l 257
NamedP: "sv05"
 1030 0 l 257
NamedP: "ab01"
 201 0 l 257
 201 170 l 257
NamedP: "sv01"
EndSplineSet
PickledDataWithLists: "(dp1
S'com.schriftgestaltung.Glyphs.lastChange'
p2
S'2017-07-11 17:15:08 +0000'
p3
s."
EndChar

StartChar: Idieresis
Encoding: 57 207 57
GlifName: I_dieresis
Width: 1233
VWidth: 0
Flags: W
LayerCount: 2
Fore
SplineSet
349 1647 m 258
NamedP: "dv01"
 329 1647 319 1657 319 1677 c 258
NamedP: "dh01"
 319 1820 l 258
 319 1840 329 1850 349 1850 c 258
NamedP: "dv02"
 492 1850 l 258
 512 1850 522 1840 522 1820 c 258
 522 1677 l 258
NamedP: "dh02"
 522 1657 512 1647 492 1647 c 258
 349 1647 l 258
NamedP: "dv01"
741 1647 m 258
NamedP: "sv01"
 721 1647 711 1657 711 1677 c 258
NamedP: "sh02"
 711 1820 l 258
 711 1840 721 1850 741 1850 c 258
NamedP: "sv02"
 883 1850 l 258
 903 1850 913 1840 913 1820 c 258
NamedP: "hr01"
 913 1677 l 258
NamedP: "sh03"
 913 1657 903 1647 883 1647 c 258
 741 1647 l 258
NamedP: "sv01"
201 170 m 257
NamedP: "sv03"
 514 170 l 257
NamedP: "sh04"
 514 1323 l 257
NamedP: "sv04"
 201 1323 l 257
 201 1493 l 257
NamedP: "at01"
 1030 1493 l 257
 1030 1323 l 257
NamedP: "sv05"
 717 1323 l 257
NamedP: "sh05"
 717 170 l 257
NamedP: "sh01"
 1030 170 l 257
NamedP: "sv06"
 1030 0 l 257
NamedP: "ab01"
 201 0 l 257
 201 170 l 257
NamedP: "sv03"
EndSplineSet
PickledDataWithLists: "(dp1
S'com.schriftgestaltung.Glyphs.lastChange'
p2
S'2017-07-11 17:15:08 +0000'
p3
s."
EndChar

StartChar: Idotaccent
Encoding: 58 304 58
GlifName: I_dotaccent
Width: 1233
VWidth: 0
Flags: W
LayerCount: 2
Fore
SplineSet
543 1647 m 258
NamedP: "hr00"
 523 1647 513 1657 513 1677 c 258
NamedP: "sh01"
 513 1822 l 258
 513 1842 523 1852 543 1852 c 258
NamedP: "dv01"
 688 1852 l 258
 708 1852 718 1842 718 1822 c 258
NamedP: "sh02"
 718 1677 l 258
 718 1657 708 1647 688 1647 c 258
 543 1647 l 258
NamedP: "hr00"
201 170 m 257
NamedP: "sv01"
 514 170 l 257
NamedP: "dh01"
 514 1323 l 257
NamedP: "sv02"
 201 1323 l 257
 201 1493 l 257
NamedP: "at01"
 1030 1493 l 257
 1030 1323 l 257
NamedP: "sv03"
 717 1323 l 257
NamedP: "sv04"
 717 170 l 257
NamedP: "dh02"
 1030 170 l 257
NamedP: "sv05"
 1030 0 l 257
NamedP: "ab01"
 201 0 l 257
 201 170 l 257
NamedP: "sv01"
EndSplineSet
PickledDataWithLists: "(dp1
S'com.schriftgestaltung.Glyphs.lastChange'
p2
S'2017-07-11 17:15:08 +0000'
p3
s."
EndChar

StartChar: Igrave
Encoding: 59 204 59
GlifName: I_grave
Width: 1233
VWidth: 0
Flags: W
LayerCount: 2
Fore
SplineSet
372 1856 m 257
NamedP: "hr00"
 556 1856 l 257
 753 1592 l 257
NamedP: "iv01"
 599 1592 l 257
 372 1856 l 257
NamedP: "hr00"
201 170 m 257
NamedP: "sv01"
 514 170 l 257
NamedP: "dh01"
 514 1323 l 257
NamedP: "sv02"
 201 1323 l 257
 201 1493 l 257
NamedP: "at01"
 1030 1493 l 257
 1030 1323 l 257
NamedP: "sv03"
 717 1323 l 257
NamedP: "sv04"
 717 170 l 257
NamedP: "dh02"
 1030 170 l 257
NamedP: "sv05"
 1030 0 l 257
NamedP: "ab01"
 201 0 l 257
 201 170 l 257
NamedP: "sv01"
EndSplineSet
PickledDataWithLists: "(dp1
S'com.schriftgestaltung.Glyphs.lastChange'
p2
S'2017-07-11 17:15:08 +0000'
p3
s."
EndChar

StartChar: Imacron
Encoding: 60 298 60
GlifName: I_macron
Width: 1233
VWidth: 0
Flags: W
LayerCount: 2
Fore
SplineSet
335 1800 m 257
NamedP: "hr00"
 933 1800 l 257
NamedP: "dv02"
 933 1652 l 257
NamedP: "dv01"
 335 1652 l 257
 335 1800 l 257
NamedP: "hr00"
201 170 m 257
NamedP: "sv01"
 514 170 l 257
NamedP: "dh01"
 514 1323 l 257
NamedP: "sv02"
 201 1323 l 257
 201 1493 l 257
NamedP: "at01"
 1030 1493 l 257
 1030 1323 l 257
NamedP: "sv03"
 717 1323 l 257
NamedP: "sv04"
 717 170 l 257
NamedP: "dh02"
 1030 170 l 257
NamedP: "sv05"
 1030 0 l 257
NamedP: "ab01"
 201 0 l 257
 201 170 l 257
NamedP: "sv01"
EndSplineSet
PickledDataWithLists: "(dp1
S'com.schriftgestaltung.Glyphs.lastChange'
p2
S'2017-07-11 17:15:08 +0000'
p3
s."
EndChar

StartChar: Ibreve
Encoding: 61 300 61
GlifName: I_breve
Width: 1233
VWidth: 0
Flags: W
LayerCount: 2
Fore
SplineSet
201 170 m 257
NamedP: "hr00"
 514 170 l 257
NamedP: "dh01"
 514 1323 l 257
NamedP: "sv01"
 201 1323 l 257
 201 1493 l 257
NamedP: "at01"
 1030 1493 l 257
 1030 1323 l 257
NamedP: "sv02"
 717 1323 l 257
NamedP: "sv03"
 717 170 l 257
NamedP: "dh02"
 1030 170 l 257
NamedP: "sv04"
 1030 0 l 257
NamedP: "ab01"
 201 0 l 257
 201 170 l 257
NamedP: "hr00"
615 1619 m 256
NamedP: "dv02"
 422 1619 317 1700 302 1861 c 257
 421 1861 l 257
NamedP: "sv01"
 437 1789 504 1750 617 1750 c 256
NamedP: "dv03"
 726 1750 790 1787 810 1861 c 257
NamedP: "sv02"
 929 1861 l 257
 914 1701 808 1619 615 1619 c 256
NamedP: "dv02"
EndSplineSet
PickledDataWithLists: "(dp1
S'com.schriftgestaltung.Glyphs.lastChange'
p2
S'2017-09-30 11:34:36 +0000'
p3
s."
EndChar

StartChar: ibreve
Encoding: 62 301 62
GlifName: ibreve
Width: 1233
VWidth: 0
Flags: W
LayerCount: 2
Fore
SplineSet
256 1120 m 257
 727 1120 l 257
 727 143 l 257
 1092 143 l 257
 1092 0 l 257
 178 0 l 257
 178 143 l 257
 543 143 l 257
 543 977 l 257
 256 977 l 257
 256 1120 l 257
605 1298 m 256
NamedP: "dv03"
 413 1298 307 1394 292 1585 c 257
NamedP: "sh03"
 411 1585 l 257
NamedP: "sv01"
 418 1535 437 1497 470 1472 c 256
 501 1447 546 1435 605 1435 c 256
NamedP: "dv04"
 662 1435 707 1447 738 1472 c 256
 771 1497 791 1535 800 1585 c 257
NamedP: "sv02"
 919 1585 l 257
 912 1490 882 1418 829 1370 c 256
 776 1322 701 1298 605 1298 c 256
NamedP: "dv03"
  PathStart: -2
EndSplineSet
PickledDataWithLists: "(dp1
S'com.schriftgestaltung.Glyphs.lastChange'
p2
S'2017-09-30 11:34:43 +0000'
p3
s."
EndChar

StartChar: Iogonek
Encoding: 63 302 63
GlifName: I_ogonek
Width: 1233
VWidth: 0
Flags: W
LayerCount: 2
Fore
SplineSet
717 1323 m 257
NamedP: "sv01"
 717 170 l 257
NamedP: "sh01"
 1030 170 l 257
NamedP: "sv02"
 1030 0 l 257
NamedP: "ab01"
 717 0 l 257
 653 -87 629 -139 629 -184 c 256
NamedP: "dh02"
 629 -240 667 -272 739 -272 c 256
NamedP: "dv01"
 780 -272 822 -262 863 -242 c 257
NamedP: "sh02"
 863 -375 l 257
 807 -390 769 -395 720 -395 c 256
NamedP: "hr01"
 571 -395 490 -340 490 -221 c 256
NamedP: "dh01"
 490 -155 516 -93 598 0 c 257
NamedP: "ih01"
 201 0 l 257
 201 170 l 257
NamedP: "sv03"
 514 170 l 257
NamedP: "hr02"
 514 1323 l 257
NamedP: "hr03"
 201 1323 l 257
NamedP: "sv04"
 201 1493 l 257
NamedP: "at01"
 1030 1493 l 257
 1030 1323 l 257
 717 1323 l 257
NamedP: "sv01"
EndSplineSet
PickledDataWithLists: "(dp1
S'com.schriftgestaltung.Glyphs.lastChange'
p2
S'2017-07-11 17:15:08 +0000'
p3
s."
EndChar

StartChar: Iota
Encoding: 64 921 64
GlifName: I_ota
Width: 1233
VWidth: 0
Flags: W
LayerCount: 2
Fore
SplineSet
201 170 m 257
NamedP: "hr00"
 514 170 l 257
NamedP: "dh01"
 514 1323 l 257
NamedP: "sv01"
 201 1323 l 257
 201 1493 l 257
NamedP: "at01"
 1030 1493 l 257
 1030 1323 l 257
NamedP: "sv02"
 717 1323 l 257
NamedP: "sv03"
 717 170 l 257
NamedP: "dh02"
 1030 170 l 257
NamedP: "sv04"
 1030 0 l 257
NamedP: "ab01"
 201 0 l 257
 201 170 l 257
NamedP: "hr00"
EndSplineSet
PickledDataWithLists: "(dp1
S'com.schriftgestaltung.Glyphs.lastChange'
p2
S'2017-07-11 17:15:08 +0000'
p3
s."
EndChar

StartChar: Iotadieresis
Encoding: 65 938 65
GlifName: I_otadieresis
Width: 1233
VWidth: 0
Flags: W
LayerCount: 2
Fore
SplineSet
349 1649 m 258
NamedP: "dv01"
 329 1649 319 1659 319 1679 c 258
NamedP: "dh01"
 319 1822 l 258
 319 1842 329 1852 349 1852 c 258
NamedP: "dv02"
 492 1852 l 258
 512 1852 522 1842 522 1822 c 258
 522 1679 l 258
NamedP: "dh02"
 522 1659 512 1649 492 1649 c 258
 349 1649 l 258
NamedP: "dv01"
741 1649 m 258
NamedP: "sv01"
 721 1649 711 1659 711 1679 c 258
NamedP: "sh02"
 711 1822 l 258
 711 1842 721 1852 741 1852 c 258
NamedP: "sv02"
 883 1852 l 258
 903 1852 913 1842 913 1822 c 258
NamedP: "hr01"
 913 1679 l 258
NamedP: "sh03"
 913 1659 903 1649 883 1649 c 258
 741 1649 l 258
NamedP: "sv01"
202 170 m 257
NamedP: "sv03"
 515 170 l 257
NamedP: "sh04"
 515 1323 l 257
NamedP: "sv04"
 202 1323 l 257
 202 1493 l 257
NamedP: "at01"
 1031 1493 l 257
 1031 1323 l 257
NamedP: "sv05"
 718 1323 l 257
NamedP: "sh05"
 718 170 l 257
NamedP: "sh01"
 1031 170 l 257
NamedP: "sv06"
 1031 0 l 257
NamedP: "ab01"
 202 0 l 257
 202 170 l 257
NamedP: "sv03"
EndSplineSet
PickledDataWithLists: "(dp1
S'com.schriftgestaltung.Glyphs.lastChange'
p2
S'2017-07-11 17:15:08 +0000'
p3
s."
EndChar

StartChar: Iotatonos
Encoding: 66 906 66
GlifName: I_otatonos
Width: 1233
VWidth: 0
Flags: W
LayerCount: 2
Fore
SplineSet
58 1493 m 257
NamedP: "hr00"
 256 1493 l 257
 -69 1117 l 257
 -223 1117 l 257
NamedP: "iv01"
 58 1493 l 257
NamedP: "hr00"
331 170 m 257
NamedP: "sv01"
 644 170 l 257
NamedP: "dh01"
 644 1323 l 257
NamedP: "sv02"
 331 1323 l 257
 331 1493 l 257
NamedP: "at01"
 1160 1493 l 257
 1160 1323 l 257
NamedP: "sv03"
 847 1323 l 257
NamedP: "sv04"
 847 170 l 257
NamedP: "dh02"
 1160 170 l 257
NamedP: "sv05"
 1160 0 l 257
NamedP: "ab01"
 331 0 l 257
 331 170 l 257
NamedP: "sv01"
EndSplineSet
PickledDataWithLists: "(dp1
S'com.schriftgestaltung.Glyphs.lastChange'
p2
S'2017-07-11 17:15:08 +0000'
p3
s."
EndChar

StartChar: Itilde
Encoding: 67 296 67
GlifName: I_tilde
Width: 1233
VWidth: 0
Flags: W
LayerCount: 2
Fore
SplineSet
287 1633 m 257
NamedP: "hr00"
 287 1697 302 1750 339 1793 c 256
 373 1832 419 1852 476 1852 c 256
NamedP: "dv02"
 497 1852 519 1849 542 1844 c 256
 562 1839 586 1828 621 1809 c 258
 678 1779 l 257
 692 1770 705 1764 718 1760 c 256
 729 1756 739 1754 750 1754 c 256
 791 1754 821 1793 821 1846 c 258
 821 1852 l 257
NamedP: "sv01"
 946 1852 l 257
 945 1786 928 1733 893 1693 c 256
 859 1653 814 1633 757 1633 c 256
NamedP: "sv02"
 736 1633 715 1636 694 1641 c 256
 675 1646 653 1655 612 1676 c 257
 555 1709 l 258
 540 1718 526 1724 514 1729 c 256
 503 1733 492 1734 485 1734 c 256
 465 1734 445 1726 432 1709 c 256
 419 1692 412 1668 412 1639 c 258
 412 1633 l 257
NamedP: "dv01"
 287 1633 l 257
NamedP: "hr00"
201 170 m 257
NamedP: "sv03"
 514 170 l 257
 514 1323 l 257
NamedP: "dh01"
 201 1323 l 257
 201 1493 l 257
NamedP: "at01"
 1030 1493 l 257
 1030 1323 l 257
NamedP: "sv04"
 717 1323 l 257
NamedP: "dh02"
 717 170 l 257
NamedP: "sv05"
 1030 170 l 257
NamedP: "sv06"
 1030 0 l 257
NamedP: "ab01"
 201 0 l 257
 201 170 l 257
NamedP: "sv03"
EndSplineSet
PickledDataWithLists: "(dp1
S'com.schriftgestaltung.Glyphs.lastChange'
p2
S'2017-07-11 17:15:08 +0000'
p3
s."
EndChar

StartChar: J
Encoding: 68 74 68
GlifName: J_
Width: 1233
VWidth: 0
Flags: W
LayerCount: 2
Fore
SplineSet
502 -29 m 256
NamedP: "hr00"
 433 -29 368 -22 307 -7 c 256
 242 8 176 31 109 61 c 257
 109 297 l 257
 170 243 232 203 297 176 c 256
 363 149 430 135 499 135 c 256
NamedP: "dv01"
 588 135 659 158 698 210 c 256
 735 259 754 352 754 487 c 258
NamedP: "dh01"
 754 1323 l 257
NamedP: "sv01"
 373 1323 l 257
 373 1493 l 257
NamedP: "at01"
 956 1493 l 257
 956 487 l 258
NamedP: "dh02"
 956 111 825 -29 502 -29 c 256
NamedP: "hr00"
EndSplineSet
PickledDataWithLists: "(dp1
S'com.schriftgestaltung.Glyphs.lastChange'
p2
S'2017-07-11 17:15:08 +0000'
p3
s."
EndChar

StartChar: Jcircumflex
Encoding: 69 308 69
GlifName: J_circumflex
Width: 1233
VWidth: 0
Flags: W
LayerCount: 2
Fore
SplineSet
761 1852 m 257
NamedP: "hr00"
 950 1852 l 257
 1161 1586 l 257
 1021 1586 l 257
 855 1764 l 257
 690 1586 l 257
 550 1586 l 257
 761 1852 l 257
NamedP: "hr00"
109 61 m 257
 109 297 l 257
 230 189 360 135 499 135 c 256
 692 135 754 215 754 487 c 258
 754 1323 l 257
 373 1323 l 257
 373 1493 l 257
 956 1493 l 257
 956 487 l 258
 956 295 923 170 850 89 c 256
 777 9 666 -29 502 -29 c 256
 369 -29 248 0 109 61 c 257
EndSplineSet
PickledDataWithLists: "(dp1
S'com.schriftgestaltung.Glyphs.lastChange'
p2
S'2017-07-11 17:15:08 +0000'
p3
s."
EndChar

StartChar: K
Encoding: 70 75 70
GlifName: K_
Width: 1233
VWidth: 0
Flags: W
LayerCount: 2
Fore
SplineSet
137 1493 m 257
NamedP: "hr00"
 340 1493 l 257
NamedP: "dh01"
 340 829 l 257
NamedP: "iv01"
 971 1493 l 257
NamedP: "at01"
 1208 1493 l 257
 627 883 l 257
 1225 0 l 257
NamedP: "ab01"
 981 0 l 257
 494 748 l 257
 340 584 l 257
NamedP: "sh01"
 340 0 l 257
NamedP: "ab02"
 137 0 l 257
 137 1493 l 257
NamedP: "hr00"
EndSplineSet
PickledDataWithLists: "(dp1
S'com.schriftgestaltung.Glyphs.lastChange'
p2
S'2017-07-11 17:15:08 +0000'
p3
s."
EndChar

StartChar: Kappa
Encoding: 71 922 71
GlifName: K_appa
Width: 1233
VWidth: 0
Flags: W
LayerCount: 2
Fore
SplineSet
137 1493 m 257
NamedP: "hr00"
 340 1493 l 257
NamedP: "dh01"
 340 829 l 257
NamedP: "iv01"
 971 1493 l 257
NamedP: "at01"
 1208 1493 l 257
 627 883 l 257
 1225 0 l 257
NamedP: "ab01"
 981 0 l 257
 494 748 l 257
 340 584 l 257
NamedP: "sh01"
 340 0 l 257
NamedP: "ab02"
 137 0 l 257
 137 1493 l 257
NamedP: "hr00"
EndSplineSet
PickledDataWithLists: "(dp1
S'com.schriftgestaltung.Glyphs.lastChange'
p2
S'2017-07-11 17:15:08 +0000'
p3
s."
EndChar

StartChar: L
Encoding: 72 76 72
GlifName: L_
Width: 1233
VWidth: 0
Flags: W
LayerCount: 2
Fore
SplineSet
215 1493 m 257
NamedP: "hr00"
 418 1493 l 257
NamedP: "dh01"
 418 170 l 257
NamedP: "sv01"
 1139 170 l 257
 1139 0 l 257
NamedP: "ab01"
 215 0 l 257
 215 1493 l 257
NamedP: "hr00"
EndSplineSet
PickledDataWithLists: "(dp1
S'com.schriftgestaltung.Glyphs.lastChange'
p2
S'2017-07-11 17:15:08 +0000'
p3
s."
EndChar

StartChar: Lacute
Encoding: 73 313 73
GlifName: L_acute
Width: 1233
VWidth: 0
Flags: W
LayerCount: 2
Fore
SplineSet
412 1856 m 257
NamedP: "hr00"
 598 1856 l 257
 369 1592 l 257
 215 1592 l 257
NamedP: "iv01"
 412 1856 l 257
NamedP: "hr00"
215 1493 m 257
NamedP: "dh01"
 418 1493 l 257
NamedP: "dh02"
 418 170 l 257
NamedP: "sv01"
 1139 170 l 257
 1139 0 l 257
NamedP: "ab01"
 215 0 l 257
 215 1493 l 257
NamedP: "dh01"
EndSplineSet
PickledDataWithLists: "(dp1
S'com.schriftgestaltung.Glyphs.lastChange'
p2
S'2017-07-11 17:15:08 +0000'
p3
s."
EndChar

StartChar: Lambda
Encoding: 74 923 74
GlifName: L_ambda
Width: 1233
VWidth: 0
Flags: W
LayerCount: 2
Fore
SplineSet
494 1493 m 257
NamedP: "hr00"
 739 1493 l 257
 1196 0 l 257
NamedP: "ab01"
 987 0 l 257
 616 1315 l 257
NamedP: "iv01"
 246 0 l 257
NamedP: "ab02"
 37 0 l 257
 494 1493 l 257
NamedP: "hr00"
EndSplineSet
PickledDataWithLists: "(dp1
S'com.schriftgestaltung.Glyphs.lastChange'
p2
S'2017-07-11 17:15:08 +0000'
p3
s."
EndChar

StartChar: Lcaron
Encoding: 75 317 75
GlifName: L_caron
Width: 1233
VWidth: 0
Flags: W
LayerCount: 2
Fore
SplineSet
215 1493 m 257
NamedP: "hr00"
 418 1493 l 257
NamedP: "dh01"
 418 170 l 257
NamedP: "sv01"
 1139 170 l 257
 1139 0 l 257
NamedP: "ab01"
 215 0 l 257
 215 1493 l 257
NamedP: "hr00"
718 1491 m 257
NamedP: "at01"
 916 1491 l 257
 803 1115 l 257
NamedP: "sv02"
 649 1115 l 257
 718 1491 l 257
NamedP: "at01"
EndSplineSet
PickledDataWithLists: "(dp1
S'com.schriftgestaltung.Glyphs.lastChange'
p2
S'2017-07-11 17:15:08 +0000'
p3
s."
EndChar

StartChar: Ldot
Encoding: 76 319 76
GlifName: L_dot
Width: 1233
VWidth: 0
Flags: W
LayerCount: 2
Fore
SplineSet
215 1493 m 257
NamedP: "hr00"
 418 1493 l 257
 418 170 l 257
 1139 170 l 257
 1139 0 l 257
 215 0 l 257
 215 1493 l 257
NamedP: "hr00"
676 570 m 258
 676 714 l 258
 676 734 686 744 706 744 c 258
 851 744 l 258
 871 744 881 734 881 714 c 258
 881 570 l 258
 881 550 871 540 851 540 c 258
 706 540 l 258
 686 540 676 550 676 570 c 258
EndSplineSet
PickledDataWithLists: "(dp1
S'com.schriftgestaltung.Glyphs.lastChange'
p2
S'2017-07-11 17:15:08 +0000'
p3
s."
EndChar

StartChar: Lslash
Encoding: 77 321 77
GlifName: L_slash
Width: 1233
VWidth: 0
Flags: W
LayerCount: 2
Fore
SplineSet
215 571 m 257
NamedP: "hr00"
 70 465 l 257
 -10 575 l 257
 215 733 l 257
NamedP: "dh01"
 215 1493 l 257
NamedP: "at01"
 418 1493 l 257
NamedP: "sh01"
 418 877 l 257
NamedP: "iv01"
 733 1096 l 257
 811 985 l 257
 418 711 l 257
NamedP: "dh02"
 418 170 l 257
NamedP: "sv01"
 1139 170 l 257
 1139 0 l 257
NamedP: "ab01"
 215 0 l 257
 215 571 l 257
NamedP: "hr00"
EndSplineSet
PickledDataWithLists: "(dp1
S'com.schriftgestaltung.Glyphs.lastChange'
p2
S'2017-07-11 17:15:08 +0000'
p3
s."
EndChar

StartChar: M
Encoding: 78 77 78
GlifName: M_
Width: 1233
VWidth: 0
Flags: W
LayerCount: 2
Fore
SplineSet
86 1493 m 257
NamedP: "hr00"
 356 1493 l 257
 614 733 l 257
NamedP: "ih01"
 874 1493 l 257
NamedP: "at01"
 1145 1493 l 257
 1145 0 l 257
NamedP: "sh01"
 958 0 l 257
NamedP: "ah01"
 958 1319 l 257
NamedP: "iv01"
 692 532 l 257
 539 532 l 257
 272 1319 l 257
NamedP: "sh02"
 272 0 l 257
NamedP: "ab01"
 86 0 l 257
 86 1493 l 257
NamedP: "hr00"
EndSplineSet
PickledDataWithLists: "(dp1
S'com.schriftgestaltung.Glyphs.lastChange'
p2
S'2017-07-11 17:15:08 +0000'
p3
s."
EndChar

StartChar: Mu
Encoding: 79 924 79
GlifName: M_u
Width: 1233
VWidth: 0
Flags: W
LayerCount: 2
Fore
SplineSet
87 1493 m 257
NamedP: "hr00"
 357 1493 l 257
 615 733 l 257
NamedP: "ih01"
 875 1493 l 257
NamedP: "at01"
 1146 1493 l 257
 1146 0 l 257
NamedP: "sh01"
 959 0 l 257
NamedP: "ah01"
 959 1319 l 257
NamedP: "iv01"
 693 532 l 257
 540 532 l 257
 273 1319 l 257
NamedP: "sh02"
 273 0 l 257
NamedP: "ab01"
 87 0 l 257
 87 1493 l 257
NamedP: "hr00"
EndSplineSet
PickledDataWithLists: "(dp1
S'com.schriftgestaltung.Glyphs.lastChange'
p2
S'2017-07-11 17:15:08 +0000'
p3
s."
EndChar

StartChar: N
Encoding: 80 78 80
GlifName: N_
Width: 1233
VWidth: 0
Flags: W
LayerCount: 2
Fore
SplineSet
139 1493 m 257
NamedP: "hr00"
 395 1493 l 257
 899 264 l 257
NamedP: "ah01"
 899 1493 l 257
NamedP: "at01"
 1094 1493 l 257
 1094 0 l 257
NamedP: "sh01"
 838 0 l 257
 334 1229 l 257
NamedP: "sh02"
 334 0 l 257
NamedP: "ab01"
 139 0 l 257
 139 1493 l 257
NamedP: "hr00"
EndSplineSet
PickledDataWithLists: "(dp1
S'com.schriftgestaltung.Glyphs.lastChange'
p2
S'2017-07-11 17:15:08 +0000'
p3
s."
EndChar

StartChar: Nacute
Encoding: 82 323 82
GlifName: N_acute
Width: 1233
VWidth: 0
Flags: W
LayerCount: 2
Fore
SplineSet
731 1856 m 257
NamedP: "hr00"
 917 1856 l 257
NamedP: "ih01"
 688 1592 l 257
 534 1592 l 257
NamedP: "ih02"
 731 1856 l 257
NamedP: "hr00"
139 1493 m 257
NamedP: "sh02"
 395 1493 l 257
 899 264 l 257
NamedP: "ah01"
 899 1493 l 257
NamedP: "at01"
 1094 1493 l 257
 1094 0 l 257
NamedP: "sh01"
 838 0 l 257
 334 1229 l 257
NamedP: "sh03"
 334 0 l 257
NamedP: "ab01"
 139 0 l 257
 139 1493 l 257
NamedP: "sh02"
EndSplineSet
PickledDataWithLists: "(dp1
S'com.schriftgestaltung.Glyphs.lastChange'
p2
S'2017-07-11 17:15:08 +0000'
p3
s."
EndChar

StartChar: Ncaron
Encoding: 83 327 83
GlifName: N_caron
Width: 1233
VWidth: 0
Flags: W
LayerCount: 2
Fore
SplineSet
347 1852 m 257
NamedP: "hr00"
 487 1852 l 257
 652 1674 l 257
 818 1852 l 257
NamedP: "av01"
 958 1852 l 257
NamedP: "ih01"
 747 1586 l 257
 558 1586 l 257
 347 1852 l 257
NamedP: "hr00"
139 1493 m 257
NamedP: "sh01"
 395 1493 l 257
 899 264 l 257
NamedP: "ah01"
 899 1493 l 257
NamedP: "at01"
 1094 1493 l 257
 1094 0 l 257
NamedP: "sh03"
 838 0 l 257
 334 1229 l 257
NamedP: "sh02"
 334 0 l 257
NamedP: "ab01"
 139 0 l 257
 139 1493 l 257
NamedP: "sh01"
EndSplineSet
PickledDataWithLists: "(dp1
S'com.schriftgestaltung.Glyphs.lastChange'
p2
S'2017-07-11 17:15:08 +0000'
p3
s."
EndChar

StartChar: Ntilde
Encoding: 84 209 84
GlifName: N_tilde
Width: 1233
VWidth: 0
Flags: W
LayerCount: 2
Fore
SplineSet
287 1633 m 257
NamedP: "hr00"
 287 1697 302 1750 339 1793 c 256
NamedP: "sh03"
 373 1832 419 1852 476 1852 c 256
NamedP: "dv02"
 497 1852 519 1849 542 1844 c 256
 562 1839 586 1828 621 1809 c 258
 678 1779 l 257
 692 1770 705 1764 718 1760 c 256
 729 1756 739 1754 750 1754 c 256
 791 1754 821 1793 821 1846 c 258
 821 1852 l 257
NamedP: "sv01"
 946 1852 l 257
 945 1786 928 1733 893 1693 c 256
NamedP: "sh04"
 859 1653 814 1633 757 1633 c 256
NamedP: "sv02"
 736 1633 715 1636 694 1641 c 256
 675 1646 653 1655 612 1676 c 257
 555 1709 l 258
 540 1718 526 1724 514 1729 c 256
 503 1733 492 1734 485 1734 c 256
 465 1734 445 1726 432 1709 c 256
 419 1692 412 1668 412 1639 c 258
 412 1633 l 257
NamedP: "dv01"
 287 1633 l 257
NamedP: "hr00"
139 1493 m 257
NamedP: "sh01"
 395 1493 l 257
 899 264 l 257
NamedP: "ah01"
 899 1493 l 257
NamedP: "at01"
 1094 1493 l 257
 1094 0 l 257
NamedP: "sh05"
 838 0 l 257
 334 1229 l 257
NamedP: "sh02"
 334 0 l 257
NamedP: "ab01"
 139 0 l 257
 139 1493 l 257
NamedP: "sh01"
EndSplineSet
PickledDataWithLists: "(dp1
S'com.schriftgestaltung.Glyphs.lastChange'
p2
S'2017-07-11 17:15:08 +0000'
p3
s."
EndChar

StartChar: Nu
Encoding: 85 925 85
GlifName: N_u
Width: 1233
VWidth: 0
Flags: W
LayerCount: 2
Fore
SplineSet
139 1493 m 257
NamedP: "hr00"
 395 1493 l 257
 899 264 l 257
NamedP: "ah01"
 899 1493 l 257
NamedP: "at01"
 1094 1493 l 257
 1094 0 l 257
NamedP: "sh01"
 838 0 l 257
 334 1229 l 257
NamedP: "sh02"
 334 0 l 257
NamedP: "ab01"
 139 0 l 257
 139 1493 l 257
NamedP: "hr00"
EndSplineSet
PickledDataWithLists: "(dp1
S'com.schriftgestaltung.Glyphs.lastChange'
p2
S'2017-07-11 17:15:08 +0000'
p3
s."
EndChar

StartChar: O
Encoding: 86 79 86
GlifName: O_
Width: 1233
VWidth: 0
Flags: W
LayerCount: 2
Fore
SplineSet
616 -29 m 256
NamedP: "hr00"
 447 -29 322 35 240 162 c 256
 158 289 117 483 117 745 c 256
NamedP: "sh01"
 117 1006 158 1201 241 1328 c 256
 324 1456 445 1520 616 1520 c 256
NamedP: "at01"
 780 1520 908 1461 993 1328 c 256
 1075 1200 1116 1006 1116 745 c 256
NamedP: "sh02"
 1116 485 1075 291 993 163 c 256
 908 30 780 -29 616 -29 c 256
NamedP: "hr00"
616 135 m 256
NamedP: "dv01"
 719 135 793 182 838 276 c 256
 883 368 905 524 905 745 c 256
NamedP: "ah01"
 905 965 883 1122 838 1215 c 256
 793 1309 719 1356 616 1356 c 256
NamedP: "sv01"
 514 1356 441 1309 396 1215 c 256
 351 1120 328 964 328 745 c 256
NamedP: "sh03"
 328 527 351 371 396 276 c 256
 441 182 514 135 616 135 c 256
NamedP: "dv01"
EndSplineSet
PickledDataWithLists: "(dp1
S'com.schriftgestaltung.Glyphs.lastChange'
p2
S'2017-07-11 17:15:08 +0000'
p3
s."
Substitution2: "Single Substitution lookup 15 subtable" ordmasculine
Substitution2: "Single Substitution lookup 12 subtable" ordmasculine
EndChar

StartChar: OE
Encoding: 87 338 87
GlifName: O_E_
Width: 1233
VWidth: 0
Flags: W
LayerCount: 2
Fore
SplineSet
612 0 m 258
NamedP: "hr00"
 401 0 275 60 196 167 c 256
 111 283 72 468 72 747 c 256
NamedP: "sh01"
 72 1042 116 1219 195 1327 c 256
 275 1436 405 1493 612 1493 c 258
NamedP: "at01"
 1206 1493 l 257
 1206 1323 l 257
NamedP: "sv01"
 848 1323 l 257
NamedP: "sh03"
 848 881 l 257
 1176 881 l 257
NamedP: "dv02"
 1176 711 l 257
NamedP: "dv01"
 848 711 l 257
 848 170 l 257
NamedP: "sh02"
 1217 170 l 257
 1217 0 l 257
 612 0 l 258
NamedP: "hr00"
651 170 m 257
NamedP: "ah01"
 651 1323 l 257
NamedP: "sv02"
 590 1323 l 258
NamedP: "sv03"
 472 1323 390 1285 344 1208 c 256
 299 1132 274 990 274 745 c 256
NamedP: "sh04"
 274 505 297 362 344 285 c 256
 390 208 472 170 590 170 c 258
NamedP: "sv04"
 651 170 l 257
NamedP: "ah01"
EndSplineSet
PickledDataWithLists: "(dp1
S'com.schriftgestaltung.Glyphs.lastChange'
p2
S'2017-07-11 17:15:08 +0000'
p3
s."
EndChar

StartChar: Oacute
Encoding: 88 211 88
GlifName: O_acute
Width: 1233
VWidth: 0
Flags: W
LayerCount: 2
Fore
SplineSet
701 1856 m 257
NamedP: "sv02"
 887 1856 l 257
NamedP: "ih01"
 658 1592 l 257
 504 1592 l 257
NamedP: "ih02"
 701 1856 l 257
NamedP: "sv02"
616 -29 m 256
NamedP: "dv01"
 447 -29 322 35 240 162 c 256
 158 289 117 483 117 745 c 256
NamedP: "sh01"
 117 1006 158 1201 241 1328 c 256
 324 1456 445 1520 616 1520 c 256
NamedP: "at01"
 780 1520 908 1461 993 1328 c 256
 1075 1200 1116 1006 1116 745 c 256
NamedP: "sh02"
 1116 485 1075 291 993 163 c 256
 908 30 780 -29 616 -29 c 256
NamedP: "dv01"
616 135 m 256
NamedP: "dv02"
 719 135 793 182 838 276 c 256
 883 368 905 524 905 745 c 256
NamedP: "ah01"
 905 965 883 1122 838 1215 c 256
 793 1309 719 1356 616 1356 c 256
NamedP: "sv01"
 514 1356 441 1309 396 1215 c 256
 351 1120 328 964 328 745 c 256
NamedP: "sh03"
 328 527 351 371 396 276 c 256
 441 182 514 135 616 135 c 256
NamedP: "dv02"
EndSplineSet
PickledDataWithLists: "(dp1
S'com.schriftgestaltung.Glyphs.lastChange'
p2
S'2017-07-11 17:15:08 +0000'
p3
s."
EndChar

StartChar: Ocircumflex
Encoding: 89 212 89
GlifName: O_circumflex
Width: 1233
VWidth: 0
Flags: W
LayerCount: 2
Fore
SplineSet
540 1852 m 257
NamedP: "sv02"
 729 1852 l 257
 940 1586 l 257
NamedP: "ih01"
 800 1586 l 257
 634 1764 l 257
 469 1586 l 257
 329 1586 l 257
NamedP: "sh04"
 540 1852 l 257
NamedP: "sv02"
616 -29 m 256
NamedP: "dv01"
 447 -29 322 35 240 162 c 256
 158 289 117 483 117 745 c 256
NamedP: "sh02"
 117 1006 158 1201 241 1328 c 256
 324 1456 445 1520 616 1520 c 256
NamedP: "at01"
 780 1520 908 1461 993 1328 c 256
 1075 1200 1116 1006 1116 745 c 256
NamedP: "sh01"
 1116 485 1075 291 993 163 c 256
 908 30 780 -29 616 -29 c 256
NamedP: "dv01"
616 135 m 256
NamedP: "dv02"
 719 135 793 182 838 276 c 256
 883 368 905 524 905 745 c 256
NamedP: "ah01"
 905 965 883 1122 838 1215 c 256
 793 1309 719 1356 616 1356 c 256
NamedP: "sv01"
 514 1356 441 1309 396 1215 c 256
 351 1120 328 964 328 745 c 256
NamedP: "sh03"
 328 527 351 371 396 276 c 256
 441 182 514 135 616 135 c 256
NamedP: "dv02"
EndSplineSet
PickledDataWithLists: "(dp1
S'com.schriftgestaltung.Glyphs.lastChange'
p2
S'2017-07-11 17:15:08 +0000'
p3
s."
EndChar

StartChar: Odieresis
Encoding: 90 214 90
GlifName: O_dieresis
Width: 1233
VWidth: 0
Flags: W
LayerCount: 2
Fore
SplineSet
349 1647 m 258
NamedP: "dv03"
 329 1647 319 1657 319 1677 c 258
NamedP: "sh01"
 319 1820 l 258
 319 1840 329 1850 349 1850 c 258
NamedP: "dv04"
 492 1850 l 258
 512 1850 522 1840 522 1820 c 258
 522 1677 l 258
NamedP: "sh02"
 522 1657 512 1647 492 1647 c 258
 349 1647 l 258
NamedP: "dv03"
741 1647 m 258
NamedP: "sv01"
 721 1647 711 1657 711 1677 c 258
NamedP: "dh03"
 711 1820 l 258
 711 1840 721 1850 741 1850 c 258
NamedP: "sv02"
 883 1850 l 258
 903 1850 913 1840 913 1820 c 258
 913 1677 l 258
NamedP: "dh04"
 913 1657 903 1647 883 1647 c 258
 741 1647 l 258
NamedP: "sv01"
616 -29 m 256
NamedP: "dv01"
 447 -29 322 35 240 162 c 256
 158 289 117 483 117 745 c 256
NamedP: "dh01"
 117 1006 158 1201 241 1328 c 256
NamedP: "hr01"
 324 1456 445 1520 616 1520 c 256
NamedP: "at01"
 780 1520 908 1461 993 1328 c 256
 1075 1200 1116 1006 1116 745 c 256
NamedP: "sh03"
 1116 485 1075 291 993 163 c 256
 908 30 780 -29 616 -29 c 256
NamedP: "dv01"
616 135 m 256
NamedP: "dv02"
 719 135 793 182 838 276 c 256
 883 368 905 524 905 745 c 256
NamedP: "sh04"
 905 965 883 1122 838 1215 c 256
 793 1309 719 1356 616 1356 c 256
NamedP: "sv03"
 514 1356 441 1309 396 1215 c 256
 351 1120 328 964 328 745 c 256
NamedP: "dh02"
 328 527 351 371 396 276 c 256
 441 182 514 135 616 135 c 256
NamedP: "dv02"
EndSplineSet
PickledDataWithLists: "(dp1
S'com.schriftgestaltung.Glyphs.lastChange'
p2
S'2017-07-11 17:15:08 +0000'
p3
s."
EndChar

StartChar: Ograve
Encoding: 91 210 91
GlifName: O_grave
Width: 1233
VWidth: 0
Flags: W
LayerCount: 2
Fore
SplineSet
382 1856 m 257
NamedP: "ih01"
 566 1856 l 257
NamedP: "sv02"
 763 1592 l 257
NamedP: "ih02"
 609 1592 l 257
 382 1856 l 257
NamedP: "ih01"
616 -29 m 256
NamedP: "dv01"
 447 -29 322 35 240 162 c 256
 158 289 117 483 117 745 c 256
NamedP: "sh01"
 117 1006 158 1201 241 1328 c 256
 324 1456 445 1520 616 1520 c 256
NamedP: "at01"
 780 1520 908 1461 993 1328 c 256
 1075 1200 1116 1006 1116 745 c 256
NamedP: "sh02"
 1116 485 1075 291 993 163 c 256
 908 30 780 -29 616 -29 c 256
NamedP: "dv01"
616 135 m 256
NamedP: "dv02"
 719 135 793 182 838 276 c 256
 883 368 905 524 905 745 c 256
NamedP: "ah01"
 905 965 883 1122 838 1215 c 256
 793 1309 719 1356 616 1356 c 256
NamedP: "sv01"
 514 1356 441 1309 396 1215 c 256
 351 1120 328 964 328 745 c 256
NamedP: "sh03"
 328 527 351 371 396 276 c 256
 441 182 514 135 616 135 c 256
NamedP: "dv02"
EndSplineSet
PickledDataWithLists: "(dp1
S'com.schriftgestaltung.Glyphs.lastChange'
p2
S'2017-07-11 17:15:08 +0000'
p3
s."
EndChar

StartChar: Ohorn
Encoding: 92 416 92
GlifName: O_horn
Width: 1233
VWidth: 0
Flags: W
LayerCount: 2
Fore
SplineSet
1171 1557 m 257
NamedP: "at02"
 1186 1501 1191 1463 1191 1414 c 256
NamedP: "dh06"
 1191 1265 1136 1184 1017 1184 c 256
NamedP: "sv01"
 993 1184 969 1188 944 1196 c 257
NamedP: "ih01"
 985 1079 1005 928 1005 745 c 256
NamedP: "dh04"
 1005 225 841 -29 504 -29 c 256
NamedP: "dv01"
 169 -29 6 221 6 744 c 256
NamedP: "dh01"
 6 1267 169 1520 505 1520 c 256
NamedP: "at01"
 652 1520 765 1472 845 1376 c 257
 905 1337 944 1323 980 1323 c 256
NamedP: "hr01"
 1036 1323 1068 1361 1068 1433 c 256
NamedP: "dh05"
 1068 1474 1058 1516 1038 1557 c 257
NamedP: "hr02"
 1171 1557 l 257
NamedP: "at02"
727 276 m 256
 772 368 794 524 794 745 c 256
NamedP: "dh03"
 794 965 772 1122 727 1215 c 256
 682 1309 608 1356 505 1356 c 256
NamedP: "sv02"
 403 1356 330 1309 285 1215 c 256
 240 1120 217 964 217 745 c 256
NamedP: "dh02"
 217 527 240 371 285 276 c 256
 330 182 403 135 505 135 c 256
NamedP: "dv02"
 608 135 682 182 727 276 c 256
EndSplineSet
PickledDataWithLists: "(dp1
S'com.schriftgestaltung.Glyphs.lastChange'
p2
S'2017-07-11 17:15:08 +0000'
p3
s."
EndChar

StartChar: Ohungarumlaut
Encoding: 93 336 93
GlifName: O_hungarumlaut
Width: 1233
VWidth: 0
Flags: W
LayerCount: 2
Fore
SplineSet
541 1859 m 257
NamedP: "hr00"
 727 1859 l 257
NamedP: "ih01"
 498 1595 l 257
NamedP: "dv03"
 344 1595 l 257
NamedP: "ih02"
 541 1859 l 257
NamedP: "hr00"
860 1859 m 257
NamedP: "sv01"
 1046 1859 l 257
NamedP: "ih03"
 817 1595 l 257
NamedP: "sv02"
 663 1595 l 257
NamedP: "ih04"
 860 1859 l 257
NamedP: "sv01"
615 -29 m 256
NamedP: "dv01"
 280 -29 117 221 117 744 c 256
NamedP: "sh01"
 117 1267 280 1520 616 1520 c 256
NamedP: "at01"
 953 1520 1116 1266 1116 745 c 256
NamedP: "sh02"
 1116 225 952 -29 615 -29 c 256
NamedP: "dv01"
616 135 m 256
NamedP: "dv02"
 719 135 793 182 838 276 c 256
 883 368 905 524 905 745 c 256
NamedP: "ah01"
 905 965 883 1122 838 1215 c 256
 793 1309 719 1356 616 1356 c 256
NamedP: "sv03"
 514 1356 441 1309 396 1215 c 256
 351 1120 328 964 328 745 c 256
NamedP: "sh03"
 328 527 351 371 396 276 c 256
 441 182 514 135 616 135 c 256
NamedP: "dv02"
EndSplineSet
PickledDataWithLists: "(dp1
S'com.schriftgestaltung.Glyphs.lastChange'
p2
S'2017-07-11 17:15:08 +0000'
p3
s."
EndChar

StartChar: Omacron
Encoding: 94 332 94
GlifName: O_macron
Width: 1233
VWidth: 0
Flags: W
LayerCount: 2
Fore
SplineSet
317 1800 m 257
NamedP: "hr00"
 915 1800 l 257
NamedP: "sh03"
 915 1652 l 257
NamedP: "dv03"
 317 1652 l 257
 317 1800 l 257
NamedP: "hr00"
615 -29 m 256
NamedP: "dv01"
 280 -29 117 221 117 744 c 256
NamedP: "sh01"
 117 1267 280 1520 616 1520 c 256
NamedP: "at01"
 953 1520 1116 1266 1116 745 c 256
NamedP: "sh04"
 1116 225 952 -29 615 -29 c 256
NamedP: "dv01"
616 135 m 256
NamedP: "dv02"
 719 135 793 182 838 276 c 256
 883 368 905 524 905 745 c 256
NamedP: "ah01"
 905 965 883 1122 838 1215 c 256
 793 1309 719 1356 616 1356 c 256
NamedP: "sv01"
 514 1356 441 1309 396 1215 c 256
 351 1120 328 964 328 745 c 256
NamedP: "sh02"
 328 527 351 371 396 276 c 256
 441 182 514 135 616 135 c 256
NamedP: "dv02"
EndSplineSet
PickledDataWithLists: "(dp1
S'com.schriftgestaltung.Glyphs.lastChange'
p2
S'2017-07-11 17:15:08 +0000'
p3
s."
EndChar

StartChar: Omegatonos
Encoding: 95 911 95
GlifName: O_megatonos
Width: 1233
VWidth: 0
Flags: W
LayerCount: 2
Fore
SplineSet
90 1460 m 257
NamedP: "sv01"
 288 1460 l 257
NamedP: "ih01"
 -37 1084 l 257
NamedP: "sv02"
 -191 1084 l 257
NamedP: "hr01"
 90 1460 l 257
NamedP: "sv01"
119 172 m 257
NamedP: "sh01"
 364 172 l 257
 204 346 131 528 131 778 c 256
NamedP: "hr02"
 131 1200 339 1460 660 1460 c 256
NamedP: "dv02"
 983 1460 1190 1198 1190 778 c 256
NamedP: "dh03"
 1190 533 1119 349 956 172 c 257
NamedP: "ih02"
 1204 172 l 257
NamedP: "sh02"
 1204 0 l 257
NamedP: "ab01"
 741 0 l 257
 741 172 l 257
NamedP: "dh02"
 896 268 995 505 995 788 c 256
NamedP: "sh03"
 995 1112 865 1294 661 1294 c 256
NamedP: "dv01"
 456 1294 328 1112 328 789 c 256
NamedP: "dh01"
 328 519 418 273 582 172 c 257
NamedP: "sh04"
 582 0 l 257
NamedP: "ab02"
 119 0 l 257
 119 172 l 257
NamedP: "sh01"
EndSplineSet
PickledDataWithLists: "(dp1
S'com.schriftgestaltung.Glyphs.lastChange'
p2
S'2017-07-11 17:15:08 +0000'
p3
s."
EndChar

StartChar: Omicron
Encoding: 96 927 96
GlifName: O_micron
Width: 1233
VWidth: 0
Flags: W
LayerCount: 2
Fore
SplineSet
615 -29 m 256
NamedP: "hr00"
 280 -29 117 221 117 744 c 256
NamedP: "sh01"
 117 1267 280 1520 616 1520 c 256
NamedP: "at01"
 953 1520 1116 1266 1116 745 c 256
NamedP: "sh02"
 1116 225 952 -29 615 -29 c 256
NamedP: "hr00"
616 135 m 256
NamedP: "dv01"
 727 135 795 186 838 277 c 256
 880 365 905 506 905 747 c 256
NamedP: "ah01"
 905 987 879 1125 837 1215 c 256
 790 1311 721 1356 617 1356 c 256
NamedP: "sv01"
 512 1356 441 1310 396 1214 c 256
 351 1119 328 962 328 745 c 256
NamedP: "sh03"
 328 525 349 374 396 277 c 256
 440 184 509 135 616 135 c 256
NamedP: "dv01"
EndSplineSet
PickledDataWithLists: "(dp1
S'com.schriftgestaltung.Glyphs.lastChange'
p2
S'2017-07-11 17:15:08 +0000'
p3
s."
EndChar

StartChar: Omicrontonos
Encoding: 97 908 97
GlifName: O_microntonos
Width: 1233
VWidth: 0
Flags: W
LayerCount: 2
Fore
SplineSet
676 -29 m 256
NamedP: "dv01"
 339 -29 177 222 177 745 c 256
NamedP: "sh01"
 177 1266 340 1520 676 1520 c 256
NamedP: "at02"
 1013 1520 1176 1266 1176 745 c 256
NamedP: "sh02"
 1176 225 1013 -29 676 -29 c 256
NamedP: "dv01"
103 1493 m 257
NamedP: "at01"
 301 1493 l 257
NamedP: "ih01"
 -24 1117 l 257
NamedP: "sv02"
 -178 1117 l 257
 103 1493 l 257
NamedP: "at01"
676 135 m 256
NamedP: "dv02"
 779 135 853 182 898 276 c 256
NamedP: "hr01"
 943 368 965 524 965 745 c 256
NamedP: "ah01"
 965 965 943 1122 898 1215 c 256
NamedP: "hr02"
 853 1309 779 1356 676 1356 c 256
NamedP: "sv01"
 574 1356 501 1309 456 1215 c 256
 411 1120 388 964 388 745 c 256
NamedP: "sh03"
 388 527 411 371 456 276 c 256
 501 182 574 135 676 135 c 256
NamedP: "dv02"
EndSplineSet
PickledDataWithLists: "(dp1
S'com.schriftgestaltung.Glyphs.lastChange'
p2
S'2017-07-11 17:15:08 +0000'
p3
s."
EndChar

StartChar: Oslash
Encoding: 98 216 98
GlifName: O_slash
Width: 1233
VWidth: 0
Flags: W
LayerCount: 2
Fore
SplineSet
8 0 m 257
NamedP: "hr00"
 186 252 l 257
 163 304 149 364 136 456 c 256
 124 540 117 628 117 740 c 256
NamedP: "sh01"
 117 1011 157 1199 241 1328 c 256
 326 1460 450 1520 615 1520 c 256
NamedP: "at02"
 695 1520 759 1506 818 1479 c 256
 875 1452 922 1412 961 1358 c 257
NamedP: "ih01"
 1100 1559 l 257
NamedP: "at01"
 1200 1485 l 257
 1032 1247 l 257
 1060 1192 1080 1118 1095 1037 c 256
 1108 960 1116 859 1116 744 c 256
NamedP: "sh02"
 1116 485 1075 291 993 163 c 256
 913 38 791 -29 612 -29 c 256
NamedP: "dv01"
 536 -29 469 -17 405 12 c 256
 345 39 295 79 254 133 c 257
NamedP: "ih02"
 111 -70 l 257
NamedP: "sh04"
 8 0 l 257
NamedP: "hr00"
842 1190 m 257
 825 1246 795 1287 760 1314 c 256
 721 1343 671 1356 615 1356 c 256
NamedP: "sv01"
 503 1356 437 1304 394 1208 c 256
 349 1107 328 951 328 686 c 256
NamedP: "sh03"
 328 628 328 598 331 556 c 256
NamedP: "sh05"
 332 537 331 518 338 471 c 257
NamedP: "sh06"
 842 1190 l 257
617 135 m 256
NamedP: "dv02"
 726 135 795 186 838 277 c 256
 881 365 905 506 905 748 c 256
NamedP: "ah01"
 905 817 903 878 900 923 c 256
NamedP: "sh07"
 897 967 893 1001 885 1036 c 257
NamedP: "ih03"
 371 303 l 257
 391 251 423 210 467 180 c 256
 512 149 561 135 617 135 c 256
NamedP: "dv02"
EndSplineSet
PickledDataWithLists: "(dp1
S'com.schriftgestaltung.Glyphs.lastChange'
p2
S'2017-07-11 17:15:08 +0000'
p3
s."
EndChar

StartChar: Oslashacute
Encoding: 99 510 99
GlifName: O_slashacute
Width: 1233
VWidth: 0
Flags: W
LayerCount: 2
Fore
SplineSet
691 1856 m 257
NamedP: "sv02"
 877 1856 l 257
NamedP: "ih01"
 648 1592 l 257
 494 1592 l 257
NamedP: "ih02"
 691 1856 l 257
NamedP: "sv02"
8 0 m 257
 186 252 l 257
 143 348 117 536 117 744 c 256
NamedP: "sh01"
 117 1265 279 1520 614 1520 c 256
NamedP: "at01"
 769 1520 884 1466 961 1358 c 257
NamedP: "ih03"
 1100 1559 l 257
 1200 1485 l 257
 1032 1247 l 257
 1088 1139 1116 964 1116 744 c 256
NamedP: "sh03"
 1116 224 953 -29 613 -29 c 256
NamedP: "dv01"
 454 -29 335 25 254 133 c 257
NamedP: "ih04"
 111 -70 l 257
NamedP: "sh02"
 8 0 l 257
842 1190 m 257
 810 1294 736 1356 615 1356 c 256
NamedP: "sv01"
 502 1356 438 1303 395 1210 c 256
 346 1101 328 930 328 682 c 256
NamedP: "sh04"
 328 581 331 516 338 471 c 257
NamedP: "sh05"
 842 1190 l 257
619 135 m 256
NamedP: "dv02"
 720 135 793 182 838 277 c 256
 881 366 905 502 905 755 c 256
NamedP: "ah01"
 905 888 898 976 885 1036 c 257
NamedP: "ih05"
 371 303 l 257
NamedP: "hr01"
 414 195 503 135 619 135 c 256
NamedP: "dv02"
EndSplineSet
PickledDataWithLists: "(dp1
S'com.schriftgestaltung.Glyphs.lastChange'
p2
S'2017-07-11 17:15:08 +0000'
p3
s."
EndChar

StartChar: Otilde
Encoding: 100 213 100
GlifName: O_tilde
Width: 1233
VWidth: 0
Flags: W
LayerCount: 2
Fore
SplineSet
287 1633 m 257
NamedP: "hr00"
 287 1697 302 1750 339 1793 c 256
NamedP: "sh03"
 373 1832 419 1852 476 1852 c 256
NamedP: "dv04"
 497 1852 519 1849 542 1844 c 256
 562 1839 586 1828 621 1809 c 258
 678 1779 l 257
 692 1770 705 1764 718 1760 c 256
 729 1756 739 1754 750 1754 c 256
 791 1754 821 1793 821 1846 c 258
 821 1852 l 257
NamedP: "sv01"
 946 1852 l 257
 945 1786 928 1733 893 1693 c 256
NamedP: "sh04"
 859 1653 814 1633 757 1633 c 256
NamedP: "sv02"
 736 1633 715 1636 694 1641 c 256
 675 1646 653 1655 612 1676 c 257
 555 1709 l 258
 540 1718 526 1724 514 1729 c 256
 503 1733 492 1734 485 1734 c 256
 465 1734 445 1726 432 1709 c 256
 419 1692 412 1668 412 1639 c 258
 412 1633 l 257
NamedP: "dv03"
 287 1633 l 257
NamedP: "hr00"
616 -29 m 256
NamedP: "dv01"
 447 -29 322 35 240 162 c 256
 158 289 117 483 117 745 c 256
NamedP: "sh01"
 117 1006 158 1201 241 1328 c 256
 324 1456 445 1520 616 1520 c 256
NamedP: "at01"
 780 1520 908 1461 993 1328 c 256
 1075 1200 1116 1006 1116 745 c 256
NamedP: "sh05"
 1116 485 1075 291 993 163 c 256
 908 30 780 -29 616 -29 c 256
NamedP: "dv01"
616 135 m 256
NamedP: "dv02"
 719 135 793 182 838 276 c 256
 883 368 905 524 905 745 c 256
NamedP: "ah01"
 905 965 883 1122 838 1215 c 256
 793 1309 719 1356 616 1356 c 256
NamedP: "sv03"
 514 1356 441 1309 396 1215 c 256
 351 1120 328 964 328 745 c 256
NamedP: "sh02"
 328 527 351 371 396 276 c 256
 441 182 514 135 616 135 c 256
NamedP: "dv02"
EndSplineSet
PickledDataWithLists: "(dp1
S'com.schriftgestaltung.Glyphs.lastChange'
p2
S'2017-07-11 17:15:08 +0000'
p3
s."
EndChar

StartChar: P
Encoding: 101 80 101
GlifName: P_
Width: 1233
VWidth: 0
Flags: W
LayerCount: 2
Fore
SplineSet
172 1493 m 257
NamedP: "hr00"
 608 1493 l 258
 774 1493 900 1455 987 1380 c 256
 1076 1301 1116 1187 1116 1046 c 256
NamedP: "sh01"
 1116 899 1073 788 988 713 c 256
 904 638 777 600 608 600 c 258
NamedP: "dv01"
 374 600 l 257
NamedP: "sh03"
 374 0 l 257
NamedP: "ab01"
 172 0 l 257
 172 1493 l 257
NamedP: "hr00"
608 766 m 258
NamedP: "dv02"
 708 766 779 795 827 840 c 256
 879 889 905 958 905 1047 c 256
NamedP: "ah01"
 905 1136 879 1205 827 1254 c 256
 776 1303 703 1327 608 1327 c 258
NamedP: "sv01"
 374 1327 l 257
NamedP: "sh02"
 374 766 l 257
 608 766 l 258
NamedP: "dv02"
EndSplineSet
PickledDataWithLists: "(dp1
S'com.schriftgestaltung.Glyphs.lastChange'
p2
S'2017-07-11 17:15:08 +0000'
p3
s."
EndChar

StartChar: Phi
Encoding: 102 934 102
GlifName: P_hi
Width: 1233
VWidth: 0
Flags: W
LayerCount: 2
Fore
SplineSet
368 170 m 257
NamedP: "dh03"
 515 170 l 257
NamedP: "ih01"
 515 286 l 257
 279 310 118 433 118 745 c 256
NamedP: "dh01"
 118 1057 280 1181 515 1205 c 257
NamedP: "sh01"
 515 1323 l 257
NamedP: "sv01"
 368 1323 l 257
NamedP: "sh02"
 368 1493 l 257
NamedP: "at01"
 865 1493 l 257
NamedP: "sh03"
 865 1323 l 257
NamedP: "sv02"
 718 1323 l 257
NamedP: "hr01"
 718 1205 l 257
 953 1181 1115 1057 1115 745 c 256
NamedP: "dh06"
 1115 433 954 310 718 286 c 257
NamedP: "hr02"
 718 170 l 257
NamedP: "sh04"
 865 170 l 257
NamedP: "dh04"
 865 0 l 257
NamedP: "ab01"
 368 0 l 257
 368 170 l 257
NamedP: "dh03"
515 1029 m 257
NamedP: "hr03"
 464 1018 424 998 397 971 c 256
 352 926 329 850 329 745 c 256
NamedP: "dh02"
 329 640 352 565 397 520 c 256
 424 492 464 473 515 462 c 257
NamedP: "hr04"
 515 1029 l 257
NamedP: "hr03"
718 462 m 257
NamedP: "sh05"
 774 474 814 497 837 520 c 256
 882 565 904 640 904 745 c 256
NamedP: "dh05"
 904 851 882 926 837 971 c 256
 810 998 770 1018 718 1029 c 257
NamedP: "hr05"
 718 462 l 257
NamedP: "sh05"
EndSplineSet
PickledDataWithLists: "(dp1
S'com.schriftgestaltung.Glyphs.lastChange'
p2
S'2017-07-11 17:15:08 +0000'
p3
s."
EndChar

StartChar: Pi
Encoding: 103 928 103
GlifName: P_i
Width: 1233
VWidth: 0
Flags: W
LayerCount: 2
Fore
SplineSet
137 1493 m 257
NamedP: "hr00"
 1096 1493 l 257
 1096 0 l 257
NamedP: "sh01"
 893 0 l 257
NamedP: "ah01"
 893 1323 l 257
NamedP: "sv01"
 340 1323 l 257
NamedP: "sh02"
 340 0 l 257
NamedP: "ab01"
 137 0 l 257
 137 1493 l 257
NamedP: "hr00"
EndSplineSet
PickledDataWithLists: "(dp1
S'com.schriftgestaltung.Glyphs.lastChange'
p2
S'2017-07-11 17:15:08 +0000'
p3
s."
EndChar

StartChar: Psi
Encoding: 104 936 104
GlifName: P_si
Width: 1233
VWidth: 0
Flags: W
LayerCount: 2
Fore
SplineSet
367 170 m 257
NamedP: "dh03"
 514 170 l 257
NamedP: "ih01"
 514 384 l 257
 396 405 305 466 240 567 c 256
NamedP: "hr01"
 158 694 117 888 117 1150 c 258
NamedP: "dh01"
 117 1493 l 257
NamedP: "at01"
 320 1493 l 257
 320 1150 l 258
NamedP: "dh02"
 320 919 348 774 396 681 c 256
 426 623 465 583 514 560 c 257
NamedP: "sh01"
 514 1493 l 257
NamedP: "at02"
 717 1493 l 257
NamedP: "sh03"
 717 560 l 257
NamedP: "ih02"
 766 582 805 622 836 681 c 256
 886 778 911 934 911 1150 c 258
NamedP: "dh05"
 911 1493 l 257
NamedP: "at03"
 1114 1493 l 257
 1114 1150 l 258
NamedP: "dh06"
 1114 888 1073 694 991 567 c 256
 926 466 835 405 717 384 c 257
 717 170 l 257
NamedP: "sh02"
 864 170 l 257
NamedP: "dh04"
 864 0 l 257
NamedP: "ab01"
 367 0 l 257
NamedP: "hr02"
 367 170 l 257
NamedP: "dh03"
EndSplineSet
PickledDataWithLists: "(dp1
S'com.schriftgestaltung.Glyphs.lastChange'
p2
S'2017-07-11 17:15:08 +0000'
p3
s."
EndChar

StartChar: Q
Encoding: 105 81 105
GlifName: Q_
Width: 1233
VWidth: 0
Flags: W
LayerCount: 2
Fore
SplineSet
655 -27 m 257
NamedP: "ab01"
 648 -27 621 -29 617 -29 c 257
NamedP: "ab03"
 285 -37 113 235 117 745 c 257
NamedP: "sh01"
 117 1006 158 1201 241 1328 c 256
 324 1456 445 1520 616 1520 c 256
NamedP: "at01"
 780 1520 908 1461 993 1328 c 256
 1075 1200 1116 1006 1116 745 c 256
NamedP: "sh02"
 1116 550 1093 392 1048 272 c 256
 1004 155 935 68 840 20 c 257
NamedP: "iv01"
 1125 -270 l 257
NamedP: "sh03"
 889 -270 l 257
 655 -27 l 257
NamedP: "ab01"
616 135 m 256
NamedP: "sv01"
 719 135 793 182 838 276 c 256
 883 368 905 524 905 745 c 256
NamedP: "ah01"
 905 965 883 1122 838 1215 c 256
 793 1309 719 1356 616 1356 c 256
NamedP: "sv02"
 514 1356 441 1309 396 1215 c 256
 351 1120 328 964 328 745 c 256
NamedP: "sh04"
 328 527 351 371 396 276 c 256
 441 182 514 135 616 135 c 256
NamedP: "sv01"
EndSplineSet
PickledDataWithLists: "(dp1
S'com.schriftgestaltung.Glyphs.lastChange'
p2
S'2017-07-11 17:15:08 +0000'
p3
s."
EndChar

StartChar: R
Encoding: 106 82 106
GlifName: R_
Width: 1233
VWidth: 0
Flags: W
LayerCount: 2
Fore
SplineSet
143 1493 m 257
NamedP: "hr00"
 559 1493 l 258
 723 1493 849 1456 936 1382 c 256
 1024 1307 1067 1200 1067 1065 c 256
NamedP: "sh01"
 1067 960 1040 883 987 820 c 256
 934 757 858 719 760 705 c 257
NamedP: "ih01"
 813 692 860 665 893 630 c 256
 930 591 971 525 1030 408 c 258
 1233 0 l 257
NamedP: "ab01"
 1016 0 l 257
 838 377 l 258
 786 488 740 554 700 585 c 256
 659 617 602 631 539 631 c 258
NamedP: "dv01"
 346 631 l 257
NamedP: "sh03"
 346 0 l 257
NamedP: "ab02"
 143 0 l 257
 143 1493 l 257
NamedP: "hr00"
567 797 m 258
NamedP: "dv02"
 664 797 736 819 783 862 c 256
 830 905 854 972 854 1059 c 256
NamedP: "ah01"
 854 1146 830 1212 779 1259 c 256
 731 1302 659 1327 559 1327 c 258
NamedP: "sv01"
 346 1327 l 257
NamedP: "sh02"
 346 797 l 257
 567 797 l 258
NamedP: "dv02"
EndSplineSet
PickledDataWithLists: "(dp1
S'com.schriftgestaltung.Glyphs.lastChange'
p2
S'2017-07-11 17:15:08 +0000'
p3
s."
EndChar

StartChar: Racute
Encoding: 107 340 107
GlifName: R_acute
Width: 1233
VWidth: 0
Flags: W
LayerCount: 2
Fore
SplineSet
631 1856 m 257
NamedP: "hr00"
 817 1856 l 257
NamedP: "ih01"
 588 1592 l 257
 434 1592 l 257
NamedP: "ih02"
 631 1856 l 257
NamedP: "hr00"
143 1493 m 257
NamedP: "sh01"
 559 1493 l 258
 886 1493 1067 1337 1067 1069 c 256
NamedP: "sh02"
 1067 856 953 734 760 705 c 257
NamedP: "ih03"
 869 675 920 626 1030 408 c 257
 1233 0 l 257
NamedP: "ab01"
 1016 0 l 257
 838 377 l 258
 734 596 667 631 539 631 c 258
NamedP: "dv01"
 346 631 l 257
NamedP: "sh04"
 346 0 l 257
NamedP: "ab02"
 143 0 l 257
 143 1493 l 257
NamedP: "sh01"
567 797 m 258
NamedP: "dv02"
 758 797 854 883 854 1056 c 256
NamedP: "ah01"
 854 1237 751 1327 559 1327 c 258
NamedP: "sv01"
 346 1327 l 257
NamedP: "sh03"
 346 797 l 257
 567 797 l 258
NamedP: "dv02"
EndSplineSet
PickledDataWithLists: "(dp1
S'com.schriftgestaltung.Glyphs.lastChange'
p2
S'2017-07-11 17:15:08 +0000'
p3
s."
EndChar

StartChar: Rcaron
Encoding: 108 344 108
GlifName: R_caron
Width: 1233
VWidth: 0
Flags: W
LayerCount: 2
Fore
SplineSet
257 1852 m 257
NamedP: "hr00"
 397 1852 l 257
 562 1674 l 257
 728 1852 l 257
NamedP: "av01"
 868 1852 l 257
NamedP: "sh03"
 657 1586 l 257
 468 1586 l 257
 257 1852 l 257
NamedP: "hr00"
143 1493 m 257
NamedP: "sh01"
 559 1493 l 258
 886 1493 1067 1337 1067 1069 c 256
NamedP: "sh04"
 1067 856 953 734 760 705 c 257
NamedP: "ih01"
 869 675 920 626 1030 408 c 257
 1233 0 l 257
NamedP: "ab01"
 1016 0 l 257
 838 377 l 258
 734 596 667 631 539 631 c 258
NamedP: "dv01"
 346 631 l 257
NamedP: "sh05"
 346 0 l 257
NamedP: "ab02"
 143 0 l 257
 143 1493 l 257
NamedP: "sh01"
567 797 m 258
NamedP: "dv02"
 758 797 854 883 854 1056 c 256
NamedP: "ah01"
 854 1237 751 1327 559 1327 c 258
NamedP: "sv01"
 346 1327 l 257
NamedP: "sh02"
 346 797 l 257
 567 797 l 258
NamedP: "dv02"
EndSplineSet
PickledDataWithLists: "(dp1
S'com.schriftgestaltung.Glyphs.lastChange'
p2
S'2017-07-11 17:15:08 +0000'
p3
s."
EndChar

StartChar: Rho
Encoding: 109 929 109
GlifName: R_ho
Width: 1233
VWidth: 0
Flags: W
LayerCount: 2
Fore
SplineSet
172 1493 m 257
NamedP: "hr00"
 608 1493 l 258
 943 1493 1116 1342 1116 1046 c 256
NamedP: "sh01"
 1116 751 945 600 608 600 c 258
NamedP: "dv01"
 374 600 l 257
NamedP: "sh03"
 374 0 l 257
NamedP: "ab01"
 172 0 l 257
 172 1493 l 257
NamedP: "hr00"
608 766 m 258
NamedP: "dv02"
 796 766 905 868 905 1047 c 256
NamedP: "ah01"
 905 1226 797 1327 608 1327 c 258
NamedP: "sv01"
 374 1327 l 257
NamedP: "sh02"
 374 766 l 257
 608 766 l 258
NamedP: "dv02"
EndSplineSet
PickledDataWithLists: "(dp1
S'com.schriftgestaltung.Glyphs.lastChange'
p2
S'2017-07-11 17:15:08 +0000'
p3
s."
EndChar

StartChar: S
Encoding: 110 83 110
GlifName: S_
Width: 1233
VWidth: 0
Flags: W
LayerCount: 2
Fore
SplineSet
584 -29 m 256
NamedP: "hr00"
 441 -29 301 2 158 61 c 257
 158 276 l 257
NamedP: "ih01"
 235 227 307 192 376 169 c 256
 444 146 512 135 581 135 c 256
NamedP: "dv01"
 681 135 763 158 820 203 c 256
 879 250 905 315 905 400 c 256
NamedP: "ah01"
 905 475 886 526 847 565 c 256
 804 609 743 634 643 657 c 258
 535 682 l 258
 400 713 300 756 233 824 c 256
 170 887 139 972 139 1079 c 256
NamedP: "sh01"
 139 1215 187 1324 274 1401 c 256
 359 1477 479 1520 631 1520 c 256
NamedP: "at01"
 688 1520 748 1514 812 1501 c 256
 874 1488 941 1469 1012 1442 c 257
 1012 1237 l 257
NamedP: "ih02"
 948 1278 888 1306 828 1326 c 256
 766 1346 704 1356 642 1356 c 256
NamedP: "sv01"
 451 1356 332 1261 332 1105 c 256
NamedP: "sh02"
 332 1037 352 993 387 960 c 256
 428 921 490 895 590 872 c 258
 696 848 l 258
 837 816 936 765 1001 694 c 256
 1066 625 1098 530 1098 410 c 256
NamedP: "sh03"
 1098 258 1048 152 967 83 c 256
 879 8 749 -29 584 -29 c 256
NamedP: "hr00"
EndSplineSet
PickledDataWithLists: "(dp1
S'com.schriftgestaltung.Glyphs.lastChange'
p2
S'2017-07-11 17:15:08 +0000'
p3
s."
EndChar

StartChar: Sacute
Encoding: 111 346 111
GlifName: S_acute
Width: 1233
VWidth: 0
Flags: W
LayerCount: 2
Fore
SplineSet
701 1856 m 257
NamedP: "sv02"
 887 1856 l 257
NamedP: "ih01"
 658 1592 l 257
 504 1592 l 257
NamedP: "ih02"
 701 1856 l 257
NamedP: "sv02"
586 -29 m 256
NamedP: "dv01"
 439 -29 302 1 158 61 c 257
 158 276 l 257
NamedP: "ih03"
 311 179 442 135 583 135 c 256
NamedP: "dv02"
 787 135 905 225 905 405 c 256
NamedP: "ah01"
 905 539 839 611 643 657 c 258
 535 682 l 258
 255 746 139 869 139 1077 c 256
NamedP: "sh01"
 139 1346 334 1520 631 1520 c 256
NamedP: "at01"
 745 1520 872 1494 1012 1442 c 257
 1012 1237 l 257
NamedP: "ih04"
 889 1316 765 1356 640 1356 c 256
NamedP: "sv01"
 451 1356 332 1265 332 1101 c 256
NamedP: "sh02"
 332 982 395 915 590 872 c 258
 696 848 l 258
 979 784 1098 644 1098 411 c 256
NamedP: "hr01"
 1098 124 917 -29 586 -29 c 256
NamedP: "dv01"
EndSplineSet
PickledDataWithLists: "(dp1
S'com.schriftgestaltung.Glyphs.lastChange'
p2
S'2017-07-11 17:15:08 +0000'
p3
s."
EndChar

StartChar: Scaron
Encoding: 112 352 112
GlifName: S_caron
Width: 1233
VWidth: 0
Flags: W
LayerCount: 2
Fore
SplineSet
327 1852 m 257
NamedP: "sh03"
 467 1852 l 257
 632 1674 l 257
 798 1852 l 257
NamedP: "sv02"
 938 1852 l 257
NamedP: "ih01"
 727 1586 l 257
 538 1586 l 257
 327 1852 l 257
NamedP: "sh03"
584 -29 m 256
NamedP: "dv01"
 508 -29 435 -22 371 -7 c 257
 300 8 226 33 158 61 c 257
 158 276 l 257
NamedP: "ih02"
 235 227 307 192 376 169 c 256
 448 145 515 135 582 135 c 256
NamedP: "dv02"
 682 135 763 158 820 203 c 256
 873 246 905 307 905 399 c 256
NamedP: "ah01"
 905 475 883 529 847 566 c 256
 806 609 736 636 643 657 c 258
 535 682 l 258
 400 713 300 756 233 824 c 256
 172 887 139 967 139 1079 c 256
NamedP: "sh01"
 139 1351 333 1520 631 1520 c 256
NamedP: "at01"
 688 1520 748 1514 812 1501 c 256
 874 1488 941 1469 1012 1442 c 257
 1012 1237 l 257
NamedP: "ih03"
 945 1280 884 1307 828 1326 c 256
 766 1346 704 1356 642 1356 c 256
NamedP: "sv01"
 542 1356 465 1331 414 1290 c 256
 361 1247 332 1185 332 1105 c 256
NamedP: "sh02"
 332 1050 344 1000 387 960 c 256
 426 923 489 895 590 872 c 258
 696 848 l 258
NamedP: "hr01"
 825 819 930 770 1001 694 c 256
 1066 625 1098 530 1098 410 c 256
NamedP: "sh04"
 1098 258 1048 152 967 83 c 256
 879 7 747 -29 584 -29 c 256
NamedP: "dv01"
EndSplineSet
PickledDataWithLists: "(dp1
S'com.schriftgestaltung.Glyphs.lastChange'
p2
S'2017-07-11 17:15:08 +0000'
p3
s."
EndChar

StartChar: Scedilla
Encoding: 113 350 113
GlifName: S_cedilla
Width: 1233
VWidth: 0
Flags: W
LayerCount: 2
Fore
SplineSet
1001 694 m 256
NamedP: "hr00"
 1066 625 1098 530 1098 410 c 256
NamedP: "dh06"
 1098 258 1048 152 967 83 c 256
 904 30 820 -4 717 -20 c 257
NamedP: "ih01"
 746 -55 770 -88 783 -115 c 256
 798 -146 809 -179 809 -219 c 256
NamedP: "dh04"
 809 -272 789 -319 749 -350 c 256
 710 -379 653 -395 570 -395 c 256
NamedP: "dv01"
 541 -395 512 -393 483 -389 c 256
NamedP: "sv01"
 452 -385 423 -379 395 -371 c 257
 395 -240 l 257
NamedP: "dh03"
 440 -261 494 -272 546 -272 c 256
NamedP: "dv02"
 631 -272 670 -239 670 -180 c 256
 670 -159 663 -134 648 -105 c 256
 637 -82 621 -58 602 -29 c 257
NamedP: "av01"
 584 -29 l 258
 508 -29 435 -22 371 -7 c 257
 300 8 226 33 158 61 c 257
 158 276 l 257
NamedP: "ih02"
 235 227 307 192 376 169 c 256
 448 145 515 135 582 135 c 256
 682 135 763 158 820 203 c 256
 873 246 905 307 905 399 c 256
NamedP: "dh05"
 905 475 883 529 847 566 c 256
 806 609 736 636 643 657 c 258
 535 682 l 258
 400 713 300 756 233 824 c 256
 172 887 139 967 139 1079 c 256
NamedP: "dh01"
 139 1351 333 1520 631 1520 c 256
NamedP: "at01"
 688 1520 748 1514 812 1501 c 256
 874 1488 941 1469 1012 1442 c 257
 1012 1237 l 257
NamedP: "ih03"
 945 1280 884 1307 828 1326 c 256
 766 1346 704 1356 642 1356 c 256
NamedP: "sv02"
 542 1356 465 1331 414 1290 c 256
 361 1247 332 1185 332 1105 c 256
NamedP: "dh02"
 332 1050 344 1000 387 960 c 256
 426 923 489 895 590 872 c 258
 696 848 l 258
 825 819 930 770 1001 694 c 256
NamedP: "hr00"
EndSplineSet
PickledDataWithLists: "(dp1
S'com.schriftgestaltung.Glyphs.lastChange'
p2
S'2017-07-11 17:15:08 +0000'
p3
s."
Substitution2: "'locl' Localized Forms in Latin lookup 1 subtable" uni0218
Substitution2: "'locl' Localized Forms in Latin lookup 0 subtable" uni0218
EndChar

StartChar: Scircumflex
Encoding: 114 348 114
GlifName: S_circumflex
Width: 1233
VWidth: 0
Flags: W
LayerCount: 2
Fore
SplineSet
540 1852 m 257
NamedP: "hr00"
 729 1852 l 257
 940 1586 l 257
 800 1586 l 257
 634 1764 l 257
 469 1586 l 257
 329 1586 l 257
 540 1852 l 257
NamedP: "hr00"
158 61 m 257
 158 276 l 257
 310 180 442 135 581 135 c 256
 786 135 905 229 905 400 c 256
 905 475 887 525 847 565 c 257
 807 608 748 633 643 657 c 258
 535 682 l 258
 392 714 297 759 233 824 c 256
 170 887 139 972 139 1079 c 256
 139 1349 336 1520 631 1520 c 256
 750 1520 877 1494 1012 1442 c 257
 1012 1237 l 257
 889 1316 765 1356 642 1356 c 256
 547 1356 469 1334 414 1290 c 256
 359 1246 332 1184 332 1105 c 256
 332 1041 350 996 387 960 c 256
 427 921 487 895 590 872 c 258
 696 848 l 258
 973 785 1098 650 1098 410 c 256
 1098 123 920 -29 584 -29 c 256
NamedP: "hr01"
 437 -29 310 -2 158 61 c 257
EndSplineSet
PickledDataWithLists: "(dp1
S'com.schriftgestaltung.Glyphs.lastChange'
p2
S'2017-07-11 17:15:08 +0000'
p3
s."
EndChar

StartChar: Sigma
Encoding: 115 931 115
GlifName: S_igma
Width: 1233
VWidth: 0
Flags: W
LayerCount: 2
Fore
SplineSet
120 170 m 257
NamedP: "hr00"
 574 747 l 257
 120 1323 l 257
 120 1493 l 257
NamedP: "at01"
 1133 1493 l 257
 1133 1323 l 257
NamedP: "sv01"
 331 1323 l 257
 786 747 l 257
 331 170 l 257
NamedP: "sv02"
 1133 170 l 257
 1133 0 l 257
NamedP: "ab01"
 120 0 l 257
 120 170 l 257
NamedP: "hr00"
EndSplineSet
PickledDataWithLists: "(dp1
S'com.schriftgestaltung.Glyphs.lastChange'
p2
S'2017-07-11 17:15:08 +0000'
p3
s."
EndChar

StartChar: T
Encoding: 116 84 116
GlifName: T_
Width: 1233
VWidth: 0
Flags: W
LayerCount: 2
Fore
SplineSet
516 1323 m 257
NamedP: "hr00"
 47 1323 l 257
 47 1493 l 257
NamedP: "at01"
 1186 1493 l 257
 1186 1323 l 257
NamedP: "sv01"
 719 1323 l 257
NamedP: "dh01"
 719 0 l 257
NamedP: "ab01"
 516 0 l 257
 516 1323 l 257
NamedP: "hr00"
EndSplineSet
PickledDataWithLists: "(dp1
S'com.schriftgestaltung.Glyphs.lastChange'
p2
S'2017-07-11 17:15:08 +0000'
p3
s."
EndChar

StartChar: Tau
Encoding: 117 932 117
GlifName: T_au
Width: 1233
VWidth: 0
Flags: W
LayerCount: 2
Fore
SplineSet
516 1323 m 257
NamedP: "hr00"
 47 1323 l 257
 47 1493 l 257
NamedP: "at01"
 1186 1493 l 257
 1186 1323 l 257
NamedP: "sv01"
 719 1323 l 257
NamedP: "dh01"
 719 0 l 257
NamedP: "ab01"
 516 0 l 257
 516 1323 l 257
NamedP: "hr00"
EndSplineSet
PickledDataWithLists: "(dp1
S'com.schriftgestaltung.Glyphs.lastChange'
p2
S'2017-07-11 17:15:08 +0000'
p3
s."
EndChar

StartChar: Tbar
Encoding: 118 358 118
GlifName: T_bar
Width: 1233
VWidth: 0
Flags: W
LayerCount: 2
Fore
SplineSet
516 577 m 257
NamedP: "hr00"
 251 577 l 257
 251 747 l 257
 516 747 l 257
NamedP: "sh01"
 516 1323 l 257
NamedP: "sv01"
 47 1323 l 257
 47 1493 l 257
NamedP: "at01"
 1186 1493 l 257
 1186 1323 l 257
NamedP: "sv02"
 719 1323 l 257
NamedP: "sh02"
 719 747 l 257
NamedP: "sv03"
 984 747 l 257
 984 577 l 257
NamedP: "sv04"
 719 577 l 257
NamedP: "dh01"
 719 0 l 257
NamedP: "ab01"
 516 0 l 257
 516 577 l 257
NamedP: "hr00"
EndSplineSet
PickledDataWithLists: "(dp1
S'com.schriftgestaltung.Glyphs.lastChange'
p2
S'2017-07-11 17:15:08 +0000'
p3
s."
EndChar

StartChar: Tcaron
Encoding: 119 356 119
GlifName: T_caron
Width: 1233
VWidth: 0
Flags: W
LayerCount: 2
Fore
SplineSet
317 1852 m 257
NamedP: "hr00"
 457 1852 l 257
 622 1674 l 257
 788 1852 l 257
NamedP: "av01"
 928 1852 l 257
 717 1586 l 257
 528 1586 l 257
 317 1852 l 257
NamedP: "hr00"
516 1323 m 257
NamedP: "dh01"
 47 1323 l 257
 47 1493 l 257
NamedP: "at01"
 1186 1493 l 257
 1186 1323 l 257
NamedP: "sv01"
 719 1323 l 257
NamedP: "dh02"
 719 0 l 257
NamedP: "ab01"
 516 0 l 257
 516 1323 l 257
NamedP: "dh01"
EndSplineSet
PickledDataWithLists: "(dp1
S'com.schriftgestaltung.Glyphs.lastChange'
p2
S'2017-07-11 17:15:08 +0000'
p3
s."
EndChar

StartChar: Theta
Encoding: 120 920 120
GlifName: T_heta
Width: 1233
VWidth: 0
Flags: W
LayerCount: 2
Fore
SplineSet
40 676 m 257
NamedP: "hr00"
 35 1065 295 1401 627 1393 c 257
 958 1400 1198 1067 1193 684 c 257
 1199 275 924 -36 609 -29 c 257
 284 -36 35 293 40 676 c 257
NamedP: "hr00"
990 685 m 256
 990 960 880 1208 619 1208 c 256
 357 1208 243 957 243 679 c 256
 243 395 365 156 616 156 c 256
 868 156 990 396 990 685 c 256
383 764 m 257
 850 764 l 257
 850 594 l 257
 383 594 l 257
 383 764 l 257
EndSplineSet
PickledDataWithLists: "(dp1
S'com.schriftgestaltung.Glyphs.lastChange'
p2
S'2017-07-11 17:15:08 +0000'
p3
s."
EndChar

StartChar: Thorn
Encoding: 121 222 121
GlifName: T_horn
Width: 1233
VWidth: 0
Flags: W
LayerCount: 2
Fore
SplineSet
201 1493 m 257
NamedP: "hr00"
 403 1493 l 257
NamedP: "sh01"
 403 1223 l 257
 657 1223 l 258
NamedP: "dv04"
 830 1223 958 1188 1041 1118 c 256
 1124 1048 1165 940 1165 794 c 256
NamedP: "sh02"
 1165 645 1122 540 1041 472 c 256
 958 402 830 367 657 367 c 258
NamedP: "dv01"
 403 367 l 257
NamedP: "sh03"
 403 0 l 257
NamedP: "ab01"
 201 0 l 257
 201 1493 l 257
NamedP: "hr00"
637 532 m 258
NamedP: "dv02"
 742 532 821 554 874 598 c 256
 926 642 952 708 952 795 c 256
NamedP: "ah01"
 952 879 927 948 874 992 c 256
 826 1032 748 1057 637 1057 c 258
NamedP: "dv03"
 403 1057 l 257
NamedP: "sh04"
 403 532 l 257
 637 532 l 258
NamedP: "dv02"
EndSplineSet
PickledDataWithLists: "(dp1
S'com.schriftgestaltung.Glyphs.lastChange'
p2
S'2017-07-11 17:15:08 +0000'
p3
s."
EndChar

StartChar: U
Encoding: 122 85 122
GlifName: U_
Width: 1233
VWidth: 0
Flags: W
LayerCount: 2
Fore
SplineSet
616 -29 m 256
NamedP: "hr00"
 544 -29 483 -19 427 0 c 257
 375 19 316 49 273 88 c 256
 232 125 200 173 177 249 c 257
 156 316 147 409 147 573 c 258
NamedP: "sh01"
 147 1493 l 257
NamedP: "at01"
 350 1493 l 257
 350 481 l 258
NamedP: "sh02"
 350 408 352 357 356 326 c 256
NamedP: "sh03"
 360 295 367 271 377 254 c 256
 398 215 429 185 470 165 c 256
 510 145 559 135 616 135 c 256
NamedP: "dv01"
 674 135 723 145 763 165 c 256
 804 186 835 215 856 254 c 256
 867 274 873 293 877 325 c 256
NamedP: "sh04"
 881 356 883 407 883 479 c 258
NamedP: "ah01"
 883 1493 l 257
NamedP: "at02"
 1085 1493 l 257
 1085 573 l 258
NamedP: "sh05"
 1085 397 1073 309 1057 249 c 256
 1038 182 1004 129 959 88 c 256
 915 48 858 19 806 0 c 256
 757 -17 695 -29 616 -29 c 256
NamedP: "hr00"
EndSplineSet
PickledDataWithLists: "(dp1
S'com.schriftgestaltung.Glyphs.lastChange'
p2
S'2017-07-11 17:15:08 +0000'
p3
s."
EndChar

StartChar: Uacute
Encoding: 123 218 123
GlifName: U_acute
Width: 1233
VWidth: 0
Flags: W
LayerCount: 2
Fore
SplineSet
672 1856 m 257
NamedP: "hr00"
 858 1856 l 257
NamedP: "ih01"
 629 1592 l 257
 475 1592 l 257
NamedP: "ih02"
 672 1856 l 257
NamedP: "hr00"
616 -29 m 256
NamedP: "dv01"
 544 -29 483 -19 427 0 c 257
 375 19 316 49 273 88 c 256
 232 125 200 173 177 249 c 257
 156 316 147 409 147 573 c 258
NamedP: "sh01"
 147 1493 l 257
NamedP: "at01"
 350 1493 l 257
 350 481 l 258
NamedP: "sh03"
 350 408 352 357 356 326 c 256
NamedP: "sh04"
 360 295 367 271 377 254 c 256
 398 215 429 185 470 165 c 256
 510 145 559 135 616 135 c 256
NamedP: "dv02"
 674 135 723 145 763 165 c 256
 804 186 835 215 856 254 c 256
 867 274 873 293 877 325 c 256
NamedP: "sh05"
 881 356 883 407 883 479 c 258
NamedP: "ah01"
 883 1493 l 257
NamedP: "at02"
 1085 1493 l 257
 1085 573 l 258
NamedP: "sh02"
 1085 397 1073 309 1057 249 c 256
 1038 182 1004 129 959 88 c 256
 915 48 858 19 806 0 c 256
 757 -17 695 -29 616 -29 c 256
NamedP: "dv01"
EndSplineSet
PickledDataWithLists: "(dp1
S'com.schriftgestaltung.Glyphs.lastChange'
p2
S'2017-07-11 17:15:08 +0000'
p3
s."
EndChar

StartChar: Ubreve
Encoding: 124 364 124
GlifName: U_breve
Width: 1233
VWidth: 0
Flags: W
LayerCount: 2
Fore
SplineSet
930 1831 m 257
NamedP: "hr00"
 811 1831 l 257
 791 1757 727 1720 618 1720 c 256
NamedP: "hr01"
 506 1720 438 1759 422 1831 c 257
NamedP: "hr02"
 303 1831 l 257
 318 1670 423 1589 616 1589 c 256
 809 1589 915 1671 930 1831 c 257
NamedP: "hr00"
810 2 m 256
 927 42 1014 121 1046 213 c 256
 1077 300 1085 398 1085 573 c 258
 1085 1493 l 257
 883 1493 l 257
 883 479 l 258
 883 408 881 356 877 325 c 256
 860 190 751 135 616 135 c 256
 560 135 513 144 475 163 c 256
 400 198 366 249 357 320 c 256
 352 351 350 404 350 481 c 258
 350 1493 l 257
 147 1493 l 257
 147 573 l 258
 147 418 157 310 177 249 c 256
 200 177 229 128 273 88 c 256
 312 53 364 23 427 0 c 257
 486 -19 549 -29 616 -29 c 256
 686 -29 751 -19 810 2 c 256
EndSplineSet
PickledDataWithLists: "(dp1
S'com.schriftgestaltung.Glyphs.lastChange'
p2
S'2017-07-11 17:15:08 +0000'
p3
s."
EndChar

StartChar: Ucircumflex
Encoding: 125 219 125
GlifName: U_circumflex
Width: 1233
VWidth: 0
Flags: W
LayerCount: 2
Fore
SplineSet
522 1852 m 257
NamedP: "hr00"
 711 1852 l 257
 922 1586 l 257
NamedP: "ih01"
 782 1586 l 257
 616 1764 l 257
 451 1586 l 257
 311 1586 l 257
NamedP: "ih02"
 522 1852 l 257
NamedP: "hr00"
616 -29 m 256
NamedP: "dv01"
 544 -29 483 -19 427 0 c 257
 375 19 316 49 273 88 c 256
 232 125 200 173 177 249 c 257
 156 316 147 409 147 573 c 258
NamedP: "sh02"
 147 1493 l 257
NamedP: "at01"
 350 1493 l 257
 350 481 l 258
NamedP: "sh03"
 350 408 352 357 356 326 c 256
NamedP: "sh04"
 360 295 367 271 377 254 c 256
 398 215 429 185 470 165 c 256
 510 145 559 135 616 135 c 256
NamedP: "dv02"
 674 135 723 145 763 165 c 256
 804 186 835 215 856 254 c 256
 867 274 873 293 877 325 c 256
NamedP: "sh05"
 881 356 883 407 883 479 c 258
NamedP: "ah01"
 883 1493 l 257
NamedP: "at02"
 1085 1493 l 257
 1085 573 l 258
NamedP: "sh01"
 1085 397 1073 309 1057 249 c 256
 1038 182 1004 129 959 88 c 256
 915 48 858 19 806 0 c 256
 757 -17 695 -29 616 -29 c 256
NamedP: "dv01"
EndSplineSet
PickledDataWithLists: "(dp1
S'com.schriftgestaltung.Glyphs.lastChange'
p2
S'2017-07-11 17:15:08 +0000'
p3
s."
EndChar

StartChar: Udieresis
Encoding: 126 220 126
GlifName: U_dieresis
Width: 1233
VWidth: 0
Flags: W
LayerCount: 2
Fore
SplineSet
349 1647 m 258
NamedP: "dv03"
 329 1647 319 1657 319 1677 c 258
NamedP: "ih01"
 319 1820 l 258
 319 1840 329 1850 349 1850 c 258
NamedP: "dv04"
 492 1850 l 258
 512 1850 522 1840 522 1820 c 258
 522 1677 l 258
NamedP: "sh01"
 522 1657 512 1647 492 1647 c 258
 349 1647 l 258
NamedP: "dv03"
741 1647 m 258
NamedP: "sv01"
 721 1647 711 1657 711 1677 c 258
NamedP: "dh03"
 711 1820 l 258
 711 1840 721 1850 741 1850 c 258
NamedP: "sv02"
 883 1850 l 258
 903 1850 913 1840 913 1820 c 258
 913 1677 l 258
NamedP: "dh04"
 913 1657 903 1647 883 1647 c 258
 741 1647 l 258
NamedP: "sv01"
616 -29 m 256
NamedP: "dv01"
 544 -29 483 -19 427 0 c 257
 375 19 316 49 273 88 c 256
 232 125 200 173 177 249 c 257
 156 316 147 409 147 573 c 258
NamedP: "dh01"
 147 1493 l 257
NamedP: "at01"
 350 1493 l 257
 350 481 l 258
NamedP: "dh02"
 350 408 352 357 356 326 c 256
NamedP: "hr01"
 360 295 367 271 377 254 c 256
 398 215 429 185 470 165 c 256
NamedP: "hr02"
 510 145 559 135 616 135 c 256
NamedP: "dv02"
 674 135 723 145 763 165 c 256
NamedP: "hr03"
 804 186 835 215 856 254 c 256
NamedP: "hr04"
 867 274 873 293 877 325 c 256
NamedP: "sh02"
 881 356 883 407 883 479 c 258
 883 1493 l 257
NamedP: "ih02"
 1085 1493 l 257
NamedP: "sh03"
 1085 573 l 258
 1085 397 1073 309 1057 249 c 256
 1038 182 1004 129 959 88 c 256
 915 48 858 19 806 0 c 256
 757 -17 695 -29 616 -29 c 256
NamedP: "dv01"
EndSplineSet
PickledDataWithLists: "(dp1
S'com.schriftgestaltung.Glyphs.lastChange'
p2
S'2017-07-11 17:15:08 +0000'
p3
s."
EndChar

StartChar: Ugrave
Encoding: 127 217 127
GlifName: U_grave
Width: 1233
VWidth: 0
Flags: W
LayerCount: 2
Fore
SplineSet
377 1852 m 257
NamedP: "hr00"
 561 1852 l 257
 758 1588 l 257
NamedP: "ih01"
 604 1588 l 257
 377 1852 l 257
NamedP: "hr00"
616 -29 m 256
NamedP: "dv01"
 544 -29 483 -19 427 0 c 257
 375 19 316 49 273 88 c 256
 232 125 200 173 177 249 c 257
 156 316 147 409 147 573 c 258
NamedP: "sh01"
 147 1493 l 257
NamedP: "at01"
 350 1493 l 257
 350 481 l 258
NamedP: "sh03"
 350 408 352 357 356 326 c 256
NamedP: "sh04"
 360 295 367 271 377 254 c 256
 398 215 429 185 470 165 c 256
 510 145 559 135 616 135 c 256
NamedP: "dv02"
 674 135 723 145 763 165 c 256
 804 186 835 215 856 254 c 256
 867 274 873 293 877 325 c 256
NamedP: "sh05"
 881 356 883 407 883 479 c 258
NamedP: "ah01"
 883 1493 l 257
NamedP: "at02"
 1085 1493 l 257
 1085 573 l 258
NamedP: "sh02"
 1085 397 1073 309 1057 249 c 256
 1038 182 1004 129 959 88 c 256
 915 48 858 19 806 0 c 256
 757 -17 695 -29 616 -29 c 256
NamedP: "dv01"
EndSplineSet
PickledDataWithLists: "(dp1
S'com.schriftgestaltung.Glyphs.lastChange'
p2
S'2017-07-11 17:15:08 +0000'
p3
s."
EndChar

StartChar: Uhorn
Encoding: 128 431 128
GlifName: U_horn
Width: 1233
VWidth: 0
Flags: W
LayerCount: 2
Fore
SplineSet
1204 1561 m 257
NamedP: "at03"
 1219 1505 1224 1467 1224 1418 c 256
NamedP: "dh06"
 1224 1269 1169 1188 1050 1188 c 256
NamedP: "hr01"
 1015 1188 983 1194 947 1213 c 257
NamedP: "iv01"
 947 573 l 258
NamedP: "dh04"
 947 405 937 316 918 248 c 257
 876 108 774 35 669 0 c 256
 611 -19 548 -29 480 -29 c 256
NamedP: "dv01"
 335 -29 216 15 136 87 c 256
 88 131 57 186 38 250 c 256
 19 313 9 409 9 573 c 258
NamedP: "dh01"
 9 1493 l 257
NamedP: "at01"
 212 1493 l 257
 212 481 l 258
NamedP: "dh02"
 212 408 214 357 218 326 c 256
NamedP: "sh01"
 226 269 253 201 332 164 c 256
 371 145 422 135 478 135 c 256
NamedP: "dv02"
 591 135 682 178 719 254 c 256
 727 270 735 294 739 325 c 256
NamedP: "sh02"
 743 356 745 407 745 479 c 258
NamedP: "dh03"
 745 1493 l 257
NamedP: "at02"
 947 1493 l 257
NamedP: "sh03"
 947 1342 l 257
 972 1332 994 1327 1013 1327 c 256
NamedP: "sv01"
 1069 1327 1101 1365 1101 1437 c 256
NamedP: "dh05"
 1101 1478 1091 1520 1071 1561 c 257
NamedP: "hr02"
 1204 1561 l 257
NamedP: "at03"
EndSplineSet
PickledDataWithLists: "(dp1
S'com.schriftgestaltung.Glyphs.lastChange'
p2
S'2017-07-11 17:15:08 +0000'
p3
s."
EndChar

StartChar: Uhungarumlaut
Encoding: 129 368 129
GlifName: U_hungarumlaut
Width: 1233
VWidth: 0
Flags: W
LayerCount: 2
Fore
SplineSet
541 1852 m 257
NamedP: "hr00"
 727 1852 l 257
NamedP: "ih01"
 498 1588 l 257
NamedP: "dv03"
 344 1588 l 257
NamedP: "sh04"
 541 1852 l 257
NamedP: "hr00"
860 1852 m 257
NamedP: "sv01"
 1046 1852 l 257
NamedP: "ih02"
 817 1588 l 257
NamedP: "sv02"
 663 1588 l 257
NamedP: "ih03"
 860 1852 l 257
NamedP: "sv01"
618 -29 m 256
NamedP: "dv01"
 473 -29 354 15 274 87 c 256
 226 131 195 186 176 250 c 256
 157 313 147 409 147 573 c 258
NamedP: "sh01"
 147 1493 l 257
NamedP: "at01"
 350 1493 l 257
 350 481 l 258
NamedP: "sh03"
 350 408 352 357 356 326 c 256
NamedP: "sh05"
 364 269 391 201 470 164 c 256
 509 145 560 135 616 135 c 256
NamedP: "dv02"
 729 135 820 178 857 254 c 256
 865 270 873 294 877 325 c 256
NamedP: "sh06"
 881 356 883 407 883 479 c 258
NamedP: "ah01"
 883 1493 l 257
NamedP: "at02"
 1085 1493 l 257
 1085 573 l 258
NamedP: "sh02"
 1085 405 1075 316 1056 248 c 257
 1014 108 912 35 807 0 c 256
 749 -19 686 -29 618 -29 c 256
NamedP: "dv01"
EndSplineSet
PickledDataWithLists: "(dp1
S'com.schriftgestaltung.Glyphs.lastChange'
p2
S'2017-07-11 17:15:08 +0000'
p3
s."
EndChar

StartChar: Umacron
Encoding: 130 362 130
GlifName: U_macron
Width: 1233
VWidth: 0
Flags: W
LayerCount: 2
Fore
SplineSet
317 1800 m 257
NamedP: "hr00"
 915 1800 l 257
NamedP: "dv04"
 915 1652 l 257
NamedP: "dv03"
 317 1652 l 257
 317 1800 l 257
NamedP: "hr00"
618 -29 m 256
NamedP: "dv01"
 473 -29 354 15 274 87 c 256
 226 131 195 186 176 250 c 256
 157 313 147 409 147 573 c 258
NamedP: "sh01"
 147 1493 l 257
NamedP: "at01"
 350 1493 l 257
 350 481 l 258
NamedP: "sh02"
 350 408 352 357 356 326 c 256
NamedP: "sh03"
 364 269 391 201 470 164 c 256
 509 145 560 135 616 135 c 256
NamedP: "dv02"
 729 135 820 178 857 254 c 256
 865 270 873 294 877 325 c 256
NamedP: "sh04"
 881 356 883 407 883 479 c 258
NamedP: "ah01"
 883 1493 l 257
NamedP: "at02"
 1085 1493 l 257
 1085 573 l 258
NamedP: "sh05"
 1085 405 1075 316 1056 248 c 257
 1014 108 912 35 807 0 c 256
 749 -19 686 -29 618 -29 c 256
NamedP: "dv01"
EndSplineSet
PickledDataWithLists: "(dp1
S'com.schriftgestaltung.Glyphs.lastChange'
p2
S'2017-07-11 17:15:08 +0000'
p3
s."
EndChar

StartChar: Uogonek
Encoding: 131 370 131
GlifName: U_ogonek
Width: 1233
VWidth: 0
Flags: W
LayerCount: 2
Fore
SplineSet
1085 1493 m 257
NamedP: "at01"
 1085 573 l 258
NamedP: "dh06"
 1085 405 1075 316 1056 248 c 257
 1014 108 912 35 807 0 c 256
 764 -15 718 -24 667 -27 c 257
 608 -108 587 -157 587 -200 c 256
NamedP: "dh04"
 587 -256 625 -288 697 -288 c 256
NamedP: "dv02"
 738 -288 780 -278 821 -258 c 257
NamedP: "sh01"
 821 -391 l 257
 765 -406 727 -411 678 -411 c 256
NamedP: "dv01"
 529 -411 448 -356 448 -237 c 256
NamedP: "dh03"
 448 -174 471 -112 548 -25 c 257
NamedP: "ih01"
 433 -14 341 27 274 87 c 256
 226 131 195 186 176 250 c 256
 157 313 147 409 147 573 c 258
NamedP: "dh01"
 147 1493 l 257
NamedP: "at02"
 350 1493 l 257
 350 481 l 258
NamedP: "dh02"
 350 408 352 357 356 326 c 256
NamedP: "sh02"
 364 269 391 201 470 164 c 256
NamedP: "hr01"
 509 145 560 135 616 135 c 256
 729 135 820 178 857 254 c 256
 865 270 873 294 877 325 c 256
NamedP: "sh03"
 881 356 883 407 883 479 c 258
NamedP: "dh05"
 883 1493 l 257
 1085 1493 l 257
NamedP: "at01"
EndSplineSet
PickledDataWithLists: "(dp1
S'com.schriftgestaltung.Glyphs.lastChange'
p2
S'2017-07-11 17:15:08 +0000'
p3
s."
EndChar

StartChar: Upsilon
Encoding: 132 933 132
GlifName: U_psilon
Width: 1233
VWidth: 0
Flags: W
LayerCount: 2
Fore
SplineSet
504 650 m 258
NamedP: "dh01"
 504 890 399 1229 270 1297 c 256
 235 1316 166 1332 112 1332 c 256
NamedP: "sv01"
 89 1332 61 1330 34 1323 c 257
 34 1493 l 257
NamedP: "at01"
 58 1501 88 1504 120 1504 c 256
NamedP: "at02"
 161 1504 217 1499 261 1490 c 256
NamedP: "at03"
 442 1453 553 1321 606 1044 c 257
NamedP: "ih01"
 686 1316 802 1455 949 1490 c 256
NamedP: "at04"
 976 1497 995 1497 1008 1497 c 256
NamedP: "at05"
 1113 1497 1209 1431 1209 1318 c 256
 1209 1295 1206 1257 1191 1224 c 256
NamedP: "hr01"
 1168 1173 1129 1157 1090 1157 c 256
 1023 1157 952 1206 941 1297 c 257
NamedP: "iv01"
 790 1193 707 869 707 650 c 258
NamedP: "hr02"
 707 0 l 257
NamedP: "ab01"
 504 0 l 257
 504 650 l 258
NamedP: "dh01"
EndSplineSet
PickledDataWithLists: "(dp1
S'com.schriftgestaltung.Glyphs.lastChange'
p2
S'2017-07-11 17:15:08 +0000'
p3
s."
EndChar

StartChar: Upsilondieresis
Encoding: 133 939 133
GlifName: U_psilondieresis
Width: 1233
VWidth: 0
Flags: W
LayerCount: 2
Fore
SplineSet
349 1649 m 258
NamedP: "dv01"
 329 1649 319 1659 319 1679 c 258
NamedP: "dh01"
 319 1822 l 258
 319 1842 329 1852 349 1852 c 258
NamedP: "dv02"
 492 1852 l 258
 512 1852 522 1842 522 1822 c 258
 522 1679 l 258
NamedP: "dh02"
 522 1659 512 1649 492 1649 c 258
 349 1649 l 258
NamedP: "dv01"
741 1649 m 258
NamedP: "sv01"
 721 1649 711 1659 711 1679 c 258
NamedP: "sh02"
 711 1822 l 258
 711 1842 721 1852 741 1852 c 258
NamedP: "hr01"
 883 1852 l 258
 903 1852 913 1842 913 1822 c 258
 913 1679 l 258
NamedP: "hr02"
 913 1659 903 1649 883 1649 c 258
 741 1649 l 258
NamedP: "sv01"
504 650 m 258
NamedP: "ih01"
 504 890 399 1229 270 1297 c 256
 235 1316 166 1332 112 1332 c 256
NamedP: "sv02"
 89 1332 61 1330 34 1323 c 257
 34 1493 l 257
NamedP: "at01"
 58 1501 88 1504 120 1504 c 256
NamedP: "at02"
 161 1504 217 1499 261 1490 c 256
NamedP: "at03"
 442 1453 553 1321 606 1044 c 257
NamedP: "ih02"
 686 1316 802 1455 949 1490 c 256
NamedP: "at04"
 976 1497 995 1497 1008 1497 c 256
NamedP: "at05"
 1113 1497 1209 1431 1209 1318 c 256
NamedP: "hr03"
 1209 1295 1206 1257 1191 1224 c 256
 1168 1173 1129 1157 1090 1157 c 256
NamedP: "sv03"
 1023 1157 952 1206 941 1297 c 257
NamedP: "iv01"
 790 1193 707 869 707 650 c 258
NamedP: "sh01"
 707 0 l 257
NamedP: "sh03"
 504 0 l 257
 504 650 l 258
NamedP: "ih01"
EndSplineSet
PickledDataWithLists: "(dp1
S'com.schriftgestaltung.Glyphs.lastChange'
p2
S'2017-07-11 17:15:08 +0000'
p3
s."
EndChar

StartChar: Upsilontonos
Encoding: 134 910 134
GlifName: U_psilontonos
Width: 1233
VWidth: 0
Flags: W
LayerCount: 2
Fore
SplineSet
519 650 m 258
NamedP: "dh01"
 519 890 414 1229 285 1297 c 256
 250 1316 181 1332 127 1332 c 256
NamedP: "sv01"
 104 1332 76 1330 49 1323 c 257
 49 1493 l 257
NamedP: "at01"
 73 1501 103 1504 135 1504 c 256
NamedP: "at02"
 176 1504 232 1499 276 1490 c 256
NamedP: "at03"
 457 1453 568 1321 621 1044 c 257
NamedP: "ih01"
 701 1316 817 1455 964 1490 c 256
NamedP: "at04"
 991 1497 1010 1497 1023 1497 c 256
NamedP: "at05"
 1128 1497 1224 1431 1224 1318 c 256
 1224 1295 1221 1257 1206 1224 c 256
NamedP: "hr01"
 1183 1173 1144 1157 1105 1157 c 256
 1038 1157 967 1206 956 1297 c 257
NamedP: "iv01"
 805 1193 722 869 722 650 c 258
NamedP: "dh02"
 722 0 l 257
NamedP: "hr02"
 519 0 l 257
NamedP: "hr03"
 519 650 l 258
NamedP: "dh01"
-188 1493 m 257
NamedP: "at06"
 10 1493 l 257
NamedP: "hr04"
 -315 1117 l 257
 -469 1117 l 257
NamedP: "iv02"
 -188 1493 l 257
NamedP: "at06"
EndSplineSet
PickledDataWithLists: "(dp1
S'com.schriftgestaltung.Glyphs.lastChange'
p2
S'2017-07-11 17:15:08 +0000'
p3
s."
EndChar

StartChar: Uring
Encoding: 135 366 135
GlifName: U_ring
Width: 1233
VWidth: 0
Flags: W
LayerCount: 2
Fore
SplineSet
627 1352 m 256
NamedP: "dv05"
 473 1352 352 1474 352 1627 c 256
NamedP: "sh01"
 352 1779 473 1901 627 1901 c 256
NamedP: "dv04"
 782 1901 901 1779 901 1627 c 256
NamedP: "dh04"
 901 1474 782 1352 627 1352 c 256
NamedP: "dv05"
626 1475 m 256
NamedP: "dv06"
 710 1475 778 1543 778 1627 c 256
NamedP: "dh03"
 778 1711 710 1778 626 1778 c 256
NamedP: "dv03"
 541 1778 475 1712 475 1627 c 256
NamedP: "sh02"
 475 1541 541 1475 626 1475 c 256
NamedP: "dv06"
618 -29 m 256
NamedP: "dv01"
 473 -29 354 15 274 87 c 256
 226 131 195 186 176 250 c 256
 157 313 147 409 147 573 c 258
NamedP: "dh01"
 147 1493 l 257
NamedP: "at01"
 350 1493 l 257
 350 481 l 258
NamedP: "dh02"
 350 408 352 357 356 326 c 256
NamedP: "sh03"
 364 269 391 201 470 164 c 256
 509 145 560 135 616 135 c 256
NamedP: "dv02"
 729 135 820 178 857 254 c 256
 865 270 873 294 877 325 c 256
NamedP: "sh04"
 881 356 883 407 883 479 c 258
NamedP: "ih01"
 883 1493 l 257
NamedP: "at02"
 1085 1493 l 257
NamedP: "hr01"
 1085 573 l 258
NamedP: "sh05"
 1085 405 1075 316 1056 248 c 257
 1014 108 912 35 807 0 c 256
 749 -19 686 -29 618 -29 c 256
NamedP: "dv01"
EndSplineSet
PickledDataWithLists: "(dp1
S'com.schriftgestaltung.Glyphs.lastChange'
p2
S'2017-07-11 17:15:08 +0000'
p3
s."
EndChar

StartChar: Utilde
Encoding: 136 360 136
GlifName: U_tilde
Width: 1233
VWidth: 0
Flags: W
LayerCount: 2
Fore
SplineSet
287 1633 m 257
NamedP: "sv01"
 287 1769 357 1852 482 1852 c 256
NamedP: "dv04"
 535 1852 570 1836 621 1809 c 258
 678 1779 l 257
 707 1762 731 1754 750 1754 c 256
NamedP: "dv06"
 791 1754 821 1790 821 1846 c 258
 821 1852 l 257
NamedP: "sv02"
 946 1852 l 257
 941 1721 877 1633 753 1633 c 256
NamedP: "dv05"
 710 1633 673 1644 612 1676 c 257
 555 1709 l 258
 522 1728 505 1734 486 1734 c 256
NamedP: "dv03"
 441 1734 412 1699 412 1639 c 258
 412 1633 l 257
 287 1633 l 257
NamedP: "sv01"
618 -29 m 256
NamedP: "dv01"
 473 -29 354 15 274 87 c 256
 226 131 195 186 176 250 c 256
 157 313 147 409 147 573 c 258
NamedP: "sh01"
 147 1493 l 257
NamedP: "at01"
 350 1493 l 257
 350 481 l 258
NamedP: "sh02"
 350 408 352 357 356 326 c 256
NamedP: "hr01"
 364 269 391 201 470 164 c 256
 509 145 560 135 616 135 c 256
NamedP: "dv02"
 729 135 820 178 857 254 c 256
NamedP: "hr02"
 865 270 873 294 877 325 c 256
NamedP: "hr03"
 881 356 883 407 883 479 c 258
NamedP: "ah01"
 883 1493 l 257
NamedP: "at02"
 1085 1493 l 257
NamedP: "hr04"
 1085 573 l 258
NamedP: "sh03"
 1085 405 1075 316 1056 248 c 257
 1014 108 912 35 807 0 c 256
NamedP: "hr05"
 749 -19 686 -29 618 -29 c 256
NamedP: "dv01"
EndSplineSet
PickledDataWithLists: "(dp1
S'com.schriftgestaltung.Glyphs.lastChange'
p2
S'2017-07-11 17:15:08 +0000'
p3
s."
EndChar

StartChar: V
Encoding: 137 86 137
GlifName: V_
Width: 1233
VWidth: 0
Flags: W
LayerCount: 2
Fore
SplineSet
57 1493 m 257
NamedP: "hr00"
 266 1493 l 257
 616 170 l 257
NamedP: "iv01"
 967 1493 l 257
NamedP: "at01"
 1176 1493 l 257
 739 0 l 257
NamedP: "ab01"
 494 0 l 257
 57 1493 l 257
NamedP: "hr00"
EndSplineSet
PickledDataWithLists: "(dp1
S'com.schriftgestaltung.Glyphs.lastChange'
p2
S'2017-07-11 17:15:08 +0000'
p3
s."
EndChar

StartChar: W
Encoding: 138 87 138
GlifName: W_
Width: 1233
VWidth: 0
Flags: W
LayerCount: 2
Fore
SplineSet
0 1493 m 257
NamedP: "hr00"
 197 1493 l 257
 340 281 l 257
NamedP: "iv01"
 510 1083 l 257
 721 1083 l 257
 893 279 l 257
NamedP: "iv02"
 1036 1493 l 257
NamedP: "at01"
 1233 1493 l 257
 1010 0 l 257
NamedP: "ab01"
 819 0 l 257
 616 887 l 257
NamedP: "iv03"
 414 0 l 257
NamedP: "ab02"
 223 0 l 257
 0 1493 l 257
NamedP: "hr00"
EndSplineSet
PickledDataWithLists: "(dp1
S'com.schriftgestaltung.Glyphs.lastChange'
p2
S'2017-07-11 17:15:08 +0000'
p3
s."
EndChar

StartChar: Wacute
Encoding: 139 7810 139
GlifName: W_acute
Width: 1233
VWidth: 0
Flags: W
LayerCount: 2
Fore
SplineSet
672 1856 m 257
NamedP: "hr00"
 858 1856 l 257
 629 1592 l 257
 475 1592 l 257
NamedP: "iv01"
 672 1856 l 257
NamedP: "hr00"
0 1493 m 257
NamedP: "at01"
 197 1493 l 257
 340 281 l 257
NamedP: "iv02"
 510 1083 l 257
 721 1083 l 257
 893 279 l 257
NamedP: "iv03"
 1036 1493 l 257
NamedP: "at02"
 1233 1493 l 257
 1010 0 l 257
NamedP: "ab01"
 819 0 l 257
 616 887 l 257
NamedP: "iv04"
 414 0 l 257
NamedP: "ab02"
 223 0 l 257
 0 1493 l 257
NamedP: "at01"
EndSplineSet
PickledDataWithLists: "(dp1
S'com.schriftgestaltung.Glyphs.lastChange'
p2
S'2017-07-11 17:15:08 +0000'
p3
s."
EndChar

StartChar: Wcircumflex
Encoding: 140 372 140
GlifName: W_circumflex
Width: 1233
VWidth: 0
Flags: W
LayerCount: 2
Fore
SplineSet
522 1852 m 257
NamedP: "hr00"
 711 1852 l 257
 922 1586 l 257
NamedP: "iv01"
 782 1586 l 257
 616 1764 l 257
 451 1586 l 257
 311 1586 l 257
NamedP: "iv02"
 522 1852 l 257
NamedP: "hr00"
0 1493 m 257
NamedP: "at01"
 197 1493 l 257
 340 281 l 257
NamedP: "iv03"
 510 1083 l 257
 721 1083 l 257
 893 279 l 257
NamedP: "iv04"
 1036 1493 l 257
NamedP: "at02"
 1233 1493 l 257
 1010 0 l 257
NamedP: "ab01"
 819 0 l 257
 616 887 l 257
NamedP: "iv05"
 414 0 l 257
NamedP: "ab02"
 223 0 l 257
 0 1493 l 257
NamedP: "at01"
EndSplineSet
PickledDataWithLists: "(dp1
S'com.schriftgestaltung.Glyphs.lastChange'
p2
S'2017-07-11 17:15:08 +0000'
p3
s."
EndChar

StartChar: Wdieresis
Encoding: 141 7812 141
GlifName: W_dieresis
Width: 1233
VWidth: 0
Flags: W
LayerCount: 2
Fore
SplineSet
350 1650 m 258
NamedP: "hr00"
 333 1650 319 1664 319 1681 c 258
NamedP: "sh01"
 319 1821 l 258
 319 1838 333 1852 350 1852 c 258
NamedP: "dv01"
 491 1852 l 258
 508 1852 522 1838 522 1821 c 258
 522 1681 l 258
NamedP: "sh02"
 522 1664 508 1650 491 1650 c 258
 350 1650 l 258
NamedP: "hr00"
742 1650 m 258
NamedP: "sv01"
 725 1650 711 1664 711 1681 c 258
NamedP: "ah01"
 711 1821 l 258
 711 1838 725 1852 742 1852 c 258
NamedP: "sv02"
 882 1852 l 258
 899 1852 913 1838 913 1821 c 258
 913 1681 l 258
NamedP: "sh03"
 913 1664 899 1650 882 1650 c 258
 742 1650 l 258
NamedP: "sv01"
0 1493 m 257
NamedP: "at01"
 197 1493 l 257
 340 281 l 257
NamedP: "ih01"
 510 1083 l 257
NamedP: "sh04"
 721 1083 l 257
NamedP: "sh05"
 893 279 l 257
NamedP: "ih02"
 1036 1493 l 257
NamedP: "at02"
 1233 1493 l 257
 1010 0 l 257
NamedP: "ab01"
 819 0 l 257
 616 887 l 257
NamedP: "ih03"
 414 0 l 257
NamedP: "ab02"
 223 0 l 257
 0 1493 l 257
NamedP: "at01"
EndSplineSet
PickledDataWithLists: "(dp1
S'com.schriftgestaltung.Glyphs.lastChange'
p2
S'2017-07-11 17:15:08 +0000'
p3
s."
EndChar

StartChar: Wgrave
Encoding: 142 7808 142
GlifName: W_grave
Width: 1233
VWidth: 0
Flags: W
LayerCount: 2
Fore
SplineSet
377 1852 m 257
NamedP: "hr00"
 561 1852 l 257
 758 1588 l 257
NamedP: "iv01"
 604 1588 l 257
 377 1852 l 257
NamedP: "hr00"
0 1493 m 257
NamedP: "at01"
 197 1493 l 257
 340 281 l 257
NamedP: "iv02"
 510 1083 l 257
 721 1083 l 257
 893 279 l 257
NamedP: "iv03"
 1036 1493 l 257
NamedP: "at02"
 1233 1493 l 257
 1010 0 l 257
NamedP: "ab01"
 819 0 l 257
 616 887 l 257
NamedP: "iv04"
 414 0 l 257
NamedP: "ab02"
 223 0 l 257
 0 1493 l 257
NamedP: "at01"
EndSplineSet
PickledDataWithLists: "(dp1
S'com.schriftgestaltung.Glyphs.lastChange'
p2
S'2017-07-11 17:15:08 +0000'
p3
s."
EndChar

StartChar: X
Encoding: 143 88 143
GlifName: X_
Width: 1233
VWidth: 0
Flags: W
LayerCount: 2
Fore
SplineSet
518 791 m 257
NamedP: "hr00"
 86 1493 l 257
NamedP: "at01"
 303 1493 l 257
 631 930 l 257
NamedP: "iv01"
 965 1493 l 257
NamedP: "at02"
 1182 1493 l 257
 735 791 l 257
 1214 0 l 257
NamedP: "ab01"
 997 0 l 257
 631 643 l 257
NamedP: "iv02"
 236 0 l 257
NamedP: "ab02"
 18 0 l 257
 518 791 l 257
NamedP: "hr00"
EndSplineSet
PickledDataWithLists: "(dp1
S'com.schriftgestaltung.Glyphs.lastChange'
p2
S'2017-07-11 17:15:08 +0000'
p3
s."
EndChar

StartChar: Xi
Encoding: 144 926 144
GlifName: X_i
Width: 1233
VWidth: 0
Flags: W
LayerCount: 2
Fore
SplineSet
137 1493 m 257
NamedP: "hr00"
 1096 1493 l 257
 1096 1323 l 257
NamedP: "sv01"
 137 1323 l 257
 137 1493 l 257
NamedP: "hr00"
340 881 m 257
 893 881 l 257
NamedP: "dv02"
 893 711 l 257
NamedP: "dv01"
 340 711 l 257
 340 881 l 257
137 170 m 257
NamedP: "sv02"
 1096 170 l 257
 1096 0 l 257
NamedP: "ab01"
 137 0 l 257
 137 170 l 257
NamedP: "sv02"
EndSplineSet
PickledDataWithLists: "(dp1
S'com.schriftgestaltung.Glyphs.lastChange'
p2
S'2017-07-11 17:15:08 +0000'
p3
s."
EndChar

StartChar: Y
Encoding: 145 89 145
GlifName: Y_
Width: 1233
VWidth: 0
Flags: W
LayerCount: 2
Fore
SplineSet
514 670 m 257
NamedP: "hr00"
 37 1493 l 257
NamedP: "at01"
 252 1493 l 257
 616 834 l 257
NamedP: "ih01"
 979 1493 l 257
NamedP: "at02"
 1196 1493 l 257
 717 670 l 257
NamedP: "dh01"
 717 0 l 257
NamedP: "ab01"
 514 0 l 257
 514 670 l 257
NamedP: "hr00"
EndSplineSet
PickledDataWithLists: "(dp1
S'com.schriftgestaltung.Glyphs.lastChange'
p2
S'2017-07-11 17:15:08 +0000'
p3
s."
EndChar

StartChar: Yacute
Encoding: 146 221 146
GlifName: Y_acute
Width: 1233
VWidth: 0
Flags: W
LayerCount: 2
Fore
SplineSet
672 1852 m 257
NamedP: "hr00"
 858 1852 l 257
 629 1588 l 257
 475 1588 l 257
NamedP: "iv01"
 672 1852 l 257
NamedP: "hr00"
514 670 m 257
NamedP: "dh01"
 37 1493 l 257
NamedP: "at01"
 252 1493 l 257
 616 834 l 257
NamedP: "ih01"
 979 1493 l 257
NamedP: "at02"
 1196 1493 l 257
NamedP: "iv02"
 717 670 l 257
NamedP: "dh02"
 717 0 l 257
NamedP: "ab01"
 514 0 l 257
 514 670 l 257
NamedP: "dh01"
EndSplineSet
PickledDataWithLists: "(dp1
S'com.schriftgestaltung.Glyphs.lastChange'
p2
S'2017-07-11 17:15:08 +0000'
p3
s."
EndChar

StartChar: Ycircumflex
Encoding: 147 374 147
GlifName: Y_circumflex
Width: 1233
VWidth: 0
Flags: W
LayerCount: 2
Fore
SplineSet
522 1852 m 257
NamedP: "hr00"
 711 1852 l 257
 922 1586 l 257
NamedP: "iv01"
 782 1586 l 257
 616 1764 l 257
 451 1586 l 257
 311 1586 l 257
NamedP: "iv02"
 522 1852 l 257
NamedP: "hr00"
514 670 m 257
NamedP: "dh01"
 37 1493 l 257
NamedP: "at01"
 252 1493 l 257
 616 834 l 257
NamedP: "ih01"
 979 1493 l 257
NamedP: "at02"
 1196 1493 l 257
NamedP: "iv03"
 717 670 l 257
NamedP: "dh02"
 717 0 l 257
NamedP: "ab01"
 514 0 l 257
 514 670 l 257
NamedP: "dh01"
EndSplineSet
PickledDataWithLists: "(dp1
S'com.schriftgestaltung.Glyphs.lastChange'
p2
S'2017-07-11 17:15:08 +0000'
p3
s."
EndChar

StartChar: Ydieresis
Encoding: 148 376 148
GlifName: Y_dieresis
Width: 1233
VWidth: 0
Flags: W
LayerCount: 2
Fore
SplineSet
349 1649 m 258
NamedP: "dv01"
 329 1649 319 1659 319 1679 c 258
NamedP: "dh01"
 319 1822 l 258
 319 1842 329 1852 349 1852 c 258
NamedP: "dv02"
 492 1852 l 258
 512 1852 522 1842 522 1822 c 258
 522 1679 l 258
NamedP: "dh02"
 522 1659 512 1649 492 1649 c 258
 349 1649 l 258
NamedP: "dv01"
741 1649 m 258
NamedP: "sv01"
 721 1649 711 1659 711 1679 c 258
NamedP: "sh02"
 711 1822 l 258
NamedP: "hr01"
 711 1842 721 1852 741 1852 c 258
NamedP: "sv02"
 883 1852 l 258
 903 1852 913 1842 913 1822 c 258
 913 1679 l 258
NamedP: "sh03"
 913 1659 903 1649 883 1649 c 258
 741 1649 l 258
NamedP: "sv01"
514 670 m 257
NamedP: "sh04"
 37 1493 l 257
NamedP: "at01"
 252 1493 l 257
 616 834 l 257
NamedP: "ih01"
 979 1493 l 257
NamedP: "at02"
 1196 1493 l 257
 717 670 l 257
NamedP: "sh01"
 717 0 l 257
NamedP: "sh05"
 514 0 l 257
 514 670 l 257
NamedP: "sh04"
EndSplineSet
PickledDataWithLists: "(dp1
S'com.schriftgestaltung.Glyphs.lastChange'
p2
S'2017-07-11 17:15:08 +0000'
p3
s."
EndChar

StartChar: Ygrave
Encoding: 149 7922 149
GlifName: Y_grave
Width: 1233
VWidth: 0
Flags: W
LayerCount: 2
Fore
SplineSet
377 1852 m 257
NamedP: "hr00"
 561 1852 l 257
 758 1588 l 257
NamedP: "iv01"
 604 1588 l 257
 377 1852 l 257
NamedP: "hr00"
514 670 m 257
NamedP: "dh01"
 37 1493 l 257
NamedP: "at01"
 252 1493 l 257
 616 834 l 257
NamedP: "ih01"
 979 1493 l 257
NamedP: "at02"
 1196 1493 l 257
NamedP: "iv02"
 717 670 l 257
NamedP: "dh02"
 717 0 l 257
NamedP: "ab01"
 514 0 l 257
 514 670 l 257
NamedP: "dh01"
EndSplineSet
PickledDataWithLists: "(dp1
S'com.schriftgestaltung.Glyphs.lastChange'
p2
S'2017-07-11 17:15:08 +0000'
p3
s."
EndChar

StartChar: Z
Encoding: 150 90 150
GlifName: Z_
Width: 1233
VWidth: 0
Flags: W
LayerCount: 2
Fore
SplineSet
110 154 m 257
NamedP: "hr00"
 869 1323 l 257
NamedP: "sv01"
 132 1323 l 257
 132 1493 l 257
NamedP: "at01"
 1101 1493 l 257
 1101 1339 l 257
 321 170 l 257
NamedP: "sv02"
 1123 170 l 257
 1123 0 l 257
NamedP: "ab01"
 110 0 l 257
 110 154 l 257
NamedP: "hr00"
EndSplineSet
PickledDataWithLists: "(dp1
S'com.schriftgestaltung.Glyphs.lastChange'
p2
S'2017-07-11 17:15:08 +0000'
p3
s."
EndChar

StartChar: Zacute
Encoding: 151 377 151
GlifName: Z_acute
Width: 1233
VWidth: 0
Flags: W
LayerCount: 2
Fore
SplineSet
653 1852 m 257
NamedP: "hr00"
 839 1852 l 257
 610 1588 l 257
 456 1588 l 257
NamedP: "iv01"
 653 1852 l 257
NamedP: "hr00"
110 154 m 257
 869 1323 l 257
NamedP: "sv01"
 132 1323 l 257
 132 1493 l 257
NamedP: "at01"
 1101 1493 l 257
 1101 1339 l 257
 321 170 l 257
NamedP: "sv02"
 1123 170 l 257
 1123 0 l 257
NamedP: "ab01"
 110 0 l 257
 110 154 l 257
EndSplineSet
PickledDataWithLists: "(dp1
S'com.schriftgestaltung.Glyphs.lastChange'
p2
S'2017-07-11 17:15:08 +0000'
p3
s."
EndChar

StartChar: Zcaron
Encoding: 152 381 152
GlifName: Z_caron
Width: 1233
VWidth: 0
Flags: W
LayerCount: 2
Fore
SplineSet
265 1852 m 257
NamedP: "hr00"
 405 1852 l 257
 570 1674 l 257
 736 1852 l 257
NamedP: "av01"
 876 1852 l 257
 665 1586 l 257
 476 1586 l 257
 265 1852 l 257
NamedP: "hr00"
110 154 m 257
 869 1323 l 257
NamedP: "sv01"
 132 1323 l 257
 132 1493 l 257
NamedP: "at01"
 1101 1493 l 257
 1101 1339 l 257
 321 170 l 257
NamedP: "sv02"
 1123 170 l 257
 1123 0 l 257
NamedP: "ab01"
 110 0 l 257
 110 154 l 257
EndSplineSet
PickledDataWithLists: "(dp1
S'com.schriftgestaltung.Glyphs.lastChange'
p2
S'2017-07-11 17:15:08 +0000'
p3
s."
EndChar

StartChar: Zdotaccent
Encoding: 153 379 153
GlifName: Z_dotaccent
Width: 1233
VWidth: 0
Flags: W
LayerCount: 2
Fore
SplineSet
547 1647 m 258
NamedP: "hr00"
 527 1647 517 1657 517 1677 c 258
NamedP: "dh01"
 517 1822 l 258
 517 1842 527 1852 547 1852 c 258
NamedP: "dv01"
 692 1852 l 258
 712 1852 722 1842 722 1822 c 258
 722 1677 l 258
NamedP: "dh02"
 722 1657 712 1647 692 1647 c 258
 547 1647 l 258
NamedP: "hr00"
110 154 m 257
 869 1323 l 257
NamedP: "sv01"
 132 1323 l 257
 132 1493 l 257
NamedP: "at01"
 1101 1493 l 257
 1101 1339 l 257
 321 170 l 257
NamedP: "sv02"
 1123 170 l 257
 1123 0 l 257
NamedP: "ab01"
 110 0 l 257
 110 154 l 257
EndSplineSet
PickledDataWithLists: "(dp1
S'com.schriftgestaltung.Glyphs.lastChange'
p2
S'2017-07-11 17:15:08 +0000'
p3
s."
EndChar

StartChar: Zeta
Encoding: 154 918 154
GlifName: Z_eta
Width: 1233
VWidth: 0
Flags: W
LayerCount: 2
Fore
SplineSet
110 154 m 257
NamedP: "hr00"
 869 1323 l 257
NamedP: "sv01"
 132 1323 l 257
 132 1493 l 257
NamedP: "at01"
 1101 1493 l 257
 1101 1339 l 257
 321 170 l 257
NamedP: "sv02"
 1123 170 l 257
 1123 0 l 257
NamedP: "ab01"
 110 0 l 257
 110 154 l 257
NamedP: "hr00"
EndSplineSet
PickledDataWithLists: "(dp1
S'com.schriftgestaltung.Glyphs.lastChange'
p2
S'2017-07-11 17:15:08 +0000'
p3
s."
EndChar

StartChar: a
Encoding: 156 97 156
GlifName: a
Width: 1233
VWidth: 0
Flags: W
LayerCount: 2
Fore
SplineSet
513 -29 m 256
NamedP: "dv01"
 397 -29 305 3 238 68 c 256
 174 129 136 210 136 327 c 256
NamedP: "sh01"
 136 450 178 545 262 610 c 256
 345 675 467 707 630 707 c 258
 877 707 l 257
NamedP: "ah01"
 877 736 l 258
 877 821 854 890 809 931 c 256
 765 971 692 991 596 991 c 256
NamedP: "dv03"
 533 991 469 982 405 964 c 256
 340 946 278 920 218 885 c 257
NamedP: "ih01"
 218 1069 l 257
 274 1090 345 1113 414 1128 c 256
 475 1141 536 1147 597 1147 c 256
NamedP: "hr01"
 692 1147 767 1133 834 1105 c 256
 895 1078 953 1037 992 984 c 256
 1020 945 1037 901 1046 860 c 256
 1057 811 1062 738 1062 639 c 258
NamedP: "sh03"
 1062 410 l 257
 1065 333 1064 277 1071 226 c 256
NamedP: "sh04"
 1078 170 1087 116 1094 91 c 256
 1103 50 1118 7 1121 0 c 257
NamedP: "ab01"
 936 0 l 257
 929 16 918 50 909 87 c 256
 902 116 896 149 893 170 c 257
NamedP: "ih02"
 854 103 788 50 729 19 c 256
 665 -14 594 -29 513 -29 c 256
NamedP: "dv01"
551 125 m 256
NamedP: "dv02"
 652 125 731 160 789 231 c 256
 848 303 877 400 877 522 c 258
NamedP: "sh05"
 877 563 l 257
NamedP: "dv04"
 644 563 l 258
 537 563 457 544 402 507 c 256
 345 468 320 412 320 337 c 256
NamedP: "sh02"
 320 268 342 217 381 181 c 256
 420 146 474 125 551 125 c 256
NamedP: "dv02"
EndSplineSet
PickledDataWithLists: "(dp1
S'com.schriftgestaltung.Glyphs.lastChange'
p2
S'2017-07-11 17:15:08 +0000'
p3
s."
Substitution2: "Single Substitution lookup 14 subtable" ordfeminine
Substitution2: "Single Substitution lookup 11 subtable" ordfeminine
EndChar

StartChar: aacute
Encoding: 157 225 157
GlifName: aacute
Width: 1233
VWidth: 0
Flags: W
LayerCount: 2
Fore
SplineSet
759 1673 m 257
NamedP: "av01"
 957 1673 l 257
NamedP: "ih01"
 632 1297 l 257
 478 1297 l 257
NamedP: "ih02"
 759 1673 l 257
NamedP: "av01"
513 -29 m 256
NamedP: "dv01"
 397 -29 305 3 238 68 c 256
 174 129 136 210 136 327 c 256
NamedP: "sh02"
 136 450 178 545 262 610 c 256
 345 675 467 707 630 707 c 258
 877 707 l 257
NamedP: "ah01"
 877 736 l 258
 877 821 854 890 809 931 c 256
 765 971 692 991 596 991 c 256
NamedP: "dv04"
 533 991 469 982 405 964 c 256
NamedP: "hr01"
 340 946 278 920 218 885 c 257
NamedP: "ih03"
 218 1069 l 257
 274 1090 345 1113 414 1128 c 256
 475 1141 536 1147 597 1147 c 256
NamedP: "dv05"
 692 1147 767 1133 834 1105 c 256
 895 1078 953 1037 992 984 c 256
 1020 945 1037 901 1046 860 c 256
 1057 811 1062 738 1062 639 c 258
NamedP: "sh01"
 1062 410 l 257
 1065 333 1064 277 1071 226 c 256
NamedP: "sh03"
 1078 170 1087 116 1094 91 c 256
 1103 50 1118 7 1121 0 c 257
NamedP: "ab01"
 936 0 l 257
 929 16 918 50 909 87 c 256
 902 116 896 149 893 170 c 257
NamedP: "ih04"
 854 103 788 50 729 19 c 256
 665 -14 594 -29 513 -29 c 256
NamedP: "dv01"
551 125 m 256
NamedP: "dv02"
 652 125 731 160 789 231 c 256
 848 303 877 400 877 522 c 258
NamedP: "sh05"
 877 563 l 257
NamedP: "dv03"
 644 563 l 258
 537 563 457 544 402 507 c 256
NamedP: "hr02"
 345 468 320 412 320 337 c 256
NamedP: "sh04"
 320 268 342 217 381 181 c 256
 420 146 474 125 551 125 c 256
NamedP: "dv02"
EndSplineSet
PickledDataWithLists: "(dp1
S'com.schriftgestaltung.Glyphs.lastChange'
p2
S'2017-07-11 17:15:08 +0000'
p3
s."
EndChar

StartChar: abreve
Encoding: 158 259 158
GlifName: abreve
Width: 1233
VWidth: 0
Flags: W
LayerCount: 2
Fore
SplineSet
619 1296 m 256
NamedP: "dv03"
 426 1296 321 1392 306 1583 c 257
NamedP: "sh03"
 425 1583 l 257
NamedP: "dv04"
 440 1487 497 1433 618 1433 c 256
NamedP: "sv01"
 733 1433 795 1482 814 1583 c 257
NamedP: "sv02"
 933 1583 l 257
 918 1392 813 1296 619 1296 c 256
NamedP: "dv03"
513 -29 m 256
NamedP: "dv01"
 397 -29 305 3 238 68 c 256
 174 129 136 210 136 327 c 256
NamedP: "sh01"
 136 450 178 545 262 610 c 256
 345 675 467 707 630 707 c 258
 877 707 l 257
NamedP: "ah01"
 877 736 l 258
 877 821 854 890 809 931 c 256
NamedP: "hr01"
 765 971 692 991 596 991 c 256
NamedP: "dv05"
 533 991 469 982 405 964 c 256
 340 946 278 920 218 885 c 257
NamedP: "ih01"
 218 1069 l 257
 274 1090 345 1113 414 1128 c 256
 475 1141 536 1147 597 1147 c 256
NamedP: "dv06"
 692 1147 767 1133 834 1105 c 256
 895 1078 953 1037 992 984 c 256
 1020 945 1037 901 1046 860 c 256
 1057 811 1062 738 1062 639 c 258
NamedP: "sh04"
 1062 410 l 257
 1065 333 1064 277 1071 226 c 256
NamedP: "sh05"
 1078 170 1087 116 1094 91 c 256
 1103 50 1118 7 1121 0 c 257
NamedP: "ab01"
 936 0 l 257
 929 16 918 50 909 87 c 256
 902 116 896 149 893 170 c 257
NamedP: "ih02"
 854 103 788 50 729 19 c 256
 665 -14 594 -29 513 -29 c 256
NamedP: "dv01"
551 125 m 256
NamedP: "dv02"
 652 125 731 160 789 231 c 256
 848 303 877 400 877 522 c 258
NamedP: "sh06"
 877 563 l 257
NamedP: "hr02"
 644 563 l 258
 537 563 457 544 402 507 c 256
 345 468 320 412 320 337 c 256
NamedP: "sh02"
 320 268 342 217 381 181 c 256
NamedP: "hr03"
 420 146 474 125 551 125 c 256
NamedP: "dv02"
EndSplineSet
PickledDataWithLists: "(dp1
S'com.schriftgestaltung.Glyphs.lastChange'
p2
S'2017-07-11 17:15:08 +0000'
p3
s."
EndChar

StartChar: acircumflex
Encoding: 159 226 159
GlifName: acircumflex
Width: 1233
VWidth: 0
Flags: W
LayerCount: 2
Fore
SplineSet
546 1673 m 257
NamedP: "av01"
 693 1673 l 257
 939 1297 l 257
NamedP: "ih01"
 800 1297 l 257
 619 1542 l 257
NamedP: "ih02"
 439 1297 l 257
 300 1297 l 257
NamedP: "ih03"
 546 1673 l 257
NamedP: "av01"
513 -29 m 256
NamedP: "dv01"
 397 -29 305 3 238 68 c 256
 174 129 136 210 136 327 c 256
NamedP: "sh02"
 136 450 178 545 262 610 c 256
 345 675 467 707 630 707 c 258
 877 707 l 257
NamedP: "ah01"
 877 736 l 258
NamedP: "hr01"
 877 821 854 890 809 931 c 256
 765 971 692 991 596 991 c 256
NamedP: "dv04"
 533 991 469 982 405 964 c 256
 340 946 278 920 218 885 c 257
NamedP: "ih04"
 218 1069 l 257
 274 1090 345 1113 414 1128 c 256
 475 1141 536 1147 597 1147 c 256
NamedP: "dv05"
 692 1147 767 1133 834 1105 c 256
 895 1078 953 1037 992 984 c 256
 1020 945 1037 901 1046 860 c 256
 1057 811 1062 738 1062 639 c 258
NamedP: "sh01"
 1062 410 l 257
 1065 333 1064 277 1071 226 c 256
NamedP: "sh03"
 1078 170 1087 116 1094 91 c 256
 1103 50 1118 7 1121 0 c 257
NamedP: "ab01"
 936 0 l 257
 929 16 918 50 909 87 c 256
 902 116 896 149 893 170 c 257
NamedP: "ih05"
 854 103 788 50 729 19 c 256
 665 -14 594 -29 513 -29 c 256
NamedP: "dv01"
551 125 m 256
NamedP: "dv02"
 652 125 731 160 789 231 c 256
 848 303 877 400 877 522 c 258
NamedP: "hr02"
 877 563 l 257
NamedP: "dv03"
 644 563 l 258
 537 563 457 544 402 507 c 256
 345 468 320 412 320 337 c 256
NamedP: "sh04"
 320 268 342 217 381 181 c 256
 420 146 474 125 551 125 c 256
NamedP: "dv02"
EndSplineSet
PickledDataWithLists: "(dp1
S'com.schriftgestaltung.Glyphs.lastChange'
p2
S'2017-07-11 17:15:08 +0000'
p3
s."
EndChar

StartChar: acute
Encoding: 160 180 160
GlifName: acute
Width: 1233
VWidth: 0
Flags: W
LayerCount: 2
Fore
SplineSet
629 1262 m 257
NamedP: "hr00"
 475 1262 l 257
 756 1638 l 257
NamedP: "av01"
 954 1638 l 257
 629 1262 l 257
NamedP: "hr00"
EndSplineSet
PickledDataWithLists: "(dp1
S'com.schriftgestaltung.Glyphs.lastChange'
p2
S'2017-07-11 17:15:08 +0000'
p3
s."
EndChar

StartChar: acutecomb
Encoding: 161 769 161
GlifName: acutecomb
Width: 0
VWidth: 0
Flags: W
LayerCount: 2
Fore
SplineSet
-758 1262 m 257
NamedP: "hr00"
 -477 1638 l 257
NamedP: "av01"
 -279 1638 l 257
 -604 1262 l 257
 -758 1262 l 257
NamedP: "hr00"
EndSplineSet
PickledDataWithLists: "(dp1
S'com.schriftgestaltung.Glyphs.lastChange'
p2
S'2017-07-11 17:15:08 +0000'
p3
s."
EndChar

StartChar: adieresis
Encoding: 162 228 162
GlifName: adieresis
Width: 1233
VWidth: 0
Flags: W
LayerCount: 2
Fore
SplineSet
352 1350 m 258
NamedP: "dv03"
 332 1350 322 1360 322 1380 c 258
NamedP: "sh01"
 322 1522 l 258
 322 1542 332 1552 352 1552 c 258
NamedP: "dv04"
 495 1552 l 258
 515 1552 525 1542 525 1522 c 258
 525 1380 l 258
NamedP: "sh02"
 525 1360 515 1350 495 1350 c 258
 352 1350 l 258
NamedP: "dv03"
744 1350 m 258
NamedP: "sv01"
 724 1350 714 1360 714 1380 c 258
NamedP: "sh03"
 714 1522 l 258
 714 1542 724 1552 744 1552 c 258
NamedP: "sv02"
 886 1552 l 258
 906 1552 916 1542 916 1522 c 258
NamedP: "hr01"
 916 1380 l 258
NamedP: "ih01"
 916 1360 906 1350 886 1350 c 258
 744 1350 l 258
NamedP: "sv01"
513 -29 m 256
NamedP: "dv01"
 397 -29 305 3 238 68 c 256
 174 129 136 210 136 327 c 256
NamedP: "dh01"
 136 450 178 545 262 610 c 256
 345 675 467 707 630 707 c 258
 877 707 l 257
NamedP: "dh03"
 877 736 l 258
 877 821 854 890 809 931 c 256
 765 971 692 991 596 991 c 256
NamedP: "dv05"
 533 991 469 982 405 964 c 256
 340 946 278 920 218 885 c 257
NamedP: "ih02"
 218 1069 l 257
 274 1090 345 1113 414 1128 c 256
 475 1141 536 1147 597 1147 c 256
NamedP: "dv06"
 692 1147 767 1133 834 1105 c 256
 895 1078 953 1037 992 984 c 256
 1020 945 1037 901 1046 860 c 256
 1057 811 1062 738 1062 639 c 258
NamedP: "dh04"
 1062 410 l 257
 1065 333 1064 277 1071 226 c 256
NamedP: "hr02"
 1078 170 1087 116 1094 91 c 256
 1103 50 1118 7 1121 0 c 257
NamedP: "ab01"
 936 0 l 257
 929 16 918 50 909 87 c 256
 902 116 896 149 893 170 c 257
NamedP: "ih03"
 854 103 788 50 729 19 c 256
 665 -14 594 -29 513 -29 c 256
NamedP: "dv01"
551 125 m 256
NamedP: "dv02"
 652 125 731 160 789 231 c 256
 848 303 877 400 877 522 c 258
NamedP: "sh04"
 877 563 l 257
NamedP: "dv07"
 644 563 l 258
 537 563 457 544 402 507 c 256
 345 468 320 412 320 337 c 256
NamedP: "dh02"
 320 268 342 217 381 181 c 256
 420 146 474 125 551 125 c 256
NamedP: "dv02"
EndSplineSet
PickledDataWithLists: "(dp1
S'com.schriftgestaltung.Glyphs.lastChange'
p2
S'2017-07-11 17:15:08 +0000'
p3
s."
EndChar

StartChar: ae
Encoding: 163 230 163
GlifName: ae
Width: 1233
VWidth: 0
Flags: W
LayerCount: 2
Fore
SplineSet
358 -29 m 256
NamedP: "hr00"
 255 -29 177 0 123 57 c 256
 66 117 41 201 41 304 c 256
NamedP: "dh01"
 41 417 70 505 141 568 c 256
 208 627 305 657 432 657 c 258
NamedP: "sv01"
 549 657 l 257
NamedP: "dh05"
 549 745 l 258
 549 905 482 993 357 993 c 256
NamedP: "dv02"
 318 993 273 985 234 972 c 256
 194 959 147 938 106 911 c 257
NamedP: "ih01"
 106 1079 l 257
 157 1102 205 1120 249 1131 c 256
 292 1142 334 1147 376 1147 c 256
NamedP: "dv03"
 437 1147 487 1137 528 1116 c 256
 569 1095 602 1063 627 1020 c 257
NamedP: "ih02"
 671 1101 762 1147 882 1147 c 256
NamedP: "sv02"
 995 1147 1080 1109 1128 1029 c 256
 1176 950 1200 808 1200 604 c 258
NamedP: "dh04"
 1200 514 l 257
NamedP: "dv04"
 709 514 l 257
 708 503 708 493 708 482 c 256
NamedP: "sh01"
 708 478 707 474 707 443 c 256
NamedP: "dh06"
 707 312 726 241 758 196 c 256
 794 145 848 125 923 125 c 256
NamedP: "sv03"
 973 125 1020 134 1064 151 c 256
 1107 168 1145 194 1178 227 c 257
NamedP: "ih03"
 1178 55 l 257
 1098 -3 1023 -29 917 -29 c 256
NamedP: "sv04"
 849 -29 785 -15 736 12 c 256
 686 39 650 79 629 131 c 257
NamedP: "ih04"
 603 78 568 38 524 11 c 256
 479 -16 426 -29 358 -29 c 256
NamedP: "hr00"
1036 657 m 257
NamedP: "dh03"
 1036 709 l 258
 1036 813 1022 884 998 927 c 256
 975 967 935 993 872 993 c 256
NamedP: "sv05"
 756 993 709 909 709 700 c 258
NamedP: "sh02"
 709 657 l 257
 1036 657 l 257
NamedP: "dh03"
375 125 m 256
NamedP: "dv01"
 438 125 481 147 506 192 c 256
 529 235 543 306 543 442 c 258
NamedP: "sh03"
 543 514 l 257
NamedP: "sv06"
 494 514 l 258
 381 514 305 499 265 469 c 256
 225 438 205 385 205 313 c 256
NamedP: "dh02"
 205 252 220 206 250 174 c 256
 280 141 322 125 375 125 c 256
NamedP: "dv01"
EndSplineSet
PickledDataWithLists: "(dp1
S'com.schriftgestaltung.Glyphs.lastChange'
p2
S'2017-07-11 17:15:08 +0000'
p3
s."
EndChar

StartChar: agrave
Encoding: 164 224 164
GlifName: agrave
Width: 1233
VWidth: 0
Flags: W
LayerCount: 2
Fore
SplineSet
282 1673 m 257
NamedP: "ih01"
 480 1673 l 257
 761 1297 l 257
NamedP: "ih02"
 607 1297 l 257
 282 1673 l 257
NamedP: "ih01"
513 -29 m 256
NamedP: "dv01"
 397 -29 305 3 238 68 c 256
 174 129 136 210 136 327 c 256
NamedP: "sh01"
 136 450 178 545 262 610 c 256
 345 675 467 707 630 707 c 258
 877 707 l 257
NamedP: "ah01"
 877 736 l 258
 877 821 854 890 809 931 c 256
 765 971 692 991 596 991 c 256
NamedP: "dv04"
 533 991 469 982 405 964 c 256
NamedP: "hr01"
 340 946 278 920 218 885 c 257
NamedP: "ih03"
 218 1069 l 257
 274 1090 345 1113 414 1128 c 256
 475 1141 536 1147 597 1147 c 256
NamedP: "dv05"
 692 1147 767 1133 834 1105 c 256
 895 1078 953 1037 992 984 c 256
 1020 945 1037 901 1046 860 c 256
 1057 811 1062 738 1062 639 c 258
NamedP: "sh03"
 1062 410 l 257
 1065 333 1064 277 1071 226 c 256
NamedP: "sh04"
 1078 170 1087 116 1094 91 c 256
 1103 50 1118 7 1121 0 c 257
NamedP: "ab01"
 936 0 l 257
 929 16 918 50 909 87 c 256
 902 116 896 149 893 170 c 257
NamedP: "ih04"
 854 103 788 50 729 19 c 256
 665 -14 594 -29 513 -29 c 256
NamedP: "dv01"
551 125 m 256
NamedP: "dv02"
 652 125 731 160 789 231 c 256
 848 303 877 400 877 522 c 258
NamedP: "sh05"
 877 563 l 257
NamedP: "dv03"
 644 563 l 258
 537 563 457 544 402 507 c 256
NamedP: "hr02"
 345 468 320 412 320 337 c 256
NamedP: "sh02"
 320 268 342 217 381 181 c 256
 420 146 474 125 551 125 c 256
NamedP: "dv02"
EndSplineSet
PickledDataWithLists: "(dp1
S'com.schriftgestaltung.Glyphs.lastChange'
p2
S'2017-07-11 17:15:08 +0000'
p3
s."
EndChar

StartChar: alpha
Encoding: 165 945 165
GlifName: alpha
Width: 1233
VWidth: 0
Flags: W
LayerCount: 2
Fore
SplineSet
508 -25 m 256
NamedP: "ab01"
 239 -25 70 188 70 552 c 256
NamedP: "dh01"
 70 960 280 1145 520 1145 c 256
NamedP: "at02"
 702 1145 831 1039 869 827 c 257
NamedP: "iv01"
 968 1120 l 257
NamedP: "at01"
 1132 1120 l 257
NamedP: "iv02"
 927 513 l 257
 967 294 l 257
 978 229 1042 156 1084 156 c 258
NamedP: "sv02"
 1172 156 l 257
 1172 0 l 257
NamedP: "hr01"
 1062 0 l 258
 936 0 850 97 826 214 c 257
NamedP: "iv03"
 765 70 689 -25 508 -25 c 256
NamedP: "ab01"
504 127 m 256
NamedP: "sv03"
 588 127 657 197 705 340 c 258
 766 521 l 257
 722 752 l 258
 690 925 603 991 515 991 c 256
NamedP: "sv01"
 450 991 388 955 341 879 c 256
 290 795 264 676 264 547 c 256
NamedP: "hr02"
 264 269 387 127 504 127 c 256
NamedP: "sv03"
EndSplineSet
PickledDataWithLists: "(dp1
S'com.schriftgestaltung.Glyphs.lastChange'
p2
S'2017-07-11 17:15:08 +0000'
p3
s."
EndChar

StartChar: alphatonos
Encoding: 166 940 166
GlifName: alphatonos
Width: 1233
VWidth: 0
Flags: W
LayerCount: 2
Fore
SplineSet
756 1673 m 257
NamedP: "av01"
 954 1673 l 257
 629 1297 l 257
 475 1297 l 257
NamedP: "iv01"
 756 1673 l 257
NamedP: "av01"
508 -25 m 256
NamedP: "ab01"
 239 -25 70 188 70 552 c 256
NamedP: "dh01"
 70 960 280 1145 520 1145 c 256
NamedP: "at02"
 702 1145 831 1039 869 827 c 257
NamedP: "iv02"
 968 1120 l 257
NamedP: "at01"
 1132 1120 l 257
NamedP: "iv03"
 927 513 l 257
NamedP: "hr01"
 967 294 l 257
 978 229 1042 156 1084 156 c 258
NamedP: "sv02"
 1172 156 l 257
 1172 0 l 257
NamedP: "ab02"
 1062 0 l 258
 936 0 850 97 826 214 c 257
NamedP: "iv04"
 765 70 689 -25 508 -25 c 256
NamedP: "ab01"
504 127 m 256
NamedP: "sv03"
 588 127 657 197 705 340 c 258
 766 521 l 257
NamedP: "hr02"
 722 752 l 258
 690 925 603 991 515 991 c 256
NamedP: "sv01"
 450 991 388 955 341 879 c 256
 290 795 264 676 264 547 c 256
NamedP: "dh02"
 264 269 387 127 504 127 c 256
NamedP: "sv03"
EndSplineSet
PickledDataWithLists: "(dp1
S'com.schriftgestaltung.Glyphs.lastChange'
p2
S'2017-07-11 17:15:08 +0000'
p3
s."
EndChar

StartChar: amacron
Encoding: 167 257 167
GlifName: amacron
Width: 1233
VWidth: 0
Flags: W
LayerCount: 2
Fore
SplineSet
320 1496 m 257
NamedP: "sh03"
 918 1496 l 257
 918 1348 l 257
NamedP: "sv01"
 320 1348 l 257
 320 1496 l 257
NamedP: "sh03"
513 -29 m 256
NamedP: "dv01"
 397 -29 305 3 238 68 c 256
 174 129 136 210 136 327 c 256
NamedP: "sh01"
 136 450 178 545 262 610 c 256
 345 675 467 707 630 707 c 258
 877 707 l 257
NamedP: "ah01"
 877 736 l 258
 877 821 854 890 809 931 c 256
 765 971 692 991 596 991 c 256
NamedP: "dv03"
 533 991 469 982 405 964 c 256
NamedP: "hr01"
 340 946 278 920 218 885 c 257
NamedP: "ih01"
 218 1069 l 257
 274 1090 345 1113 414 1128 c 256
 475 1141 536 1147 597 1147 c 256
NamedP: "dv04"
 692 1147 767 1133 834 1105 c 256
 895 1078 953 1037 992 984 c 256
 1020 945 1037 901 1046 860 c 256
 1057 811 1062 738 1062 639 c 258
NamedP: "sh04"
 1062 410 l 257
 1065 333 1064 277 1071 226 c 256
NamedP: "sh05"
 1078 170 1087 116 1094 91 c 256
 1103 50 1118 7 1121 0 c 257
NamedP: "ab01"
 936 0 l 257
 929 16 918 50 909 87 c 256
 902 116 896 149 893 170 c 257
NamedP: "ih02"
 854 103 788 50 729 19 c 256
 665 -14 594 -29 513 -29 c 256
NamedP: "dv01"
551 125 m 256
NamedP: "dv02"
 652 125 731 160 789 231 c 256
 848 303 877 400 877 522 c 258
NamedP: "sh06"
 877 563 l 257
NamedP: "dv05"
 644 563 l 258
 537 563 457 544 402 507 c 256
NamedP: "hr02"
 345 468 320 412 320 337 c 256
NamedP: "sh02"
 320 268 342 217 381 181 c 256
 420 146 474 125 551 125 c 256
NamedP: "dv02"
EndSplineSet
PickledDataWithLists: "(dp1
S'com.schriftgestaltung.Glyphs.lastChange'
p2
S'2017-07-11 17:15:08 +0000'
p3
s."
EndChar

StartChar: ampersand
Encoding: 168 38 168
GlifName: ampersand
Width: 1233
VWidth: 0
Flags: W
LayerCount: 2
Fore
SplineSet
552 -30 m 256
NamedP: "dv01"
 409 -30 286 22 198 106 c 256
 113 187 56 302 56 439 c 256
NamedP: "dh01"
 56 528 79 619 126 698 c 256
 171 775 241 848 334 915 c 257
 300 964 275 1011 260 1056 c 256
 244 1102 236 1149 236 1197 c 256
NamedP: "sh01"
 236 1302 272 1377 336 1433 c 256
 402 1491 493 1520 608 1520 c 256
NamedP: "at01"
 651 1520 695 1516 739 1508 c 256
NamedP: "at02"
 778 1501 823 1489 874 1473 c 257
 874 1290 l 257
NamedP: "ih01"
 835 1317 791 1337 752 1348 c 256
 711 1360 668 1366 624 1366 c 256
NamedP: "hr01"
 557 1366 505 1351 468 1321 c 256
 431 1291 412 1250 412 1197 c 256
NamedP: "sh02"
 412 1158 422 1118 441 1075 c 256
 460 1035 491 982 547 907 c 258
 963 348 l 257
NamedP: "ih02"
 988 381 1008 422 1021 472 c 256
 1034 523 1040 583 1040 647 c 256
NamedP: "dh03"
 1040 674 1040 706 1037 753 c 258
NamedP: "sh03"
 1036 760 l 257
 1200 760 l 257
 1200 721 l 258
NamedP: "dh04"
 1200 613 1188 519 1163 439 c 256
 1139 360 1102 289 1051 229 c 257
 1221 0 l 257
NamedP: "ab01"
 1008 0 l 257
 930 109 l 257
 877 64 821 29 753 5 c 256
NamedP: "ab02"
 697 -15 628 -30 552 -30 c 256
NamedP: "dv01"
585 125 m 256
NamedP: "dv02"
 618 125 645 129 676 137 c 256
 709 146 739 157 766 172 c 256
 782 181 797 190 811 199 c 256
 840 217 834 216 844 223 c 257
 416 803 l 257
 354 753 308 702 279 649 c 256
 248 594 233 536 233 473 c 256
NamedP: "dh02"
 233 377 265 292 332 225 c 256
 395 162 482 125 585 125 c 256
NamedP: "dv02"
EndSplineSet
PickledDataWithLists: "(dp1
S'com.schriftgestaltung.Glyphs.lastChange'
p2
S'2017-07-11 17:15:08 +0000'
p3
s."
EndChar

StartChar: angle
Encoding: 169 8736 169
GlifName: angle
Width: 1233
VWidth: 0
Flags: W
LayerCount: 2
Fore
SplineSet
918 1269 m 257
NamedP: "hr00"
 1088 1269 l 257
 432 457 l 257
 1108 457 l 257
NamedP: "dv02"
 1108 287 l 257
NamedP: "dv01"
 126 287 l 257
 918 1269 l 257
NamedP: "hr00"
EndSplineSet
PickledDataWithLists: "(dp1
S'com.schriftgestaltung.Glyphs.lastChange'
p2
S'2017-07-11 17:15:08 +0000'
p3
s."
EndChar

StartChar: aogonek
Encoding: 170 261 170
GlifName: aogonek
Width: 1233
VWidth: 0
Flags: W
LayerCount: 2
Fore
SplineSet
1078 -269 m 256
NamedP: "dv02"
 1119 -269 1161 -259 1202 -239 c 257
NamedP: "dh04"
 1202 -372 l 257
 1146 -387 1108 -392 1059 -392 c 256
NamedP: "dv01"
 910 -392 829 -337 829 -218 c 256
NamedP: "dh03"
 829 -152 855 -92 935 1 c 257
NamedP: "ab01"
 928 18 918 51 909 87 c 256
 902 116 896 149 893 170 c 257
NamedP: "ih01"
 854 103 788 50 729 19 c 256
 665 -14 594 -29 513 -29 c 256
NamedP: "hr01"
 397 -29 305 3 238 68 c 256
 174 129 136 210 136 327 c 256
NamedP: "dh01"
 136 450 178 545 262 610 c 256
 345 675 467 707 630 707 c 258
 877 707 l 257
NamedP: "hr02"
 877 736 l 258
 877 821 854 890 809 931 c 256
 765 971 692 991 596 991 c 256
NamedP: "dv03"
 533 991 469 982 405 964 c 256
 340 946 278 920 218 885 c 257
NamedP: "ih02"
 218 1069 l 257
 274 1090 345 1113 414 1128 c 256
 475 1141 536 1147 597 1147 c 256
NamedP: "dv04"
 692 1147 767 1133 834 1105 c 256
 895 1078 953 1037 992 984 c 256
 1020 945 1037 901 1046 860 c 256
 1057 811 1062 738 1062 639 c 258
NamedP: "sh01"
 1062 410 l 257
 1065 333 1064 277 1071 226 c 256
NamedP: "sh02"
 1078 170 1087 116 1094 91 c 256
 1103 50 1118 7 1121 0 c 257
NamedP: "ih03"
 1054 0 l 257
 991 -85 968 -137 968 -181 c 256
NamedP: "sh03"
 968 -237 1006 -269 1078 -269 c 256
NamedP: "dv02"
877 563 m 257
NamedP: "sh04"
 644 563 l 258
 537 563 457 544 402 507 c 256
 345 468 320 412 320 337 c 256
NamedP: "dh02"
 320 268 342 217 381 181 c 256
NamedP: "hr03"
 420 146 474 125 551 125 c 256
NamedP: "dv05"
 652 125 731 160 789 231 c 256
 848 303 877 400 877 522 c 258
 877 563 l 257
NamedP: "sh04"
EndSplineSet
PickledDataWithLists: "(dp1
S'com.schriftgestaltung.Glyphs.lastChange'
p2
S'2017-07-11 17:15:08 +0000'
p3
s."
EndChar

StartChar: approxequal
Encoding: 171 8776 171
GlifName: approxequal
Width: 1233
VWidth: 0
Flags: W
LayerCount: 2
Fore
SplineSet
88 848 m 257
NamedP: "hr00"
 140 888 194 919 239 936 c 256
 287 955 335 963 407 963 c 256
NamedP: "hr01"
 430 963 448 962 498 951 c 256
 544 940 564 933 623 909 c 256
 647 898 634 905 655 894 c 256
 718 863 798 840 866 840 c 256
NamedP: "hr02"
 911 840 957 850 1003 870 c 256
 1046 889 1098 923 1145 963 c 257
 1145 788 l 257
NamedP: "hr03"
 1095 749 1046 721 999 702 c 256
 951 683 901 674 850 674 c 256
NamedP: "hr04"
 775 674 718 694 645 725 c 258
 612 739 l 258
 548 766 527 774 484 785 c 256
 449 793 415 797 382 797 c 256
NamedP: "hr05"
 327 797 275 787 232 768 c 256
NamedP: "hr06"
 191 751 139 719 88 674 c 257
 88 848 l 257
NamedP: "hr00"
88 479 m 257
 141 520 195 552 240 569 c 256
 283 585 337 596 392 596 c 256
NamedP: "hr07"
 459 596 535 578 621 541 c 257
 622 541 l 257
 655 526 l 258
 735 490 794 471 862 471 c 256
NamedP: "hr08"
 917 471 958 483 1001 502 c 256
 1046 522 1089 549 1145 596 c 257
 1145 420 l 257
NamedP: "hr09"
 1094 381 1044 352 999 333 c 256
 951 314 899 305 851 305 c 256
NamedP: "hr10"
 786 305 721 321 645 356 c 258
 612 371 l 258
 572 389 512 411 480 419 c 256
 455 426 414 430 379 430 c 256
NamedP: "hr11"
 328 430 280 420 233 400 c 256
NamedP: "hr12"
 186 380 137 348 88 305 c 257
 88 479 l 257
EndSplineSet
PickledDataWithLists: "(dp1
S'com.schriftgestaltung.Glyphs.lastChange'
p2
S'2017-07-11 17:15:08 +0000'
p3
s."
EndChar

StartChar: aring
Encoding: 172 229 172
GlifName: aring
Width: 1233
VWidth: 0
Flags: W
LayerCount: 2
Fore
SplineSet
619 1249 m 256
NamedP: "dv05"
 543 1249 478 1276 425 1329 c 256
 372 1382 345 1447 345 1524 c 256
NamedP: "dh05"
 345 1601 372 1666 425 1719 c 256
 478 1772 542 1798 619 1798 c 256
NamedP: "dv04"
 697 1798 762 1772 815 1719 c 256
 868 1666 894 1601 894 1524 c 256
NamedP: "ih01"
 894 1447 868 1382 815 1329 c 256
 762 1276 696 1249 619 1249 c 256
NamedP: "dv05"
619 1372 m 256
NamedP: "dv06"
 704 1372 771 1439 771 1524 c 256
NamedP: "sh01"
 771 1608 705 1675 618 1675 c 256
NamedP: "dv03"
 576 1675 541 1661 512 1632 c 256
NamedP: "hr01"
 483 1603 468 1567 468 1524 c 256
NamedP: "dh06"
 468 1439 535 1372 619 1372 c 256
NamedP: "dv06"
513 -29 m 256
NamedP: "dv01"
 397 -29 305 3 238 68 c 256
 174 129 136 210 136 327 c 256
NamedP: "dh01"
 136 450 178 545 262 610 c 256
 345 675 467 707 630 707 c 258
 877 707 l 257
NamedP: "dh03"
 877 736 l 258
 877 821 854 890 809 931 c 256
 765 971 692 991 596 991 c 256
NamedP: "dv08"
 533 991 469 982 405 964 c 256
 340 946 278 920 218 885 c 257
NamedP: "ih02"
 218 1069 l 257
 274 1090 345 1113 414 1128 c 256
 475 1141 536 1147 597 1147 c 256
NamedP: "dv09"
 692 1147 767 1133 834 1105 c 256
 895 1078 953 1037 992 984 c 256
 1020 945 1037 901 1046 860 c 256
 1057 811 1062 738 1062 639 c 258
NamedP: "dh04"
 1062 410 l 257
 1065 333 1064 277 1071 226 c 256
NamedP: "hr02"
 1078 170 1087 116 1094 91 c 256
 1103 50 1118 7 1121 0 c 257
NamedP: "ab01"
 936 0 l 257
 929 16 918 50 909 87 c 256
 902 116 896 149 893 170 c 257
NamedP: "sh02"
 854 103 788 50 729 19 c 256
 665 -14 594 -29 513 -29 c 256
NamedP: "dv01"
551 125 m 256
NamedP: "dv02"
 652 125 731 160 789 231 c 256
 848 303 877 400 877 522 c 258
NamedP: "sh03"
 877 563 l 257
NamedP: "dv07"
 644 563 l 258
 537 563 457 544 402 507 c 256
 345 468 320 412 320 337 c 256
NamedP: "dh02"
 320 268 342 217 381 181 c 256
 420 146 474 125 551 125 c 256
NamedP: "dv02"
EndSplineSet
PickledDataWithLists: "(dp1
S'com.schriftgestaltung.Glyphs.lastChange'
p2
S'2017-07-11 17:15:08 +0000'
p3
s."
EndChar

StartChar: arrowboth
Encoding: 173 8596 173
GlifName: arrowboth
Width: 1233
VWidth: 0
Flags: W
LayerCount: 2
Fore
SplineSet
66 520 m 257
NamedP: "hr00"
 66 602 l 257
 357 893 l 257
NamedP: "av03"
 447 803 l 257
 287 643 l 257
 946 643 l 257
NamedP: "dv02"
 786 803 l 257
 876 893 l 257
NamedP: "av04"
 1167 602 l 257
 1167 520 l 257
 876 229 l 257
NamedP: "av01"
 786 319 l 257
 946 479 l 257
NamedP: "dv01"
 287 479 l 257
 447 319 l 257
 357 229 l 257
NamedP: "av02"
 66 520 l 257
NamedP: "hr00"
EndSplineSet
PickledDataWithLists: "(dp1
S'com.schriftgestaltung.Glyphs.lastChange'
p2
S'2017-07-11 17:15:08 +0000'
p3
s."
EndChar

StartChar: arrowdblboth
Encoding: 174 8660 174
GlifName: arrowdblboth
Width: 1233
VWidth: 0
Flags: W
LayerCount: 2
Fore
SplineSet
66 520 m 257
NamedP: "hr00"
 66 602 l 257
 357 893 l 257
NamedP: "av03"
 447 803 l 257
 369 725 l 257
 864 725 l 257
NamedP: "dv04"
 786 803 l 257
 876 893 l 257
NamedP: "av04"
 1167 602 l 257
 1167 520 l 257
 876 229 l 257
NamedP: "av01"
 786 319 l 257
 864 397 l 257
NamedP: "dv01"
 369 397 l 257
 447 319 l 257
 357 229 l 257
NamedP: "av02"
 66 520 l 257
NamedP: "hr00"
946 479 m 257
NamedP: "dv02"
 1028 561 l 257
 946 643 l 257
NamedP: "dv03"
 287 643 l 257
 205 561 l 257
 287 479 l 257
 946 479 l 257
NamedP: "dv02"
EndSplineSet
PickledDataWithLists: "(dp1
S'com.schriftgestaltung.Glyphs.lastChange'
p2
S'2017-07-11 17:15:08 +0000'
p3
s."
EndChar

StartChar: arrowdbldown
Encoding: 175 8659 175
GlifName: arrowdbldown
Width: 1233
VWidth: 0
Flags: W
LayerCount: 2
Fore
SplineSet
284 291 m 257
NamedP: "hr00"
 374 381 l 257
 452 303 l 257
NamedP: "sh01"
 452 1101 l 257
NamedP: "av01"
 534 1101 l 257
 534 221 l 257
NamedP: "sh02"
 616 139 l 257
 699 221 l 257
 698 1101 l 257
NamedP: "ah01"
 780 1101 l 257
NamedP: "sh03"
 780 303 l 257
NamedP: "iv01"
 858 381 l 257
 948 291 l 257
 658 0 l 257
NamedP: "ab01"
 576 0 l 257
 284 291 l 257
NamedP: "hr00"
EndSplineSet
PickledDataWithLists: "(dp1
S'com.schriftgestaltung.Glyphs.lastChange'
p2
S'2017-07-11 17:15:08 +0000'
p3
s."
EndChar

StartChar: arrowdblleft
Encoding: 176 8656 176
GlifName: arrowdblleft
Width: 1233
VWidth: 0
Flags: W
LayerCount: 2
Fore
SplineSet
66 520 m 257
NamedP: "hr00"
 66 602 l 257
 357 893 l 257
NamedP: "av02"
 447 803 l 257
 369 725 l 257
 1167 725 l 257
NamedP: "dv04"
 1167 643 l 257
NamedP: "dv03"
 287 643 l 257
 205 561 l 257
 287 479 l 257
 1167 479 l 257
NamedP: "dv02"
 1167 397 l 257
NamedP: "dv01"
 369 397 l 257
 447 319 l 257
 357 229 l 257
NamedP: "av01"
 66 520 l 257
NamedP: "hr00"
EndSplineSet
PickledDataWithLists: "(dp1
S'com.schriftgestaltung.Glyphs.lastChange'
p2
S'2017-07-11 17:15:08 +0000'
p3
s."
EndChar

StartChar: arrowdblright
Encoding: 177 8658 177
GlifName: arrowdblright
Width: 1233
VWidth: 0
Flags: W
LayerCount: 2
Fore
SplineSet
786 319 m 257
NamedP: "hr00"
 864 397 l 257
NamedP: "dv01"
 66 397 l 257
 66 479 l 257
 946 479 l 257
NamedP: "dv02"
 1028 561 l 257
 946 643 l 257
NamedP: "dv03"
 66 643 l 257
 66 725 l 257
 864 725 l 257
NamedP: "dv04"
 786 803 l 257
 876 893 l 257
NamedP: "av02"
 1167 602 l 257
 1167 520 l 257
 876 229 l 257
NamedP: "av01"
 786 319 l 257
NamedP: "hr00"
EndSplineSet
PickledDataWithLists: "(dp1
S'com.schriftgestaltung.Glyphs.lastChange'
p2
S'2017-07-11 17:15:08 +0000'
p3
s."
EndChar

StartChar: arrowdblup
Encoding: 178 8657 178
GlifName: arrowdblup
Width: 1233
VWidth: 0
Flags: W
LayerCount: 2
Fore
SplineSet
452 798 m 257
NamedP: "hr00"
 374 720 l 257
 284 810 l 257
 576 1101 l 257
NamedP: "av01"
 658 1101 l 257
 948 810 l 257
 858 720 l 257
 780 798 l 257
NamedP: "iv01"
 780 0 l 257
NamedP: "sh01"
 698 0 l 257
NamedP: "ah01"
 699 880 l 257
 616 962 l 257
 534 880 l 257
NamedP: "sh02"
 534 0 l 257
NamedP: "ab01"
 452 0 l 257
 452 798 l 257
NamedP: "hr00"
EndSplineSet
PickledDataWithLists: "(dp1
S'com.schriftgestaltung.Glyphs.lastChange'
p2
S'2017-07-11 17:15:08 +0000'
p3
s."
EndChar

StartChar: arrowdown
Encoding: 179 8595 179
GlifName: arrowdown
Width: 1233
VWidth: 0
Flags: W
LayerCount: 2
Fore
SplineSet
284 291 m 257
NamedP: "hr00"
 374 381 l 257
 534 221 l 257
NamedP: "dh01"
 534 1101 l 257
NamedP: "av01"
 698 1101 l 257
 698 221 l 257
NamedP: "dh02"
 858 381 l 257
 948 291 l 257
 658 0 l 257
NamedP: "ab01"
 576 0 l 257
 284 291 l 257
NamedP: "hr00"
EndSplineSet
PickledDataWithLists: "(dp1
S'com.schriftgestaltung.Glyphs.lastChange'
p2
S'2017-07-11 17:15:08 +0000'
p3
s."
EndChar

StartChar: arrowleft
Encoding: 180 8592 180
GlifName: arrowleft
Width: 1233
VWidth: 0
Flags: W
LayerCount: 2
Fore
SplineSet
66 667 m 257
NamedP: "hr00"
 66 749 l 257
 357 1040 l 257
NamedP: "av02"
 447 950 l 257
 287 790 l 257
 1233 790 l 257
NamedP: "dv02"
 1233 618 l 257
NamedP: "dv01"
 287 618 l 257
 447 466 l 257
 357 376 l 257
NamedP: "av01"
 66 667 l 257
NamedP: "hr00"
EndSplineSet
PickledDataWithLists: "(dp1
S'com.schriftgestaltung.Glyphs.lastChange'
p2
S'2017-07-11 17:15:08 +0000'
p3
s."
EndChar

StartChar: arrowright
Encoding: 181 8594 181
GlifName: arrowright
Width: 1233
VWidth: 0
Flags: W
LayerCount: 2
Fore
SplineSet
786 466 m 257
NamedP: "hr00"
 946 618 l 257
NamedP: "dv01"
 0 618 l 257
 0 790 l 257
 946 790 l 257
NamedP: "dv02"
 786 950 l 257
 876 1040 l 257
NamedP: "av02"
 1167 749 l 257
 1167 667 l 257
 876 376 l 257
NamedP: "av01"
 786 466 l 257
NamedP: "hr00"
EndSplineSet
PickledDataWithLists: "(dp1
S'com.schriftgestaltung.Glyphs.lastChange'
p2
S'2017-07-11 17:15:08 +0000'
p3
s."
EndChar

StartChar: arrowup
Encoding: 182 8593 182
GlifName: arrowup
Width: 1233
VWidth: 0
Flags: W
LayerCount: 2
Fore
SplineSet
534 880 m 257
NamedP: "hr00"
 374 720 l 257
 284 810 l 257
 576 1101 l 257
NamedP: "av01"
 658 1101 l 257
 948 810 l 257
 858 720 l 257
 698 880 l 257
NamedP: "dh01"
 698 0 l 257
NamedP: "ab01"
 534 0 l 257
 534 880 l 257
NamedP: "hr00"
EndSplineSet
PickledDataWithLists: "(dp1
S'com.schriftgestaltung.Glyphs.lastChange'
p2
S'2017-07-11 17:15:08 +0000'
p3
s."
EndChar

StartChar: arrowupdn
Encoding: 183 8597 183
GlifName: arrowupdn
Width: 1233
VWidth: 0
Flags: W
LayerCount: 2
Fore
SplineSet
284 291 m 257
NamedP: "hr00"
 374 381 l 257
 534 221 l 257
NamedP: "dh01"
 534 880 l 257
NamedP: "iv01"
 374 720 l 257
 284 810 l 257
 576 1101 l 257
NamedP: "av01"
 658 1101 l 257
 948 810 l 257
 858 720 l 257
 698 880 l 257
NamedP: "iv02"
 698 221 l 257
NamedP: "dh02"
 858 381 l 257
 948 291 l 257
 658 0 l 257
NamedP: "ab01"
 576 0 l 257
 284 291 l 257
NamedP: "hr00"
EndSplineSet
PickledDataWithLists: "(dp1
S'com.schriftgestaltung.Glyphs.lastChange'
p2
S'2017-07-11 17:15:08 +0000'
p3
s."
EndChar

StartChar: arrowupdnbse
Encoding: 184 8616 184
GlifName: arrowupdnbse
Width: 1233
VWidth: 0
Flags: W
LayerCount: 2
Fore
SplineSet
284 164 m 257
NamedP: "hr00"
 534 164 l 257
NamedP: "dh01"
 284 414 l 257
 374 504 l 257
 534 344 l 257
NamedP: "sh01"
 534 880 l 257
NamedP: "iv01"
 374 720 l 257
 284 810 l 257
 576 1101 l 257
NamedP: "av01"
 658 1101 l 257
 948 810 l 257
 858 720 l 257
 698 880 l 257
NamedP: "sh02"
 698 344 l 257
NamedP: "iv02"
 858 504 l 257
 948 414 l 257
 698 164 l 257
NamedP: "dh02"
 948 164 l 257
NamedP: "sv01"
 948 0 l 257
NamedP: "ab01"
 284 0 l 257
 284 164 l 257
NamedP: "hr00"
EndSplineSet
PickledDataWithLists: "(dp1
S'com.schriftgestaltung.Glyphs.lastChange'
p2
S'2017-07-11 17:15:08 +0000'
p3
s."
EndChar

StartChar: asciicircum
Encoding: 185 94 185
GlifName: asciicircum
Width: 1233
VWidth: 0
Flags: W
LayerCount: 2
Fore
SplineSet
528 1493 m 257
NamedP: "hr00"
 705 1493 l 257
 1161 936 l 257
NamedP: "av01"
 983 936 l 257
 616 1331 l 257
 250 936 l 257
NamedP: "av02"
 72 936 l 257
 528 1493 l 257
NamedP: "hr00"
EndSplineSet
PickledDataWithLists: "(dp1
S'com.schriftgestaltung.Glyphs.lastChange'
p2
S'2017-07-11 17:15:08 +0000'
p3
s."
EndChar

StartChar: asciitilde
Encoding: 186 126 186
GlifName: asciitilde
Width: 1233
VWidth: 0
Flags: W
LayerCount: 2
Fore
SplineSet
1151 840 m 257
NamedP: "hr00"
 1146 691 1132 586 1083 499 c 257
 1035 402 956 354 846 354 c 256
 793 354 748 365 709 388 c 257
 674 410 632 455 583 522 c 256
 531 594 493 640 468 659 c 256
 441 678 416 688 391 688 c 256
 340 688 303 664 282 616 c 257
 259 560 245 475 240 361 c 257
 84 361 l 257
 87 500 110 613 152 701 c 257
 207 796 285 844 386 844 c 256
 435 844 479 832 518 809 c 256
 558 785 606 739 649 679 c 256
 685 630 720 588 754 554 c 256
NamedP: "hr01"
 782 525 809 510 842 510 c 256
 949 510 992 617 995 840 c 257
 1151 840 l 257
NamedP: "hr00"
EndSplineSet
PickledDataWithLists: "(dp1
S'com.schriftgestaltung.Glyphs.lastChange'
p2
S'2017-07-11 17:15:08 +0000'
p3
s."
EndChar

StartChar: asterisk
Encoding: 187 42 187
GlifName: asterisk
Width: 1233
VWidth: 0
Flags: W
LayerCount: 2
Fore
SplineSet
250 486 m 257
NamedP: "hr00"
 492 857 l 257
 128 1015 l 257
 164 1118 l 257
 540 995 l 257
NamedP: "iv01"
 560 1420 l 257
NamedP: "at01"
 668 1420 l 257
 688 995 l 257
NamedP: "iv02"
 1064 1118 l 257
 1100 1015 l 257
 736 857 l 257
 978 486 l 257
 884 419 l 257
NamedP: "av01"
 614 776 l 257
NamedP: "iv03"
 344 419 l 257
NamedP: "av02"
 250 486 l 257
NamedP: "hr00"
EndSplineSet
PickledDataWithLists: "(dp1
S'com.schriftgestaltung.Glyphs.lastChange'
p2
S'2017-07-11 17:15:08 +0000'
p3
s."
EndChar

StartChar: asteriskmath
Encoding: 188 8727 188
GlifName: asteriskmath
Width: 1233
VWidth: 0
Flags: W
LayerCount: 2
Fore
SplineSet
559 552 m 257
NamedP: "hr00"
 223 349 l 257
 166 447 l 257
 524 642 l 257
NamedP: "iv01"
 166 836 l 257
 223 935 l 257
 559 732 l 257
NamedP: "sh01"
 559 1109 l 257
NamedP: "av02"
 674 1109 l 257
NamedP: "sh02"
 674 732 l 257
NamedP: "iv02"
 1010 935 l 257
 1067 836 l 257
 709 642 l 257
NamedP: "iv03"
 1067 447 l 257
 1010 349 l 257
 674 552 l 257
NamedP: "dh01"
 674 175 l 257
NamedP: "av01"
 559 175 l 257
 559 552 l 257
NamedP: "hr00"
EndSplineSet
PickledDataWithLists: "(dp1
S'com.schriftgestaltung.Glyphs.lastChange'
p2
S'2017-07-11 17:15:08 +0000'
p3
s."
EndChar

StartChar: at
Encoding: 189 64 189
GlifName: at
Width: 1233
VWidth: 0
Flags: W
LayerCount: 2
Fore
SplineSet
796 -319 m 256
NamedP: "hr00"
 577 -319 379 -244 236 -87 c 256
 101 62 27 275 27 547 c 256
NamedP: "dh01"
 27 798 89 1011 214 1164 c 256
 342 1321 518 1395 709 1395 c 256
NamedP: "dv03"
 1006 1395 1178 1205 1178 905 c 258
 1178 135 l 257
NamedP: "dh06"
 1034 135 l 257
NamedP: "dh05"
 1034 246 l 257
NamedP: "iv01"
 1009 205 975 172 932 149 c 256
 889 126 840 115 785 115 c 256
NamedP: "dv04"
 678 115 585 158 517 235 c 256
 453 307 412 414 412 546 c 256
NamedP: "dh03"
 412 667 446 773 517 854 c 256
 590 938 685 975 782 975 c 256
NamedP: "dv07"
 838 975 886 963 931 940 c 256
 976 917 1010 885 1034 844 c 257
NamedP: "sh01"
 1034 907 l 258
 1034 1011 1003 1099 947 1159 c 256
 891 1220 809 1253 702 1253 c 256
NamedP: "dv02"
 553 1253 419 1190 322 1062 c 256
 227 938 176 764 176 549 c 256
NamedP: "dh02"
 176 322 233 143 340 18 c 256
 444 -106 595 -176 778 -176 c 256
NamedP: "dv01"
 854 -176 922 -164 999 -135 c 257
 1047 -270 l 257
 1002 -289 963 -299 923 -307 c 256
 882 -315 847 -319 796 -319 c 256
NamedP: "hr00"
803 260 m 256
NamedP: "dv05"
 946 260 1038 374 1038 545 c 256
NamedP: "sh02"
 1038 629 1017 702 974 753 c 256
 933 802 873 829 802 829 c 256
NamedP: "dv06"
 732 829 675 803 632 752 c 256
 589 701 567 633 567 546 c 256
NamedP: "dh04"
 567 458 589 388 632 337 c 256
 675 286 732 260 803 260 c 256
NamedP: "dv05"
EndSplineSet
PickledDataWithLists: "(dp1
S'com.schriftgestaltung.Glyphs.lastChange'
p2
S'2017-07-11 17:15:08 +0000'
p3
s."
EndChar

StartChar: atilde
Encoding: 190 227 190
GlifName: atilde
Width: 1233
VWidth: 0
Flags: W
LayerCount: 2
Fore
SplineSet
290 1339 m 257
NamedP: "hr00"
 291 1429 309 1498 342 1547 c 256
 376 1596 423 1621 483 1621 c 256
NamedP: "dv04"
 509 1621 533 1616 555 1607 c 256
 575 1598 598 1583 624 1560 c 257
 681 1505 l 258
NamedP: "at01"
 696 1492 711 1481 719 1476 c 256
 732 1468 738 1466 749 1466 c 256
 774 1466 793 1478 805 1503 c 256
NamedP: "at02"
 816 1527 823 1566 824 1621 c 257
NamedP: "sv01"
 949 1621 l 257
 948 1531 930 1462 897 1413 c 256
 863 1364 816 1339 756 1339 c 256
NamedP: "sv02"
 730 1339 706 1344 684 1353 c 256
NamedP: "hr01"
 664 1362 641 1377 615 1400 c 257
 558 1455 l 258
 541 1471 528 1480 520 1485 c 256
NamedP: "at03"
 508 1492 501 1494 490 1494 c 256
NamedP: "at04"
 465 1494 446 1482 434 1457 c 256
 421 1431 415 1392 414 1339 c 257
NamedP: "dv03"
 290 1339 l 257
NamedP: "hr00"
513 -29 m 256
NamedP: "dv01"
 397 -29 305 3 238 68 c 256
 174 129 136 210 136 327 c 256
NamedP: "sh01"
 136 450 178 545 262 610 c 256
 345 675 467 707 630 707 c 258
 877 707 l 257
NamedP: "ah01"
 877 736 l 258
 877 821 854 890 809 931 c 256
 765 971 692 991 596 991 c 256
NamedP: "dv06"
 533 991 469 982 405 964 c 256
 340 946 278 920 218 885 c 257
NamedP: "ih01"
 218 1069 l 257
 274 1090 345 1113 414 1128 c 256
 475 1141 536 1147 597 1147 c 256
NamedP: "dv07"
 692 1147 767 1133 834 1105 c 256
 895 1078 953 1037 992 984 c 256
NamedP: "hr02"
 1020 945 1037 901 1046 860 c 256
 1057 811 1062 738 1062 639 c 258
NamedP: "sh03"
 1062 410 l 257
NamedP: "hr03"
 1065 333 1064 277 1071 226 c 256
NamedP: "sh04"
 1078 170 1087 116 1094 91 c 256
 1103 50 1118 7 1121 0 c 257
NamedP: "ab01"
 936 0 l 257
 929 16 918 50 909 87 c 256
NamedP: "hr04"
 902 116 896 149 893 170 c 257
NamedP: "ih02"
 854 103 788 50 729 19 c 256
 665 -14 594 -29 513 -29 c 256
NamedP: "dv01"
551 125 m 256
NamedP: "dv02"
 652 125 731 160 789 231 c 256
 848 303 877 400 877 522 c 258
NamedP: "sh05"
 877 563 l 257
NamedP: "dv05"
 644 563 l 258
 537 563 457 544 402 507 c 256
 345 468 320 412 320 337 c 256
NamedP: "sh02"
 320 268 342 217 381 181 c 256
 420 146 474 125 551 125 c 256
NamedP: "dv02"
EndSplineSet
PickledDataWithLists: "(dp1
S'com.schriftgestaltung.Glyphs.lastChange'
p2
S'2017-07-11 17:15:08 +0000'
p3
s."
EndChar

StartChar: b
Encoding: 191 98 191
GlifName: b
Width: 1233
VWidth: 0
Flags: W
LayerCount: 2
Fore
SplineSet
676 -29 m 256
NamedP: "dv01"
 608 -29 555 -16 500 15 c 256
 449 44 408 86 377 141 c 257
NamedP: "sh02"
 359 0 l 257
NamedP: "ab01"
 193 0 l 257
NamedP: "sh01"
 193 1556 l 257
NamedP: "at01"
 377 1556 l 257
NamedP: "sh03"
 377 977 l 257
NamedP: "ih01"
 406 1032 446 1074 499 1103 c 256
 550 1132 611 1147 680 1147 c 256
NamedP: "dv04"
 808 1147 917 1097 996 993 c 256
 1073 889 1112 742 1112 561 c 256
NamedP: "sh04"
 1112 378 1073 234 996 129 c 256
 920 25 813 -29 676 -29 c 256
NamedP: "dv01"
650 127 m 256
NamedP: "dv02"
 739 127 805 163 850 236 c 256
 895 309 918 417 918 559 c 256
NamedP: "ah01"
 918 701 895 809 850 882 c 256
 805 955 738 991 649 991 c 256
NamedP: "dv03"
 560 991 492 955 446 882 c 256
NamedP: "hr01"
 400 809 377 701 377 559 c 256
NamedP: "sh05"
 377 417 400 310 446 237 c 256
 492 164 560 127 650 127 c 256
NamedP: "dv02"
EndSplineSet
PickledDataWithLists: "(dp1
S'com.schriftgestaltung.Glyphs.lastChange'
p2
S'2017-07-11 17:15:08 +0000'
p3
s."
EndChar

StartChar: backslash
Encoding: 192 92 192
GlifName: backslash
Width: 1233
VWidth: 0
Flags: W
LayerCount: 2
Fore
SplineSet
128 1493 m 257
NamedP: "hr00"
 319 1493 l 257
 1105 -190 l 257
NamedP: "av01"
 915 -190 l 257
 128 1493 l 257
NamedP: "hr00"
EndSplineSet
PickledDataWithLists: "(dp1
S'com.schriftgestaltung.Glyphs.lastChange'
p2
S'2017-07-11 17:15:08 +0000'
p3
s."
EndChar

StartChar: bar
Encoding: 193 124 193
GlifName: bar
Width: 1233
VWidth: 0
Flags: W
LayerCount: 2
Fore
SplineSet
530 1565 m 257
NamedP: "hr00"
 702 1565 l 257
NamedP: "dh01"
 702 -483 l 257
NamedP: "av01"
 530 -483 l 257
 530 1565 l 257
NamedP: "hr00"
EndSplineSet
PickledDataWithLists: "(dp1
S'com.schriftgestaltung.Glyphs.lastChange'
p2
S'2017-07-11 17:15:08 +0000'
p3
s."
EndChar

StartChar: beta
Encoding: 194 946 194
GlifName: beta
Width: 1233
VWidth: 0
Flags: W
LayerCount: 2
Fore
SplineSet
152 1113 m 258
NamedP: "dh01"
 152 1433 361 1571 574 1571 c 256
NamedP: "at01"
 774 1571 1012 1451 1012 1163 c 256
NamedP: "dh03"
 1012 1021 955 872 840 810 c 257
NamedP: "ih01"
 1013 775 1123 600 1123 417 c 256
NamedP: "sh02"
 1123 165 918 -18 638 -21 c 257
NamedP: "ab02"
 540 -21 459 0 337 69 c 257
NamedP: "hr01"
 337 -426 l 257
NamedP: "ab01"
 152 -426 l 257
 152 1113 l 258
NamedP: "dh01"
337 342 m 257
 390 249 538 178 670 178 c 256
NamedP: "sv01"
 809 178 933 256 933 440 c 256
NamedP: "sh01"
 933 624 806 712 541 712 c 256
NamedP: "dv01"
 513 712 492 711 469 710 c 257
 469 880 l 257
NamedP: "dv02"
 705 872 832 988 832 1154 c 256
NamedP: "hr02"
 832 1327 693 1381 589 1381 c 256
NamedP: "sv02"
 462 1381 337 1302 337 1107 c 258
NamedP: "dh02"
 337 342 l 257
EndSplineSet
PickledDataWithLists: "(dp1
S'com.schriftgestaltung.Glyphs.lastChange'
p2
S'2017-07-11 17:15:08 +0000'
p3
s."
EndChar

StartChar: block
Encoding: 195 9608 195
GlifName: block
Width: 1233
VWidth: 0
Flags: W
LayerCount: 2
Fore
SplineSet
0 1950 m 257
NamedP: "hr00"
 1233 1950 l 257
 1233 -512 l 257
 0 -512 l 257
 0 1950 l 257
NamedP: "hr00"
EndSplineSet
PickledDataWithLists: "(dp1
S'com.schriftgestaltung.Glyphs.lastChange'
p2
S'2017-07-11 17:15:08 +0000'
p3
s."
EndChar

StartChar: braceleft
Encoding: 196 123 196
GlifName: braceleft
Width: 1233
VWidth: 0
Flags: W
LayerCount: 2
Fore
SplineSet
908 -253 m 258
NamedP: "hr00"
 743 -253 632 -228 575 -179 c 256
 518 -130 490 -32 490 116 c 258
 490 355 l 258
 490 455 472 525 437 564 c 256
 401 603 336 622 243 622 c 258
NamedP: "dv04"
 127 622 l 257
 127 765 l 257
 243 765 l 258
NamedP: "dv05"
 337 765 402 784 437 822 c 256
 472 861 490 930 490 1029 c 258
 490 1269 l 258
 490 1417 518 1515 575 1564 c 256
 630 1613 741 1637 908 1637 c 258
 972 1637 l 257
NamedP: "dv03"
 972 1494 l 257
NamedP: "dv02"
 902 1494 l 258
 809 1494 748 1480 720 1451 c 256
 691 1422 677 1360 677 1265 c 258
 677 1017 l 258
 677 912 662 836 632 789 c 256
 603 744 551 710 476 693 c 257
NamedP: "iv01"
 624 657 677 576 677 368 c 258
 677 120 l 258
 677 25 691 -37 720 -66 c 256
 748 -95 809 -109 902 -109 c 258
NamedP: "dv01"
 972 -109 l 257
 972 -253 l 257
NamedP: "sv01"
 908 -253 l 258
NamedP: "hr00"
EndSplineSet
PickledDataWithLists: "(dp1
S'com.schriftgestaltung.Glyphs.lastChange'
p2
S'2017-07-11 17:15:08 +0000'
p3
s."
EndChar

StartChar: braceright
Encoding: 197 125 197
GlifName: braceright
Width: 1233
VWidth: 0
Flags: W
LayerCount: 2
Fore
SplineSet
261 -118 m 257
NamedP: "hr00"
 329 -118 l 258
NamedP: "dv02"
 422 -118 484 -103 513 -74 c 256
 542 -45 556 16 556 111 c 258
 556 359 l 258
 556 567 609 648 757 684 c 257
NamedP: "iv01"
 684 701 632 733 602 780 c 256
 573 825 556 895 556 1008 c 258
 556 1256 l 258
 556 1351 542 1412 513 1441 c 256
 484 1470 422 1485 329 1485 c 258
NamedP: "dv03"
 261 1485 l 257
 261 1628 l 257
 323 1628 l 258
NamedP: "dv04"
 490 1628 601 1604 656 1555 c 256
 712 1506 740 1407 740 1260 c 258
 740 1020 l 258
 740 916 768 853 824 813 c 256
 877 774 956 756 1048 756 c 258
 1112 756 l 257
NamedP: "dv06"
 1112 613 l 257
NamedP: "dv05"
 1048 613 l 258
 953 613 876 594 824 555 c 256
 768 514 740 450 740 346 c 258
 740 107 l 258
 740 -41 712 -139 656 -188 c 256
 599 -237 488 -262 323 -262 c 258
NamedP: "dv01"
 261 -262 l 257
 261 -118 l 257
NamedP: "hr00"
EndSplineSet
PickledDataWithLists: "(dp1
S'com.schriftgestaltung.Glyphs.lastChange'
p2
S'2017-07-11 17:15:08 +0000'
p3
s."
EndChar

StartChar: bracketleft
Encoding: 198 91 198
GlifName: bracketleft
Width: 1233
VWidth: 0
Flags: HW
LayerCount: 2
Fore
SplineSet
323 1636 m 257
NamedP: "dh01"
 947 1636 l 261
NamedP: "sh01"
 947 1493 l 261
NamedP: "dv02"
 507 1493 l 257
NamedP: "hr01"
 507 -127 l 257
 947 -127 l 261
NamedP: "hr02"
 947 -270 l 261
NamedP: "dv01"
 323 -270 l 257
 323 1636 l 257
NamedP: "dh01"
EndSplineSet
PickledDataWithLists: "(dp1
S'com.schriftgestaltung.Glyphs.lastChange'
p2
S'2017-07-11 17:15:08 +0000'
p3
s."
EndChar

StartChar: bracketright
Encoding: 199 93 199
GlifName: bracketright
Width: 1233
VWidth: 0
Flags: HW
LayerCount: 2
Fore
SplineSet
286 -127 m 257
NamedP: "hr00"
 726 -127 l 261
NamedP: "sh01"
 726 1492 l 261
NamedP: "dv01"
 286 1492 l 257
NamedP: "sh02"
 286 1635 l 257
 910 1635 l 261
NamedP: "hr01"
 910 -270 l 261
NamedP: "dh01"
 286 -270 l 257
NamedP: "hr02"
 286 -127 l 257
NamedP: "hr00"
EndSplineSet
PickledDataWithLists: "(dp1
S'com.schriftgestaltung.Glyphs.lastChange'
p2
S'2017-07-11 17:15:08 +0000'
p3
s."
EndChar

StartChar: breve
Encoding: 200 728 200
GlifName: breve
Width: 1233
VWidth: 0
Flags: W
LayerCount: 2
Fore
SplineSet
422 1608 m 257
NamedP: "sv01"
 429 1558 448 1520 481 1495 c 256
 512 1470 557 1458 616 1458 c 256
NamedP: "dv01"
 673 1458 718 1470 749 1495 c 256
 782 1520 802 1558 811 1608 c 257
NamedP: "sv02"
 930 1608 l 257
 923 1513 893 1441 840 1393 c 256
 787 1345 712 1321 616 1321 c 256
NamedP: "hr01"
 424 1321 318 1417 303 1608 c 257
NamedP: "hr02"
 422 1608 l 257
NamedP: "sv01"
EndSplineSet
PickledDataWithLists: "(dp1
S'com.schriftgestaltung.Glyphs.lastChange'
p2
S'2017-07-11 17:15:08 +0000'
p3
s."
EndChar

StartChar: brokenbar
Encoding: 201 166 201
GlifName: brokenbar
Width: 1233
VWidth: 0
Flags: W
LayerCount: 2
Fore
SplineSet
530 1432 m 257
NamedP: "hr00"
 702 1432 l 257
NamedP: "dh01"
 702 674 l 257
 530 674 l 257
 530 1432 l 257
NamedP: "hr00"
530 408 m 257
NamedP: "sh01"
 702 408 l 257
NamedP: "sh02"
 702 -350 l 257
NamedP: "av01"
 530 -350 l 257
 530 408 l 257
NamedP: "sh01"
EndSplineSet
PickledDataWithLists: "(dp1
S'com.schriftgestaltung.Glyphs.lastChange'
p2
S'2017-07-11 17:15:08 +0000'
p3
s."
EndChar

StartChar: bullet
Encoding: 202 8226 202
GlifName: bullet
Width: 1233
VWidth: 0
Flags: W
LayerCount: 2
Fore
SplineSet
614 465 m 256
NamedP: "hr00"
 533 465 460 495 404 551 c 256
 348 608 319 681 319 761 c 256
 319 845 349 917 404 972 c 256
 456 1024 530 1057 615 1057 c 256
NamedP: "av01"
 699 1057 771 1027 827 972 c 256
 878 921 913 849 913 761 c 256
 913 681 885 610 826 551 c 256
 767 494 694 465 614 465 c 256
NamedP: "hr00"
EndSplineSet
PickledDataWithLists: "(dp1
S'com.schriftgestaltung.Glyphs.lastChange'
p2
S'2017-07-11 17:15:08 +0000'
p3
s."
EndChar

StartChar: c
Encoding: 203 99 203
GlifName: c
Width: 1233
VWidth: 0
Flags: W
LayerCount: 2
Fore
SplineSet
712 -29 m 256
NamedP: "hr00"
 545 -29 406 24 310 127 c 256
 213 231 164 376 164 559 c 256
NamedP: "dh01"
 164 750 218 893 311 992 c 256
 410 1096 546 1147 713 1147 c 256
NamedP: "dv03"
 774 1147 824 1141 875 1126 c 256
 926 1112 977 1090 1030 1061 c 257
 1030 868 l 257
 981 911 933 943 884 962 c 256
 834 981 779 991 718 991 c 256
NamedP: "dv02"
 602 991 513 954 451 879 c 256
 389 804 358 697 358 560 c 256
NamedP: "dh02"
 358 432 384 320 451 240 c 256
 514 165 604 127 721 127 c 256
NamedP: "dv01"
 788 127 842 138 889 157 c 256
 949 180 989 209 1030 248 c 257
 1030 57 l 257
 985 30 929 7 878 -8 c 256
 831 -21 776 -29 712 -29 c 256
NamedP: "hr00"
EndSplineSet
PickledDataWithLists: "(dp1
S'com.schriftgestaltung.Glyphs.lastChange'
p2
S'2017-07-11 17:15:08 +0000'
p3
s."
EndChar

StartChar: c6459
Encoding: 204 -1 204
GlifName: c6459
Width: 1233
VWidth: 0
Flags: W
LayerCount: 2
Fore
SplineSet
492 1497 m 258
NamedP: "hr00"
 512 1497 522 1487 522 1467 c 258
 522 1324 l 258
NamedP: "sh02"
 522 1304 512 1294 492 1294 c 258
NamedP: "sv01"
 349 1294 l 258
 329 1294 319 1304 319 1324 c 258
NamedP: "sh01"
 319 1467 l 258
 319 1487 329 1497 349 1497 c 258
 492 1497 l 258
NamedP: "hr00"
883 1497 m 258
NamedP: "at01"
 903 1497 913 1487 913 1467 c 258
 913 1324 l 258
NamedP: "sh03"
 913 1304 903 1294 883 1294 c 258
NamedP: "sv02"
 741 1294 l 258
NamedP: "sv03"
 721 1294 711 1304 711 1324 c 258
NamedP: "ah01"
 711 1467 l 258
 711 1487 721 1497 741 1497 c 258
 883 1497 l 258
NamedP: "at01"
EndSplineSet
PickledDataWithLists: "(dp1
S'com.schriftgestaltung.Glyphs.lastChange'
p2
S'2017-07-11 17:15:08 +0000'
p3
s."
EndChar

StartChar: c6460
Encoding: 205 -1 205
GlifName: c6460
Width: 1233
VWidth: 0
Flags: W
LayerCount: 2
Fore
SplineSet
629 1262 m 257
NamedP: "hr00"
 475 1262 l 257
 672 1526 l 257
NamedP: "av01"
 858 1526 l 257
 629 1262 l 257
NamedP: "hr00"
EndSplineSet
PickledDataWithLists: "(dp1
S'com.schriftgestaltung.Glyphs.lastChange'
p2
S'2017-07-11 17:15:08 +0000'
p3
s."
EndChar

StartChar: c6461
Encoding: 206 -1 206
GlifName: c6461
Width: 1233
VWidth: 0
Flags: W
LayerCount: 2
Fore
SplineSet
555 1370 m 258
NamedP: "hr00"
 538 1379 526 1386 515 1390 c 256
 503 1393 494 1395 487 1395 c 256
 463 1395 445 1387 432 1370 c 256
 419 1353 412 1329 412 1300 c 258
 412 1294 l 257
NamedP: "sv01"
 287 1294 l 257
 287 1362 304 1415 339 1454 c 256
 373 1493 418 1513 475 1513 c 256
NamedP: "at01"
 499 1513 521 1510 542 1505 c 256
NamedP: "at02"
 562 1500 588 1489 621 1470 c 258
 678 1440 l 257
 692 1431 705 1425 718 1421 c 256
 729 1417 739 1415 750 1415 c 256
 791 1415 821 1454 821 1507 c 258
NamedP: "at03"
 821 1513 l 257
 946 1513 l 257
NamedP: "at04"
 945 1446 928 1393 893 1354 c 256
 859 1314 814 1294 758 1294 c 256
NamedP: "sv02"
 737 1294 715 1297 694 1302 c 256
 674 1307 647 1318 612 1337 c 257
 555 1370 l 258
NamedP: "hr00"
EndSplineSet
PickledDataWithLists: "(dp1
S'com.schriftgestaltung.Glyphs.lastChange'
p2
S'2017-07-11 17:15:08 +0000'
p3
s."
EndChar

StartChar: c6468
Encoding: 207 -1 207
GlifName: c6468
Width: 1233
VWidth: 0
Flags: W
LayerCount: 2
Fore
SplineSet
604 1262 m 257
NamedP: "hr00"
 377 1526 l 257
NamedP: "av01"
 561 1526 l 257
 758 1262 l 257
 604 1262 l 257
NamedP: "hr00"
EndSplineSet
PickledDataWithLists: "(dp1
S'com.schriftgestaltung.Glyphs.lastChange'
p2
S'2017-07-11 17:15:08 +0000'
p3
s."
EndChar

StartChar: c6470
Encoding: 208 -1 208
GlifName: c6470
Width: 1233
VWidth: 0
Flags: W
LayerCount: 2
Fore
SplineSet
922 1262 m 257
NamedP: "hr00"
 782 1262 l 257
 616 1440 l 257
 451 1262 l 257
NamedP: "av02"
 311 1262 l 257
 522 1528 l 257
NamedP: "av01"
 711 1528 l 257
 922 1262 l 257
NamedP: "hr00"
EndSplineSet
PickledDataWithLists: "(dp1
S'com.schriftgestaltung.Glyphs.lastChange'
p2
S'2017-07-11 17:15:08 +0000'
p3
s."
EndChar

StartChar: c6472
Encoding: 209 -1 209
GlifName: c6472
Width: 1233
VWidth: 0
Flags: W
LayerCount: 2
Fore
SplineSet
451 1528 m 257
NamedP: "hr00"
 616 1350 l 257
 782 1528 l 257
NamedP: "av01"
 922 1528 l 257
 711 1262 l 257
NamedP: "av02"
 522 1262 l 257
 311 1528 l 257
 451 1528 l 257
NamedP: "hr00"
EndSplineSet
PickledDataWithLists: "(dp1
S'com.schriftgestaltung.Glyphs.lastChange'
p2
S'2017-07-11 17:15:08 +0000'
p3
s."
EndChar

StartChar: c6475
Encoding: 210 -1 210
GlifName: c6475
Width: 1233
VWidth: 0
Flags: W
LayerCount: 2
Fore
SplineSet
422 1528 m 257
NamedP: "sv01"
 438 1457 507 1417 616 1417 c 256
NamedP: "dv01"
 671 1417 715 1426 748 1445 c 256
 780 1463 801 1491 811 1528 c 257
NamedP: "sv02"
 930 1528 l 257
 923 1449 893 1389 840 1348 c 256
 787 1307 712 1286 616 1286 c 256
NamedP: "hr01"
 520 1286 446 1306 393 1347 c 256
 340 1388 310 1449 303 1528 c 257
NamedP: "hr02"
 422 1528 l 257
NamedP: "sv01"
EndSplineSet
PickledDataWithLists: "(dp1
S'com.schriftgestaltung.Glyphs.lastChange'
p2
S'2017-07-11 17:15:08 +0000'
p3
s."
EndChar

StartChar: c6476
Encoding: 211 -1 211
GlifName: c6476
Width: 1233
VWidth: 0
Flags: W
LayerCount: 2
Fore
SplineSet
689 1499 m 258
NamedP: "hr00"
 709 1499 719 1489 719 1469 c 258
 719 1324 l 258
NamedP: "dh02"
 719 1304 709 1294 689 1294 c 258
NamedP: "sv01"
 544 1294 l 258
NamedP: "sv02"
 524 1294 514 1304 514 1324 c 258
NamedP: "dh01"
 514 1469 l 258
 514 1489 524 1499 544 1499 c 258
NamedP: "at01"
 689 1499 l 258
NamedP: "hr00"
EndSplineSet
PickledDataWithLists: "(dp1
S'com.schriftgestaltung.Glyphs.lastChange'
p2
S'2017-07-11 17:15:08 +0000'
p3
s."
EndChar

StartChar: c6477
Encoding: 212 -1 212
GlifName: c6477
Width: 1233
VWidth: 0
Flags: W
LayerCount: 2
Fore
SplineSet
1087 874 m 257
NamedP: "hr00"
 1114 766 l 257
 51 504 l 257
NamedP: "av01"
 27 612 l 257
 1087 874 l 257
NamedP: "hr00"
EndSplineSet
PickledDataWithLists: "(dp1
S'com.schriftgestaltung.Glyphs.lastChange'
p2
S'2017-07-11 17:15:08 +0000'
p3
s."
EndChar

StartChar: c6478
Encoding: 213 -1 213
GlifName: c6478
Width: 1233
VWidth: 0
Flags: W
LayerCount: 2
Fore
SplineSet
793 965 m 257
NamedP: "hr00"
 909 965 l 257
NamedP: "dv02"
 909 854 l 257
NamedP: "dv01"
 793 854 l 257
 793 668 l 257
NamedP: "dh02"
 655 668 l 257
NamedP: "dh01"
 655 854 l 257
NamedP: "sv01"
 268 854 l 257
 268 975 l 257
 631 1503 l 257
NamedP: "at01"
 793 1503 l 257
 793 965 l 257
NamedP: "hr00"
655 965 m 257
NamedP: "sh01"
 655 1378 l 257
NamedP: "iv01"
 381 965 l 257
NamedP: "iv02"
 655 965 l 257
NamedP: "sh01"
EndSplineSet
PickledDataWithLists: "(dp1
S'com.schriftgestaltung.Glyphs.lastChange'
p2
S'2017-07-11 17:15:08 +0000'
p3
s."
EndChar

StartChar: cacute
Encoding: 214 263 214
GlifName: cacute
Width: 1233
VWidth: 0
Flags: W
LayerCount: 2
Fore
SplineSet
815 1673 m 257
NamedP: "hr00"
 1013 1673 l 257
 688 1297 l 257
 534 1297 l 257
 815 1673 l 257
NamedP: "hr00"
712 -29 m 256
NamedP: "dv01"
 373 -29 164 192 164 559 c 256
NamedP: "dh01"
 164 750 218 893 311 992 c 256
 410 1096 546 1147 713 1147 c 256
NamedP: "dv04"
 774 1147 824 1141 875 1126 c 256
 926 1112 977 1090 1030 1061 c 257
 1030 868 l 257
 981 911 933 943 884 962 c 256
 834 981 779 991 718 991 c 256
NamedP: "dv03"
 602 991 513 954 451 879 c 256
 389 804 358 697 358 560 c 256
NamedP: "dh02"
 358 432 384 320 451 240 c 256
 514 165 604 127 721 127 c 256
NamedP: "dv02"
 788 127 842 138 889 157 c 256
 949 180 989 209 1030 248 c 257
 1030 57 l 257
 985 30 929 7 878 -8 c 256
 831 -21 776 -29 712 -29 c 256
NamedP: "dv01"
EndSplineSet
PickledDataWithLists: "(dp1
S'com.schriftgestaltung.Glyphs.lastChange'
p2
S'2017-07-11 17:15:08 +0000'
p3
s."
EndChar

StartChar: caron
Encoding: 215 711 215
GlifName: caron
Width: 1233
VWidth: 0
Flags: W
LayerCount: 2
Fore
SplineSet
436 1638 m 257
NamedP: "hr00"
 616 1393 l 257
NamedP: "iv01"
 797 1638 l 257
NamedP: "av01"
 936 1638 l 257
 690 1262 l 257
NamedP: "av02"
 543 1262 l 257
 297 1638 l 257
 436 1638 l 257
NamedP: "hr00"
EndSplineSet
PickledDataWithLists: "(dp1
S'com.schriftgestaltung.Glyphs.lastChange'
p2
S'2017-07-11 17:15:08 +0000'
p3
s."
EndChar

StartChar: carriagereturn
Encoding: 216 8629 216
GlifName: carriagereturn
Width: 1233
VWidth: 0
Flags: W
LayerCount: 2
Fore
SplineSet
64 291 m 257
NamedP: "hr00"
 64 373 l 257
 354 664 l 257
 444 574 l 257
 284 414 l 257
 1006 414 l 257
NamedP: "dh01"
 1006 861 l 257
NamedP: "av01"
 1170 861 l 257
 1170 250 l 257
NamedP: "dh02"
 284 250 l 257
 444 90 l 257
 354 0 l 257
NamedP: "ab01"
 64 291 l 257
NamedP: "hr00"
EndSplineSet
PickledDataWithLists: "(dp1
S'com.schriftgestaltung.Glyphs.lastChange'
p2
S'2017-07-11 17:15:08 +0000'
p3
s."
EndChar

StartChar: ccaron
Encoding: 217 269 217
GlifName: ccaron
Width: 1233
VWidth: 0
Flags: W
LayerCount: 2
Fore
SplineSet
356 1673 m 257
NamedP: "hr00"
 495 1673 l 257
 675 1428 l 257
 856 1673 l 257
NamedP: "av01"
 995 1673 l 257
 749 1297 l 257
 602 1297 l 257
 356 1673 l 257
NamedP: "hr00"
712 -29 m 256
NamedP: "dv01"
 373 -29 164 192 164 559 c 256
NamedP: "dh01"
 164 750 218 893 311 992 c 256
 410 1096 546 1147 713 1147 c 256
NamedP: "dv04"
 774 1147 824 1141 875 1126 c 256
 926 1112 977 1090 1030 1061 c 257
 1030 868 l 257
 981 911 933 943 884 962 c 256
 834 981 779 991 718 991 c 256
NamedP: "dv03"
 602 991 513 954 451 879 c 256
 389 804 358 697 358 560 c 256
NamedP: "dh02"
 358 432 384 320 451 240 c 256
 514 165 604 127 721 127 c 256
NamedP: "dv02"
 788 127 842 138 889 157 c 256
 949 180 989 209 1030 248 c 257
 1030 57 l 257
 985 30 929 7 878 -8 c 256
 831 -21 776 -29 712 -29 c 256
NamedP: "dv01"
EndSplineSet
PickledDataWithLists: "(dp1
S'com.schriftgestaltung.Glyphs.lastChange'
p2
S'2017-07-11 17:15:08 +0000'
p3
s."
EndChar

StartChar: ccedilla
Encoding: 218 231 218
GlifName: ccedilla
Width: 1233
VWidth: 0
Flags: W
LayerCount: 2
Fore
SplineSet
718 991 m 256
NamedP: "hr00"
 602 991 513 954 451 879 c 256
 389 804 358 697 358 560 c 256
NamedP: "dh02"
 358 432 384 320 451 240 c 256
 514 165 604 127 721 127 c 256
NamedP: "dv05"
 788 127 842 138 889 157 c 256
 949 180 989 209 1030 248 c 257
 1030 57 l 257
 985 30 929 7 878 -8 c 257
 851 -15 825 -21 794 -24 c 257
NamedP: "ih01"
 821 -56 841 -86 856 -115 c 256
 871 -146 882 -179 882 -219 c 256
NamedP: "dh04"
 882 -272 862 -319 822 -350 c 256
 783 -379 726 -395 643 -395 c 256
NamedP: "dv01"
 614 -395 585 -393 556 -389 c 256
NamedP: "sv01"
 525 -385 496 -379 468 -371 c 257
 468 -240 l 257
NamedP: "dh03"
 513 -261 567 -272 619 -272 c 256
NamedP: "dv02"
 704 -272 743 -239 743 -180 c 256
 743 -159 736 -134 721 -105 c 256
 710 -84 695 -58 674 -28 c 257
NamedP: "dv04"
 525 -20 399 32 310 127 c 256
 214 230 164 376 164 559 c 256
NamedP: "dh01"
 164 750 218 893 311 992 c 256
 410 1096 546 1147 713 1147 c 256
NamedP: "dv03"
 774 1147 824 1141 875 1126 c 256
 926 1112 977 1090 1030 1061 c 257
 1030 868 l 257
 981 911 933 943 884 962 c 256
 834 981 779 991 718 991 c 256
NamedP: "hr00"
EndSplineSet
PickledDataWithLists: "(dp1
S'com.schriftgestaltung.Glyphs.lastChange'
p2
S'2017-07-11 17:15:08 +0000'
p3
s."
EndChar

StartChar: ccircumflex
Encoding: 219 265 219
GlifName: ccircumflex
Width: 1233
VWidth: 0
Flags: W
LayerCount: 2
Fore
SplineSet
578 1673 m 257
NamedP: "hr00"
 725 1673 l 257
 971 1297 l 257
 832 1297 l 257
 651 1542 l 257
 471 1297 l 257
 332 1297 l 257
 578 1673 l 257
NamedP: "hr00"
310 127 m 256
 213 232 164 376 164 559 c 256
 164 927 374 1147 713 1147 c 256
 832 1147 919 1122 1030 1061 c 257
 1030 868 l 257
 930 956 839 991 718 991 c 256
 486 991 358 836 358 560 c 256
 358 281 488 127 721 127 c 256
 784 127 840 137 889 157 c 257
 944 177 983 204 1030 248 c 257
 1030 57 l 257
 939 2 829 -29 712 -29 c 256
 544 -29 406 24 310 127 c 256
EndSplineSet
PickledDataWithLists: "(dp1
S'com.schriftgestaltung.Glyphs.lastChange'
p2
S'2017-07-11 17:15:08 +0000'
p3
s."
EndChar

StartChar: cdotaccent
Encoding: 220 267 220
GlifName: cdotaccent
Width: 1233
VWidth: 0
Flags: W
LayerCount: 2
Fore
SplineSet
587 1348 m 258
NamedP: "hr00"
 567 1348 557 1358 557 1378 c 258
NamedP: "ah01"
 557 1522 l 258
 557 1542 567 1552 587 1552 c 258
NamedP: "dv03"
 732 1552 l 258
 752 1552 762 1542 762 1522 c 258
 762 1378 l 258
NamedP: "sh01"
 762 1358 752 1348 732 1348 c 258
 587 1348 l 258
NamedP: "hr00"
717 -29 m 256
NamedP: "dv01"
 370 -29 164 191 164 559 c 256
NamedP: "sh02"
 164 927 370 1147 717 1147 c 256
NamedP: "dv05"
 825 1147 926 1121 1030 1061 c 257
 1030 868 l 257
 933 955 841 991 717 991 c 256
NamedP: "dv04"
 485 991 358 838 358 559 c 256
NamedP: "sh03"
 358 282 486 127 717 127 c 256
NamedP: "dv02"
 846 127 942 164 1030 248 c 257
 1030 57 l 257
 931 0 826 -29 717 -29 c 256
NamedP: "dv01"
EndSplineSet
PickledDataWithLists: "(dp1
S'com.schriftgestaltung.Glyphs.lastChange'
p2
S'2017-07-11 17:15:08 +0000'
p3
s."
EndChar

StartChar: cedilla
Encoding: 221 184 221
GlifName: cedilla
Width: 1233
VWidth: 0
Flags: W
LayerCount: 2
Fore
SplineSet
700 0 m 257
NamedP: "hr00"
 737 -41 764 -79 783 -115 c 256
 798 -146 809 -179 809 -219 c 256
NamedP: "dh02"
 809 -272 789 -319 749 -350 c 256
 710 -379 653 -395 570 -395 c 256
NamedP: "dv01"
 541 -395 512 -393 483 -389 c 256
NamedP: "sv01"
 452 -385 423 -379 395 -371 c 257
 395 -240 l 257
NamedP: "dh01"
 440 -261 494 -272 546 -272 c 256
NamedP: "dv02"
 631 -272 670 -239 670 -180 c 256
 670 -159 663 -134 648 -105 c 256
 633 -76 611 -41 582 0 c 257
NamedP: "ih01"
 700 0 l 257
NamedP: "hr00"
EndSplineSet
PickledDataWithLists: "(dp1
S'com.schriftgestaltung.Glyphs.lastChange'
p2
S'2017-07-11 17:15:08 +0000'
p3
s."
EndChar

StartChar: cent
Encoding: 222 162 222
GlifName: cent
Width: 1233
VWidth: 0
Flags: W
LayerCount: 2
Fore
SplineSet
698 -27 m 257
NamedP: "dh03"
 549 -12 432 44 344 152 c 256
 260 255 210 398 210 558 c 256
NamedP: "dh01"
 210 721 262 866 345 967 c 256
 426 1067 541 1130 698 1145 c 257
NamedP: "sh01"
 698 1432 l 257
NamedP: "av01"
 801 1432 l 257
NamedP: "sh02"
 801 1145 l 257
 882 1139 960 1122 1061 1077 c 257
NamedP: "hr01"
 1061 905 l 257
NamedP: "iv01"
 1021 929 972 952 929 967 c 256
 882 983 842 990 801 993 c 257
NamedP: "hr02"
 801 123 l 257
 844 126 886 136 930 151 c 256
 971 166 1018 186 1061 213 c 257
NamedP: "hr03"
 1061 41 l 257
NamedP: "sh03"
 1000 14 964 4 923 -7 c 256
 880 -18 839 -25 801 -27 c 257
NamedP: "hr04"
 801 -313 l 257
NamedP: "av02"
 698 -313 l 257
 698 -27 l 257
NamedP: "dh03"
698 991 m 257
NamedP: "sh04"
 609 983 539 940 486 861 c 256
 433 782 406 681 406 559 c 256
NamedP: "dh02"
 406 437 433 337 486 258 c 256
 541 178 610 136 698 127 c 257
 698 991 l 257
NamedP: "sh04"
EndSplineSet
PickledDataWithLists: "(dp1
S'com.schriftgestaltung.Glyphs.lastChange'
p2
S'2017-07-11 17:15:08 +0000'
p3
s."
EndChar

StartChar: chi
Encoding: 223 967 223
GlifName: chi
Width: 1233
VWidth: 0
Flags: W
LayerCount: 2
Fore
SplineSet
524 351 m 257
NamedP: "hr00"
 341 836 l 258
 310 920 242 962 138 962 c 258
NamedP: "sv01"
 89 962 l 257
 89 1120 l 257
NamedP: "at01"
 159 1120 l 258
 327 1120 437 1064 482 944 c 258
 625 564 l 257
NamedP: "iv01"
 891 1120 l 257
NamedP: "at02"
 1082 1120 l 257
 709 340 l 257
 891 -142 l 257
 922 -226 990 -268 1095 -268 c 258
NamedP: "sv02"
 1144 -268 l 257
 1144 -426 l 257
NamedP: "ab01"
 1074 -426 l 258
 906 -426 795 -370 750 -250 c 258
 608 128 l 257
NamedP: "iv02"
 343 -426 l 257
NamedP: "ab02"
 152 -426 l 257
 524 351 l 257
NamedP: "hr00"
EndSplineSet
PickledDataWithLists: "(dp1
S'com.schriftgestaltung.Glyphs.lastChange'
p2
S'2017-07-11 17:15:08 +0000'
p3
s."
EndChar

StartChar: circle
Encoding: 224 9675 224
GlifName: circle
Width: 1233
VWidth: 0
Flags: W
LayerCount: 2
Fore
SplineSet
617 -84 m 256
NamedP: "hr00"
 524 -84 413 -55 310 2 c 256
 118 109 6 301 6 532 c 256
NamedP: "sh01"
 6 765 118 953 310 1062 c 256
 413 1119 524 1148 617 1148 c 256
NamedP: "dv03"
 710 1148 818 1120 922 1061 c 256
 1117 952 1227 772 1227 532 c 256
NamedP: "sh02"
 1227 292 1117 112 922 3 c 256
 818 -56 710 -84 617 -84 c 256
NamedP: "hr00"
616 39 m 256
NamedP: "dv01"
 692 39 778 62 861 109 c 256
 1021 200 1105 349 1105 532 c 256
NamedP: "ah01"
 1105 715 1021 864 861 955 c 256
 778 1002 692 1025 616 1025 c 256
NamedP: "dv02"
 540 1025 454 1002 371 955 c 256
 216 867 128 723 128 532 c 256
NamedP: "sh03"
 128 341 216 197 371 109 c 256
 454 62 540 39 616 39 c 256
NamedP: "dv01"
EndSplineSet
PickledDataWithLists: "(dp1
S'com.schriftgestaltung.Glyphs.lastChange'
p2
S'2017-07-11 17:15:08 +0000'
p3
s."
EndChar

StartChar: circlemultiply
Encoding: 225 8855 225
GlifName: circlemultiply
Width: 1233
VWidth: 0
Flags: W
LayerCount: 2
Fore
SplineSet
617 106 m 256
NamedP: "hr00"
 465 106 331 168 236 263 c 256
 132 367 80 503 80 644 c 256
NamedP: "sh01"
 80 785 132 919 236 1023 c 256
 287 1074 348 1115 412 1142 c 256
 479 1170 544 1182 613 1182 c 256
NamedP: "dv03"
 770 1182 901 1120 997 1024 c 256
 1101 920 1153 786 1153 643 c 256
NamedP: "sh02"
 1153 504 1102 368 997 263 c 256
 904 170 770 106 617 106 c 256
NamedP: "hr00"
616 246 m 256
NamedP: "dv01"
 721 246 822 289 897 362 c 256
 969 434 1012 533 1012 646 c 256
NamedP: "ah01"
 1012 747 977 844 896 924 c 256
 853 967 809 992 768 1011 c 256
 721 1031 671 1041 619 1041 c 256
NamedP: "dv02"
 515 1041 412 1001 336 925 c 256
 259 848 221 746 221 642 c 256
NamedP: "sh03"
 221 530 264 434 337 362 c 256
 412 289 509 246 616 246 c 256
NamedP: "dv01"
324 448 m 257
 518 642 l 257
 322 838 l 257
 421 937 l 257
 617 741 l 257
 812 936 l 257
 911 837 l 257
 716 642 l 257
 910 448 l 257
 811 349 l 257
 617 543 l 257
 423 349 l 257
 324 448 l 257
EndSplineSet
PickledDataWithLists: "(dp1
S'com.schriftgestaltung.Glyphs.lastChange'
p2
S'2017-07-11 17:15:08 +0000'
p3
s."
EndChar

